<?xml version="1.0" encoding="iso-8859-1"?>
<!-- Generator: Adobe Illustrator 19.0.0, SVG Export Plug-In . SVG Version: 6.00 Build 0)  -->
<svg version="1.1" id="Capa_1" xmlns="http://www.w3.org/2000/svg" xmlns:xlink="http://www.w3.org/1999/xlink" x="0px" y="0px"
	 viewBox="0 0 480 480" style="enable-background:new 0 0 480 480;" xml:space="preserve">
<g>
	<g>
		<path d="M288,120c-8.824,0-16-7.176-16-16c0-4.418-3.582-8-8-8h-48c-4.418,0-8,3.582-8,8c0,8.824-7.176,16-16,16
			c-4.418,0-8,3.582-8,8v40c0,3.105,1.797,5.93,4.605,7.246c2.813,1.309,6.133,0.887,8.516-1.102
			c24.844-20.703,60.914-20.703,85.758,0c1.465,1.223,3.285,1.855,5.121,1.855c1.152,0,2.309-0.25,3.395-0.754
			C294.203,173.93,296,171.105,296,168v-40C296,123.582,292.418,120,288,120z M280,152.887c-12.43-6.848-26.215-10.27-40-10.27
			s-27.57,3.422-40,10.27v-17.898c11.23-2.902,20.086-11.758,22.988-22.988h34.023c2.902,11.23,11.758,20.086,22.988,22.988V152.887
			z"/>
	</g>
</g>
<g>
	<g>
		<path d="M424,120h48c4.418,0,8-3.582,8-8V32c0-4.418-3.582-8-8-8h-48h-12.688L389.656,2.344C388.156,0.844,386.121,0,384,0h-56
			c-2.121,0-4.156,0.844-5.656,2.344l-29.652,29.652L280,31.982V8c0-4.418-3.582-8-8-8h-64c-4.418,0-8,3.582-8,8v23.891
			l-44.445-0.051L127.953,32c-4.398,0.027-7.953,3.602-7.953,8v132.688L100.688,192H64H8c-4.418,0-8,3.582-8,8v80
			c0,4.418,3.582,8,8,8h56h56v104c0,4.418,3.582,8,8,8h104v32c0,2.121,0.844,4.156,2.344,5.656l40,40
			c1.5,1.5,3.535,2.344,5.656,2.344h144h48c4.418,0,8-3.582,8-8v-80c0-4.418-3.582-8-8-8h-48h-24v-32c0-4.418-3.582-8-8-8h-8
			c-9.04,0-17.294,3.128-24,8.205V120H424z M432,40h32v64h-32V40z M56,272H16v-64h40V272z M432,400h32v64h-32V400z M216,16h48
			v15.963l-48-0.055V16z M136,47.953l19.594-0.113L295.992,48v-0.001c0.003,0,0.005,0.001,0.008,0.001h48v16
			c-6.038,0-11.912,1.406-17.247,3.97C325.355,65.639,322.916,64,320,64H160c-4.418,0-8,3.582-8,8v96h-16V47.953z M312,120v232H168
			v-64h16v16c0,4.418,3.582,8,8,8c8.824,0,16,7.176,16,16c0,4.418,3.582,8,8,8h48c4.418,0,8-3.582,8-8
			c0-4.262,1.668-8.277,4.695-11.305S283.738,312,288,312c4.418,0,8-3.582,8-8v-40c0-3.105-1.797-5.93-4.605-7.246
			c-2.813-1.309-6.133-0.891-8.516,1.102c-12.063,10.051-27.289,15.586-42.879,15.586c-11.58,0-22.838-3.167-32.881-8.927
			c-1.178-6.111-3.605-11.761-7.22-16.535c0.036,0,0.065,0.021,0.102,0.021h40c4.418,0,8-3.582,8-8v-40h24v32h-8v16h16
			c4.418,0,8-3.582,8-8v-16h8v-16h-8v-16c0-4.418-3.582-8-8-8h-40c-4.418,0-8,3.582-8,8v40h-24v-32h8v-16h-16c-4.418,0-8,3.582-8,8
			v16h-8v16h8v16c0,0.113,0.06,0.207,0.064,0.318C185.315,235.177,177.021,232,168,232v-56V80h144v0.059
			c-0.482,0.646-0.839,1.363-1.28,2.033c-0.51,0.775-1.021,1.539-1.475,2.344c-0.693,1.229-1.274,2.499-1.833,3.787
			c-0.349,0.805-0.732,1.587-1.027,2.412c-0.517,1.443-0.884,2.925-1.231,4.417c-0.167,0.72-0.405,1.417-0.532,2.146
			C304.23,99.437,304,101.707,304,104v8C304,116.418,307.582,120,312,120z M200,297.012V288c1.009,0,1.95-0.232,2.839-0.573
			c0.271-0.104,0.503-0.251,0.76-0.383c0.598-0.306,1.143-0.666,1.641-1.106c0.23-0.204,0.445-0.4,0.651-0.628
			c0.473-0.523,0.852-1.105,1.173-1.74c0.109-0.214,0.251-0.396,0.34-0.621c0.029-0.072,0.084-0.129,0.111-0.203
			c23,9.906,50.5,8.477,72.484-3.641v17.898c-5.48,1.41-10.508,4.266-14.617,8.379c-4.113,4.109-6.969,9.137-8.379,14.617h-34.016
			C220.086,308.77,211.23,299.914,200,297.012z M72,272v-64h32c2.121,0,4.156-0.844,5.656-2.344L131.313,184H152v56
			c0,4.418,3.582,8,8,8h8c12.52,0,23.035,9.777,23.961,22.457c0.051,0.531,0.039,1.012,0.039,1.543h-32H72z M136,384v-96h16v72
			c0,4.418,3.582,8,8,8h160c4.418,0,8-3.582,8-8V120h16v264H240H136z M384,360v32c0,4.418,3.582,8,8,8h24v64H283.313L248,428.688
			V400h104c4.418,0,8-3.582,8-8v-8C360,370.766,370.766,360,384,360z M320,104c0-1.444,0.134-2.879,0.395-4.29
			c0.783-4.224,2.712-8.22,5.617-11.554C330.574,82.975,337.131,80,344,80h8c4.418,0,8-3.582,8-8V40c0-4.418-3.582-8-8-8h-36.688
			l16-16h49.375l21.656,21.656c1.5,1.5,3.535,2.344,5.656,2.344h8v64H320z"/>
	</g>
</g>
<g>
</g>
<g>
</g>
<g>
</g>
<g>
</g>
<g>
</g>
<g>
</g>
<g>
</g>
<g>
</g>
<g>
</g>
<g>
</g>
<g>
</g>
<g>
</g>
<g>
</g>
<g>
</g>
<g>
</g>
</svg>
