<?xml version="1.0" encoding="utf-8"?>
<!-- Generator: Adobe Illustrator 21.1.0, SVG Export Plug-In . SVG Version: 6.00 Build 0)  -->
<svg version="1.1" id="Layer_1" xmlns="http://www.w3.org/2000/svg" xmlns:xlink="http://www.w3.org/1999/xlink" x="0px" y="0px"
	 viewBox="0 0 800 800" style="enable-background:new 0 0 800 800;" xml:space="preserve">
<style type="text/css">
	.st0{fill:#2196F3;}
	.st1{fill:#FAFAFA;}
</style>
<path class="st0" d="M400.3,5.1C187.5,0.9,11.4,169.6,6.5,382.4c0.6,108.3,48.5,211,131.2,280.9v112.9c0,9.1,7.3,16.4,16.4,16.4
	c3.1,0,6.1-0.9,8.7-2.5l91.4-57.1c46.6,17.8,96.1,26.9,145.9,26.8c212.8,4.2,388.9-164.6,393.7-377.3
	C789.1,169.6,613.1,0.9,400.3,5.1z"/>
<path class="st1" d="M659.5,274.1c-4.9-6.5-13.8-8.5-21-4.6l-170.6,93l-106.1-91c-6.5-5.6-16.2-5.2-22.3,0.9L142.6,469.3
	c-6.4,6.4-6.4,16.8,0.1,23.2c5.1,5.1,13,6.2,19.4,2.8l170.6-93l106.2,91.1c6.5,5.6,16.2,5.2,22.3-0.9L658,295.6
	C663.8,289.8,664.4,280.6,659.5,274.1z"/>
</svg>
