<?xml version="1.0" encoding="utf-8"?>
<!-- Generator: Adobe Illustrator 21.1.0, SVG Export Plug-In . SVG Version: 6.00 Build 0)  -->
<svg version="1.1" id="Layer_1" xmlns="http://www.w3.org/2000/svg" xmlns:xlink="http://www.w3.org/1999/xlink" x="0px" y="0px"
	 viewBox="0 0 400 400" style="enable-background:new 0 0 400 400;" xml:space="preserve">
<style type="text/css">
	.st0{fill:#6E00FF;}
	.st1{fill:#F2F2F2;}
</style>
<g>
	<path class="st0" d="M32,0h336c17.7,0,32,14.3,32,32v336c0,17.7-14.3,32-32,32H32c-17.7,0-32-14.3-32-32V32C0,14.3,14.3,0,32,0z"/>
	<path class="st1" d="M220.6,185.2c-0.8-0.8-1.2-1.8-1.2-2.8c0-1.1,0.4-2.1,1.2-2.8l29.9-29.5c1.6-1.6,4.2-1.6,5.8,0l60.4,59.5
		c4.4,4.5,4.4,11.7-0.1,16.1l-62,61.1c-0.8,0.8-1.8,1.2-2.9,1.2h-59.9c-1.7,0-3.2-1-3.8-2.6c-0.6-1.5-0.2-3.3,1.1-4.4l61.5-60.6
		c0.8-0.8,1.2-1.8,1.2-2.8c0-1.1-0.4-2.1-1.2-2.8L220.6,185.2L220.6,185.2z M179.4,214.8c0.8,0.8,1.2,1.8,1.2,2.8
		c0,1.1-0.4,2.1-1.2,2.8l-29.9,29.5c-1.6,1.6-4.2,1.6-5.8,0l-60.4-59.5c-4.4-4.5-4.4-11.6,0.1-16.1l62-61.1c0.8-0.8,1.8-1.2,2.9-1.2
		h59.9c1.7,0,3.2,1,3.8,2.6c0.6,1.5,0.2,3.3-1.1,4.4l-61.5,60.6c-0.8,0.8-1.2,1.8-1.2,2.8c0,1,0.4,2.1,1.2,2.8L179.4,214.8
		L179.4,214.8z"/>
</g>
</svg>
