<svg height="496pt" viewBox="0 0 496 496" width="496pt" xmlns="http://www.w3.org/2000/svg"><path d="m360 112c-4.40625 0-8-3.59375-8-8h-16c0 10.414062 6.710938 19.214844 16 22.527344v9.472656h16v-9.472656c9.289062-3.3125 16-12.113282 16-22.527344 0-13.230469-10.769531-24-24-24-4.40625 0-8-3.59375-8-8s3.59375-8 8-8 8 3.59375 8 8h16c0-10.414062-6.710938-19.214844-16-22.527344v-9.472656h-16v9.472656c-9.289062 3.3125-16 12.113282-16 22.527344 0 13.230469 10.769531 24 24 24 4.40625 0 8 3.59375 8 8s-3.59375 8-8 8zm0 0"/><path d="m384.34375 444.6875 12.609375-31.519531-14.5625 3c-18.292969 3.769531-36.023437 9.726562-52.839844 17.761719 2.152344-8.59375 6.136719-16.714844 11.695313-23.664063l29.3125-36.632813-32.710938 4.085938c-23.167968 2.898438-45.441406 10.105469-65.832031 21.015625v-182.734375h139.3125l40-40-33.191406-33.191406c13.503906-14.335938 21.863281-33.59375 21.863281-54.808594 0-44.113281-35.886719-80-80-80s-80 35.886719-80 80c0 18.023438 6.0625 34.609375 16.152344 48h-24.152344v-114.9375c0-11.613281-10.769531-21.0625-24-21.0625s-24 9.449219-24 21.0625v18.9375h-139.3125l-40 40 40 40h139.3125v48h-139.3125l-40 40 40 40h139.3125v150.726562c-20.398438-10.917968-42.671875-18.125-65.832031-21.015624l-32.710938-4.085938 29.3125 36.632812c5.558594 6.957032 9.542969 15.070313 11.695313 23.664063-16.824219-8.027344-34.542969-13.992187-52.839844-17.761719l-14.5625-3 12.609375 31.519532c4.535156 11.34375 7.136719 23.199218 7.960937 35.3125h-87.632812v16h432v-16h-87.625c.832031-12.105469 3.425781-23.960938 7.96875-35.304688zm-24.34375-420.6875c35.289062 0 64 28.710938 64 64s-28.710938 64-64 64-64-28.710938-64-64 28.710938-64 64-64zm-47.800781 128c13.351562 10 29.863281 16 47.800781 16 17.136719 0 32.984375-5.464844 46.015625-14.671875l22.671875 22.671875-24 24h-132.6875v-48zm-220.886719-48-24-24 24-24h132.6875v48zm0 128-24-24 24-24h132.6875v48zm148.6875 176v-386.9375c0-2.390625 3.425781-5.0625 8-5.0625s8 2.671875 8 5.0625v386.9375h.449219c-2.855469 1.894531-5.6875 3.832031-8.449219 5.886719-2.753906-2.054688-5.59375-3.992188-8.449219-5.886719zm-104.238281 72c-.851563-14.167969-3.953125-28.007812-9.25-41.257812l-1.328125-3.300782c15.183594 4.261719 29.855468 10.191406 43.785156 17.703125l15.503906 8.335938-.167968-13.585938c-.226563-17.253906-6.28125-34.167969-17.046876-47.636719l-4.59375-5.746093c29.375 4.808593 57.03125 17.089843 80.34375 35.726562l5 4 5-4c23.3125-18.644531 50.96875-30.925781 80.34375-35.726562l-4.589843 5.746093c-10.777344 13.460938-16.832031 30.382813-17.050781 47.636719l-.167969 13.585938 15.511719-8.34375c13.921874-7.503907 28.59375-13.433594 43.777343-17.695313l-1.320312 3.300782c-5.304688 13.25-8.265625 27.097656-9.113281 41.257812zm0 0"/><path d="m64 264h16v16h-16zm0 0"/><path d="m96 264h112v16h-112zm0 0"/><path d="m416 232h16v16h-16zm0 0"/><path d="m288 232h112v16h-112zm0 0"/><path d="m64 296h16v16h-16zm0 0"/><path d="m96 296h112v16h-112zm0 0"/><path d="m0 480h16v16h-16zm0 0"/><path d="m480 480h16v16h-16zm0 0"/></svg>