<?xml version="1.0" encoding="utf-8"?>
<!-- Generator: Adobe Illustrator 21.1.0, SVG Export Plug-In . SVG Version: 6.00 Build 0)  -->
<svg version="1.1" id="Layer_1" xmlns="http://www.w3.org/2000/svg" xmlns:xlink="http://www.w3.org/1999/xlink" x="0px" y="0px"
	 viewBox="0 0 400 400" style="enable-background:new 0 0 400 400;" xml:space="preserve">
<style type="text/css">
	.st0{fill:#149CD4;}
	.st1{fill:#FFFFFF;}
</style>
<path class="st0" d="M38.4,0h323.2C382.8,0,400,17.2,400,38.4v323.2c0,21.2-17.2,38.4-38.4,38.4H38.4C17.2,400,0,382.8,0,361.6V38.4
	C0,17.2,17.2,0,38.4,0z"/>
<g transform="translate(12.5, 12.5)">
	<path class="st1" d="M126.2,72.2c-0.9,0.1-2.2,0.6-3.2,1.1c-2.7,1.4-4.6,3.8-5.3,6.6c-0.3,1.4-30.3,191.7-30.3,192.5
		c0,1.6,0.6,3.1,1.8,4.3c0.9,0.9,1.7,1.4,2.8,1.6c0.8,0.2,1.2,0.2,23.4,0.2c22.3,0,22.6,0,22.6,0.2c0,0.1-0.7,4.6-1.6,10
		c-0.9,5.4-1.5,10-1.5,10.2c0,1.1,0.6,2.6,1.4,3.5l0.5,0.5l23,0l23,0l0.7-0.5c0.8-0.6,1.5-1.3,2.1-2.3c0.7-1,1-2,1.4-3.7
		c0.2-0.8,1.9-11.6,3.9-24c3.7-23.2,4-25.4,4.4-26.4c0.4-1.3,1.1-2.4,2.1-3.4c1.1-1.2,2.5-2,4.1-2.5c0.7-0.2,1-0.2,6.1-0.3
		c3,0,6.1-0.1,6.9-0.1c11.7-0.5,21.8-2.5,30.6-6.3c1.9-0.8,5.9-2.8,7.6-3.8c14.5-8.8,23.9-22.5,28.7-42c2.6-10.4,3.4-19.9,2.4-27.9
		c-1.3-10.4-5.6-18.7-12.9-24.5c-1.2-0.9-3.7-2.6-5.2-3.5c-0.9-0.5-0.9-0.5-0.9-0.8c0.3-1.8,0.7-5.4,0.9-7.8
		c0.2-2.4,0.1-7.9-0.1-9.7c-1.1-9-4-15.8-9.9-22.8c-6.9-8.2-17.4-13.6-32-16.3c-4.3-0.8-8.7-1.3-15.3-1.8
		C206.3,72.1,127.2,72.1,126.2,72.2"/>
</g>
</svg>
