<?xml version="1.0" encoding="iso-8859-1"?>
<!-- Generator: Adobe Illustrator 19.0.0, SVG Export Plug-In . SVG Version: 6.00 Build 0)  -->
<svg version="1.1" id="Capa_1" xmlns="http://www.w3.org/2000/svg" xmlns:xlink="http://www.w3.org/1999/xlink" x="0px" y="0px"
	 viewBox="0 0 480 480" style="enable-background:new 0 0 480 480;" xml:space="preserve">
<g>
	<g>
		<rect x="24" y="152" width="16" height="16"/>
	</g>
</g>
<g>
	<g>
		<rect x="56" y="152" width="16" height="16"/>
	</g>
</g>
<g>
	<g>
		<rect x="88" y="152" width="136" height="16"/>
	</g>
</g>
<g>
	<g>
		<path d="M424,88h-32h-4.688L376,76.688V56c0-4.418-3.578-8-8-8c-14.883,0-27.43,10.215-30.984,24H312
			c-2.125,0-4.156,0.844-5.656,2.344l-16,16c-1.5,1.5-2.344,3.535-2.344,5.656v48c0,2.121,0.844,4.156,2.344,5.656l16,16
			c1.5,1.5,3.531,2.344,5.656,2.344h80h32c4.422,0,8-3.582,8-8V96C432,91.582,428.422,88,424,88z M384,152h-68.688L304,140.688
			V99.313L315.313,88H344c4.422,0,8-3.582,8-8c0-5.91,3.219-11.082,8-13.852V80c0,2.121,0.844,4.156,2.344,5.656l16,16
			c1.5,1.5,3.531,2.344,5.656,2.344V152z M416,152h-16v-48h16V152z"/>
	</g>
</g>
<g>
	<g>
		<rect x="160" y="304" width="80" height="16"/>
	</g>
</g>
<g>
	<g>
		<rect x="160" y="272" width="80" height="16"/>
	</g>
</g>
<g>
	<g>
		<rect x="160" y="240" width="80" height="16"/>
	</g>
</g>
<g>
	<g>
		<path d="M472,256h-88v-18.514c55.171-11.254,96-60.5,96-117.486C480,53.832,426.172,0,360,0c-44.39,0-85.414,25.008-105.974,64H8
			c-4.422,0-8,3.582-8,8v32v272c0,4.418,3.578,8,8,8h20.688L2.344,410.344c-3.125,3.125-3.125,8.188,0,11.313l56,56
			C59.906,479.219,61.953,480,64,480s4.094-0.781,5.656-2.344L112,435.313l18.344,18.344c2.289,2.297,5.727,2.977,8.719,1.734
			c2.992-1.238,4.938-4.156,4.938-7.391v-64h160v88c0,4.418,3.578,8,8,8h160c4.422,0,8-3.582,8-8V264
			C480,259.582,476.422,256,472,256z M256.078,118.688c0.07-12.234,2.367-24.281,6.836-35.832c0.953-2.5,1.984-4.934,3.203-7.434
			C283.203,39.324,320.055,16,360,16c57.344,0,104,46.652,104,104c0,51.43-38.32,95.691-89.102,102.953
			c-24.156,3.348-47.859-1.508-67.906-13.5c-0.846-0.502-1.775-0.777-2.722-0.945c-0.235-0.042-0.458-0.074-0.696-0.094
			c-0.232-0.021-0.458-0.093-0.691-0.093c-0.734,0-1.477,0.102-2.203,0.309l-41.047,11.738l0.625-2.172
			c0.001-0.005-0.001-0.011,0-0.016l11.117-38.859c0.602-2.117,0.305-4.387-0.813-6.281c-1.748-2.946-3.343-5.958-4.785-9.032
			c-0.054-0.116-0.092-0.238-0.146-0.354c-4.233-9.115-7.127-18.758-8.598-28.794c-0.683-4.964-1.034-9.941-1.034-15.116
			C256.047,119.391,256.078,119.039,256.078,118.688z M242.344,237.656c0.68,0.68,1.481,1.161,2.323,1.549
			c0.22,0.102,0.433,0.186,0.66,0.267c0.805,0.287,1.636,0.473,2.495,0.493c0.061,0.001,0.117,0.035,0.178,0.035
			c0.017,0,0.035-0.007,0.052-0.007c0.715-0.004,1.436-0.1,2.144-0.297l5.805-1.656V336H144V224h97.961l-1.656,5.805
			C239.508,232.598,240.289,235.602,242.344,237.656z M16,80h230.906c-0.463,1.296-0.807,2.618-1.223,3.924
			c-0.457,1.431-0.939,2.854-1.339,4.296c-0.521,1.882-0.937,3.784-1.363,5.685c-0.31,1.384-0.666,2.76-0.925,4.153
			c-0.395,2.125-0.662,4.27-0.937,6.414c-0.152,1.185-0.368,2.359-0.483,3.549c-0.324,3.343-0.519,6.703-0.551,10.077
			C240.016,118.73,240,119.324,240,120c0,2.645,0.086,5.316,0.266,8H164l-21.602-28.801C140.891,97.184,138.516,96,136,96H16V80z
			 M16,112h116l12,16H16V112z M16,144h144h82.398c0.158,0.771,0.387,1.52,0.56,2.286c0.27,1.195,0.568,2.378,0.874,3.563
			c0.549,2.128,1.158,4.235,1.821,6.326c0.373,1.175,0.742,2.35,1.151,3.512c0.769,2.184,1.625,4.334,2.521,6.472
			c0.411,0.98,0.784,1.974,1.221,2.945c1.217,2.701,2.542,5.358,3.962,7.977L16,176.034V144z M128,376v52.688l-10.344-10.344
			c-3.125-3.125-8.188-3.125-11.313,0L64,460.688L19.313,416l34.344-34.344l8-8c3.125-3.125,3.125-8.188,0-11.313L51.313,352H128
			V376z M136,208c-4.422,0-8,3.582-8,8v120H32c-3.234,0-6.156,1.949-7.391,4.938c-1.242,2.992-0.555,6.43,1.734,8.719L44.688,368H16
			V192.034l234.806,1.03L246.537,208H136z M144,368v-16h120c4.422,0,8-3.582,8-8V233.465l29.82-8.52
			c2.659,1.483,5.375,2.844,8.128,4.115c0.953,0.44,1.932,0.813,2.896,1.228c1.825,0.784,3.652,1.558,5.513,2.248
			c1.156,0.429,2.331,0.803,3.5,1.195c1.713,0.575,3.43,1.135,5.17,1.632c1.243,0.355,2.495,0.67,3.75,0.985
			c1.715,0.43,3.438,0.827,5.174,1.181c1.275,0.259,2.552,0.5,3.837,0.718c1.773,0.301,3.556,0.549,5.348,0.77
			c1.261,0.155,2.519,0.314,3.787,0.43c1.904,0.174,3.821,0.273,5.742,0.357c1.168,0.05,2.33,0.128,3.503,0.146
			c2.279,0.033,4.571-0.033,6.867-0.127c0.823-0.034,1.64-0.023,2.465-0.073c0.167-0.01,0.333-0.004,0.5-0.015v148.953
			l-18.344-18.344c-1.5-1.5-3.531-2.344-5.656-2.344H144z M464,464H320v-80h20.688l29.656,29.656
			c1.531,1.531,3.578,2.344,5.656,2.344c1.031,0,2.07-0.199,3.063-0.609c2.992-1.238,4.938-4.156,4.938-7.391V272h80V464z"/>
	</g>
</g>
<g>
	<g>
		<rect x="384" y="432" width="16" height="16"/>
	</g>
</g>
<g>
	<g>
		<path d="M432,384v48h-16v16h24c4.422,0,8-3.582,8-8v-56H432z"/>
	</g>
</g>
<g>
</g>
<g>
</g>
<g>
</g>
<g>
</g>
<g>
</g>
<g>
</g>
<g>
</g>
<g>
</g>
<g>
</g>
<g>
</g>
<g>
</g>
<g>
</g>
<g>
</g>
<g>
</g>
<g>
</g>
</svg>
