<?xml version="1.0" encoding="utf-8"?>
<!-- Generator: Adobe Illustrator 21.1.0, SVG Export Plug-In . SVG Version: 6.00 Build 0)  -->
<svg version="1.1" id="Layer_1" xmlns="http://www.w3.org/2000/svg" xmlns:xlink="http://www.w3.org/1999/xlink" x="0px" y="0px"
	 viewBox="0 0 800 800" style="enable-background:new 0 0 800 800;" xml:space="preserve">
<style type="text/css">
	.st0{fill:#FFFFFF;}
	.st1{fill:#8ED6FB;}
	.st2{fill:#1C78C0;}
</style>
<g>
	<polygon class="st0" points="400,14 741.1,207 741.1,593 400,786 58.9,593 58.9,207 	"/>
	<path class="st1" d="M680.2,579.6L411.3,731.9V613.5l167.6-92.3L680.2,579.6z M698.7,563V244.8l-98.4,56.8v204.7L698.7,563z
		 M118.7,579.6l268.9,152.2V613.4L220,521.2L118.7,579.6L118.7,579.6z M100.3,563V244.8l98.4,56.8v204.7L100.3,563L100.3,563z
		 M111.8,224.2l275.9-156v114.6L210.9,280l-1.4,0.8L111.8,224.2L111.8,224.2z M687.1,224.2l-275.7-156v114.6l176.6,97.3l1.4,0.8
		L687.1,224.2L687.1,224.2z"/>
	<path class="st2" d="M387.6,586.5l-165.3-91V315.4l165.3,95.4V586.5L387.6,586.5z M411.3,586.5l165.3-90.9V315.4l-165.3,95.4V586.5
		z M233.4,294.5l166.1-91.3l165.9,91.3l-165.9,95.8L233.4,294.5L233.4,294.5z"/>
</g>
</svg>
