<?xml version="1.0" encoding="utf-8"?>
<!-- Generator: Adobe Illustrator 21.1.0, SVG Export Plug-In . SVG Version: 6.00 Build 0)  -->
<svg version="1.1" id="Layer_1" xmlns="http://www.w3.org/2000/svg" xmlns:xlink="http://www.w3.org/1999/xlink" x="0px" y="0px"
	 viewBox="0 0 800 800" style="enable-background:new 0 0 800 800;" xml:space="preserve">
<style type="text/css">
	.st0{fill:#8D6748;}
	.st1{fill:#FFFFFF;}
</style>
<g>
	<path class="st0" d="M722.8,610.7L420.6,785.3c-13,7.6-29,7.6-42,0L76.4,610.7c-13-7.6-21-21.4-21-36.1V225.4
		c0-15.1,8-28.5,21-36.1L378.6,14.7c13-7.6,29-7.6,42,0l302.2,174.6c13,7.6,21,21.4,21,36.1v349.2
		C743.3,589.3,735.4,603.2,722.8,610.7L722.8,610.7z"/>
	<path class="st1" d="M399.1,62.1c-6.3,0-12.6,1.7-18,5L120,217.8c-11.3,6.3-18,18.5-18,31.1v301.4c0,13,6.7,24.8,18,31.1L381.1,732
		c5.5,3.4,11.8,5,18,5c6.3,0,12.6-1.7,18-5l261.1-150.7c11.3-6.3,18-18.5,18-31.1V248.9c0-13-6.7-24.8-18-31.1L417.2,67.1
		C411.7,63.8,405.4,62.1,399.1,62.1L399.1,62.1z M399.1,74.7L399.1,74.7c4.2,0,8,1.3,11.8,3.4L672,228.7
		c7.1,4.2,11.8,12.2,11.8,20.6v301.4c0,8.4-4.6,16.4-11.8,20.6L410.9,722c-3.8,2.1-7.6,3.4-11.8,3.4c-4.2,0-8.4-1.3-11.8-3.4
		L126.3,571.3c-7.1-4.2-11.8-12.2-11.8-20.6V249.3c0-8.4,4.6-16.4,11.8-20.6L387.4,78C391.2,75.9,395.4,74.7,399.1,74.7L399.1,74.7z
		 M375,337.5h35.3c1.3,0,2.1-0.4,2.9-1.3c21-23.5,23.1-72.6,23.1-87.3c0-2.1-1.7-4.2-4.2-4.2h-39.5h-39.5c-2.1,0-4.2,1.7-4.2,4.2
		c0,14.3,2.1,63.4,23.1,87.3C372.9,337,373.8,337.5,375,337.5z M365.4,257.7h27.7h27.7c2.1,0,4.2,1.7,4.2,4.2
		c0,11.8-2.1,44.9-16.4,62.1c-1.3,0.8-2.1,1.3-3.4,1.3h-24.8c-1.3,0-2.1-0.4-2.9-1.3c-14.3-16.8-16-50.4-16.4-62.1
		C361.2,259.8,362.8,257.7,365.4,257.7z M400.6,236.3c0,0,15.1-8.8,5.9-24.8c-5.5-8.4-8-15.5-5.9-18.5c-5.5,6.7-14.7,13.9-4.6,29
		C399.4,225.8,401,233.8,400.6,236.3z M383.8,237.6c0,0,10.1-5.9,3.8-16.8c-3.8-5.5-5.5-10.5-3.8-12.2c-3.8,4.6-9.7,9.2-2.9,19.7
		C383,230.4,383.8,235.9,383.8,237.6z M382.6,320.2h21c0.8,0,1.7-0.4,2.5-1.3c7.1-8.4,10.5-21.4,12.2-32.7c0,0-0.4,3.8-10.5,7.6
		c-13.9,5-38.2,1.7-38.2,1.7c2.1,8.8,5.5,17.2,10.5,23.5C380.5,319.8,381.7,320.2,382.6,320.2z M224.7,438.2v-83.9h-15.5l-25.6,39.5
		L158,354.2h-15.5v84.4h14.7v-60l26,39h0.4l26.4-39.5v60H224.7z M318.8,355.9c-5.5-2.1-11.3-3.4-17.6-3.4c-6.3,0-12.2,0.8-17.6,3.4
		c-5.5,2.1-10.1,5.5-13.9,9.2c-4.2,4.2-7.1,8.8-9.2,13.9c-2.1,5.5-3.4,10.9-3.4,16.8v0.4c0,5.9,1.3,11.8,3.4,16.8
		c2.1,5.5,5,10.1,8.8,13.9s8.4,7.1,13.9,9.2c5.5,2.1,11.3,3.4,17.6,3.4c6.3,0,12.2-0.8,17.6-3.4c5.5-2.1,10.1-5.5,13.9-9.2
		c4.2-4.2,7.1-8.8,9.2-13.9c2.1-5.5,3.4-10.9,3.4-16.8v-0.4c0-5.9-1.3-11.8-3.4-16.8c-2.1-5.5-5-10.1-8.8-13.9
		S324.2,358,318.8,355.9z M328.8,396.6c0,3.8-0.8,7.6-2.1,11.3c-1.7,3.4-3.4,6.7-5.9,9.2c-2.5,2.5-5.5,4.6-8.8,6.3
		c-3.4,1.7-7.1,2.5-11.3,2.5c-3.8,0-8-0.8-11.3-2.5c-3.4-1.7-6.3-3.8-8.8-6.3c-2.5-2.9-4.6-5.9-5.9-9.7c-1.3-3.8-2.1-7.6-2.1-11.8
		v-0.4c0-3.8,0.8-7.6,2.1-11.3c1.7-3.4,3.4-6.7,5.9-9.2c2.5-2.5,5.5-4.6,8.8-6.3c3.4-1.7,7.1-2.5,11.3-2.5s8,0.8,11.3,2.5
		c3.4,1.7,6.3,3.8,8.8,6.3c2.5,2.9,4.6,5.9,5.9,9.7c1.3,3.8,2.1,7.6,2.1,11.8V396.6z M391,384c1.7-3.4,3.4-6.7,5.9-9.2
		c2.5-2.5,5.5-4.6,8.8-6.3c3.4-1.7,6.7-2.5,10.9-2.5c5,0,9.2,0.8,13,2.9c3.8,2.1,7.1,4.6,10.5,7.6l9.7-10.9
		c-2.1-2.1-4.2-3.8-6.3-5.5c-2.1-1.7-4.6-2.9-7.1-4.2c-2.9-0.8-5.5-1.7-8.8-2.5c-3.4-0.4-6.7-0.8-10.5-0.8c-6.7,0-12.2,1.3-17.6,3.4
		c-5.5,2.1-10.1,5.5-13.9,9.2c-3.8,4.2-6.7,8.8-8.8,13.9c-2.1,5-3.4,10.9-3.4,16.8v0.4c0,5.9,1.3,11.3,3.4,16.8
		c2.1,5.5,5,10.1,8.8,13.9c3.8,3.8,8.4,7.1,13.4,9.2c5,2.1,10.5,3.4,16.8,3.4c3.8,0,7.6,0,11.3-0.8c2.9-0.4,6.3-1.7,8.8-2.9
		c2.5-1.3,5-2.5,7.6-4.6c2.5-2.1,4.6-3.8,6.7-6.3l-9.7-9.7c-3.8,3.4-7.6,5.9-10.9,8c-3.4,2.1-8,2.9-13,2.9c-3.8,0-7.6-1.3-10.9-2.5
		c-3.4-1.3-6.3-3.8-8.8-6.3c-2.5-2.9-4.6-5.9-5.9-9.7c-1.3-3.8-2.1-7.6-2.1-11.8v-0.4C388.9,391.6,389.7,387.8,391,384z
		 M479.5,354.2v83.9h14.7v-35.3h40.3v35.3h14.7v-83.9h-14.7v34.8h-40.3v-34.8H479.5z M640.7,418l8.4,20.1h15.5l-36.9-84.4h-13.4
		l-36.9,84.4h15.1l8.8-20.1H640.7z M621,371.5l14.3,33.6h-28.5L621,371.5z M132,469.3h535.2v-4.6H132V469.3z M439.7,306.8
		c0,1.7-0.4,2.9-0.4,4.6h227.9v-4.6H439.7z M346,306.8H132v4.6h214.5C346.5,309.8,346,308.5,346,306.8z"/>
</g>
</svg>
