<?xml version="1.0" encoding="utf-8"?>
<!-- Generator: Adobe Illustrator 21.1.0, SVG Export Plug-In . SVG Version: 6.00 Build 0)  -->
<svg version="1.1" id="Layer_1" xmlns="http://www.w3.org/2000/svg" xmlns:xlink="http://www.w3.org/1999/xlink" x="0px" y="0px"
	 viewBox="0 0 800 800" style="enable-background:new 0 0 800 800;" xml:space="preserve">
<style type="text/css">
	.st0{fill:#003B57;}
	.st1{fill:#0F80CC;}
	.st2{fill:url(#SVGID_1_);}
</style>
<g>
	<path class="st0" d="M305.7,397.7c-10.5,0-19,3.1-25.5,9.3c-6.5,6.2-9.8,14.3-9.8,24.3c0,5.2,0.8,9.9,2.4,14.2
		c1.6,4.3,4.1,8.3,7.5,11.9c3.4,3.6,10.2,8.5,20.3,14.8c12.4,7.6,20.5,13.7,24.4,18.5c3.9,4.8,5.8,9.8,5.8,15.1
		c0,7-2.3,12.6-7.1,16.8c-4.8,4.2-11.1,6.3-19,6.3c-8.3,0-15.6-2.9-21.8-8.8c-6.2-5.8-9.4-13.5-9.4-23.2h-3.9v35.1h3.9
		c1.2-3.3,2.8-5,5-5c1,0,3.4,0.7,7.2,2c9.1,3.3,16.6,4.8,22.5,4.8c10.2,0,18.8-3.6,26.1-10.8c7.2-7.2,10.9-16,10.9-26.1
		c0-7.9-2.4-14.9-7.1-21c-4.7-6.1-13.9-13.3-27.6-21.5c-11.8-7.1-19.5-12.9-23-17.4c-3.5-4.5-5.4-9.5-5.4-14.9
		c0-5.9,2.2-10.6,6.4-14.2c4.3-3.5,9.9-5.3,16.9-5.3c7.9,0,14.5,2.3,19.7,7.1c5.2,4.7,8.2,11.3,9.1,19.7h3.9V399h-3.6
		c-0.4,1.6-0.8,2.5-1.2,3c-0.4,0.4-1.1,0.7-2.1,0.7c-1.3,0-3.5-0.5-6.7-1.6C317.8,398.8,311.5,397.7,305.7,397.7L305.7,397.7z
		 M432.2,397.7c-12.8,0-24.4,3-34.8,9c-10.5,6-18.8,14.4-24.9,25c-6.1,10.6-9.2,21.9-9.2,33.9c0,16.2,5.3,30.6,16,43.2
		c10.7,12.6,23.5,20.5,38.3,23.5c3.4,1.8,8.2,6.3,14.6,13.7c7.2,8.3,13.2,14.3,18.2,17.9c5,3.6,10.3,6.2,16,7.9
		c5.7,1.7,11.8,2.6,18.5,2.6c8,0,15.2-1.4,21.6-4.3l-1.4-3.5c-3.7,1.3-7.6,2-11.7,2c-5.6,0-11.3-1.9-17-5.6
		c-5.7-3.7-12.8-10.8-21.2-21.3c-4-5-6.7-8.2-8.3-9.4c16.2-3.2,29.6-11,40-23.6c10.4-12.6,15.6-26.9,15.6-43
		c0-19.1-6.8-35.2-20.3-48.3C468.5,404.2,451.9,397.7,432.2,397.7L432.2,397.7z M511.2,397.7l0.2,4.1c8.5,0,13.3,2.5,14.3,7.5
		c0.4,1.8,0.6,5.1,0.6,9.9l-0.1,91.6c-0.1,6.8-1,11.2-2.9,13.1c-1.9,1.9-5,3.1-9.6,3.5l-0.2,4.1h84.7l2.2-20.8h-3.9
		c-1.1,5.7-3.6,9.7-7.7,12c-4,2.3-11.2,3.5-21.5,3.5h-8c-9.3,0-14.7-3.4-16.1-10.1c-0.3-1.3-0.4-2.8-0.4-4.3l0.3-92.6
		c0-6.8,0.9-11.4,2.6-13.6c1.8-2.2,5.1-3.5,9.8-3.8l-0.2-4.1H511.2L511.2,397.7z M433.6,402.7c14.4,0,26.2,5.7,35.2,17.1
		c9.1,11.4,13.6,27.1,13.6,47c0,18.8-4.6,33.9-13.7,45.2c-9.1,11.3-21.3,17-36.5,17c-14.5,0-26.3-5.8-35.4-17.5
		c-9-11.7-13.5-26.9-13.5-45.5c0-19.2,4.5-34.5,13.6-46C406.1,408.4,418.3,402.7,433.6,402.7L433.6,402.7z M628.4,422.4
		c-2.1,0-3.6,0.7-4.8,2.1c-1.2,1.4-1.6,3.1-1.2,5.2c0.4,2,1.5,3.8,3.3,5.2c1.8,1.5,3.7,2.2,5.8,2.2c2,0,3.5-0.8,4.6-2.2
		c1.1-1.5,1.4-3.2,1-5.2c-0.4-2.1-1.5-3.8-3.2-5.2C632.3,423.1,630.4,422.4,628.4,422.4L628.4,422.4z M684.3,436.4
		c-3.5,13.5-11.1,20.8-22.8,22l0.1,3.9h13.6L675,508c0,7.8,0.3,13,0.8,15.7c1.3,6.3,5.5,9.6,12.4,9.6c10,0,20.6-6.1,31.6-18.3
		l-3.3-2.9c-7.9,8-15,12.1-21.1,12.1c-3.8,0-6.1-2.2-7-6.4c-0.2-1-0.3-2.3-0.3-3.7l0.1-51.8H709l-0.2-6.2h-20.6v-19.7H684.3
		L684.3,436.4z M764.8,453.7c-11.7,0-21.1,5.7-28.5,16.9c-7.3,11.3-9.6,23.7-6.7,37.5c1.7,8,5.1,14.3,10.3,18.7
		c5.2,4.4,11.7,6.6,19.5,6.6c7.3,0,17.4-1.8,21.7-5.6c4.3-3.7,8.2-9.7,11.9-18l-2.9-3.1c-5.8,10.7-17.6,16.1-26.4,16.1
		c-12.2,0-19.6-6.7-22.4-20c-0.4-1.7-0.6-3.5-0.8-5.4c14.5-2.3,25.5-6.4,32.9-12.2c7.4-5.9,14.8-12.1,13.4-18.7
		c-0.8-3.9-2.9-7-6-9.3C777.6,454.9,769.4,453.7,764.8,453.7L764.8,453.7z M637.4,454.1l-25.1,5.8v4.5l8.7-1.1
		c4.2,0,6.7,1.9,7.5,5.7c0.3,1.3,0.4,3.1,0.5,5.3l-0.3,41.1c-0.1,5.7-0.7,9-2,10c-1.3,1-4.7,1.5-10.1,1.5l-0.1,3.9h39.8l-0.1-3.9
		c-5.5,0-9.1-0.4-10.7-1.3c-1.6-0.8-2.7-2.4-3.1-4.8c-0.4-1.7-0.5-4.6-0.5-8.7l0.1-58H637.4L637.4,454.1z M758.4,461.7
		c2.4,0,4.8,0.9,7.1,2.8c2.3,1.8,3.7,3.9,4.2,6.1c2.3,10.9-7.4,18.5-29.2,22.7c-0.6-8,0.8-15.2,4.3-21.7
		C748.4,465.1,752.9,461.7,758.4,461.7L758.4,461.7z"/>
	<path class="st1" d="M249.5,240.9H33.3C18.9,240.9,7,252.7,7,267.2v238.4c0,14.5,11.9,26.3,26.3,26.3h142.4
		C174.1,461.1,198.3,323.6,249.5,240.9L249.5,240.9z"/>
	
		<linearGradient id="SVGID_1_" gradientUnits="userSpaceOnUse" x1="1.8266" y1="799.4779" x2="1.8266" y2="798.0589" gradientTransform="matrix(147.7726 0 0 -156.0311 -141.7706 124996.8906)">
		<stop  offset="0" style="stop-color:#97D9F6"/>
		<stop  offset="0.9202" style="stop-color:#0F80CC"/>
		<stop  offset="1" style="stop-color:#0F80CC"/>
	</linearGradient>
	<path class="st2" d="M241.6,248.5H33.3c-10.3,0-18.7,8.4-18.7,18.7v221c47.2-18.1,118-33.7,166.9-33
		C191.5,403.7,220.4,302.9,241.6,248.5L241.6,248.5z"/>
	<path class="st0" d="M299.9,233.1c-14.8-13.2-32.7-7.9-50.4,7.8c-2.6,2.3-5.2,4.9-7.9,7.7c-30.3,32.1-58.4,91.6-67.1,137
		c3.4,6.9,6.1,15.7,7.8,22.4c0.4,1.7,0.9,3.3,1.2,4.7c0.8,3.3,1.2,5.4,1.2,5.4s-0.3-1-1.4-4.3c-0.2-0.6-0.4-1.3-0.7-2.1
		c-0.1-0.3-0.3-0.7-0.5-1.2c-2-4.6-7.4-14.3-9.8-18.5c-2.1,6.1-3.9,11.7-5.4,16.9c6.9,12.7,11.2,34.4,11.2,34.4s-0.4-1.4-2.1-6.3
		c-1.5-4.4-9.3-17.9-11.1-21c-3.1,11.5-4.4,19.3-3.2,21.2c2.2,3.7,4.2,10,6.1,17c4.1,15.8,7,35,7,35s0.1,1.3,0.2,3.2
		c-0.6,13.3-0.2,27,0.8,39.4c1.4,16.4,3.9,30.6,7.2,38.1l2.2-1.2c-4.8-14.9-6.7-34.4-5.9-56.9c1.3-34.4,9.2-75.9,23.8-119.2
		c24.7-65.3,59-117.7,90.4-142.7c-28.6,25.8-67.3,109.5-78.9,140.5c-13,34.7-22.2,67.2-27.7,98.4c9.6-29.2,40.5-41.8,40.5-41.8
		s15.2-18.7,32.9-45.4c-10.6,2.4-28.1,6.6-33.9,9c-8.6,3.6-10.9,4.8-10.9,4.8s27.9-17,51.9-24.7C300.2,339,336,265.3,299.9,233.1"/>
</g>
</svg>
