<?xml version="1.0" encoding="utf-8"?>
<!-- Generator: Adobe Illustrator 21.1.0, SVG Export Plug-In . SVG Version: 6.00 Build 0)  -->
<svg version="1.1" id="Layer_1" xmlns="http://www.w3.org/2000/svg" xmlns:xlink="http://www.w3.org/1999/xlink" x="0px" y="0px"
	 viewBox="0 0 800 800" style="enable-background:new 0 0 800 800;" xml:space="preserve">
<style type="text/css">
	.st0{fill:#00D0B1;}
</style>
<g id="_x30_chC3F.tif">
	<g>
		<path class="st0" d="M135,540.6c4.5-31.7,9.2-64.3,13.8-96.9c9.4-65.9,18.8-131.7,28.2-197.6c1.5-10.9,3.1-21.7,4.5-32.6
			c0.7-5.3,2.8-9.5,6.7-13.4C249,139.6,309.6,79,370,18.2c5.2-5.2,8-5.9,13.6-0.3c76.4,76.8,153,153.4,229.8,229.8
			c5.4,5.4,4.7,8-0.3,12.9c-44.1,43.7-87.8,87.8-132,131.5c-5.8,5.7-6.7,8.6-0.3,14.9c60.2,59.6,119.9,119.7,180.1,179.4
			c5.9,5.8,6.2,8.3-1.1,13.1C567.7,660.7,475.8,722,383.9,783.5c-5.2,3.5-8.1,3.5-12.8-1.1c-77.1-77.5-154.5-154.7-231.8-232
			C137,547.9,133.5,545.9,135,540.6z"/>
	</g>
</g>
</svg>
