<?xml version="1.0" encoding="utf-8"?>
<!-- Generator: Adobe Illustrator 21.1.0, SVG Export Plug-In . SVG Version: 6.00 Build 0)  -->
<svg version="1.1" id="Layer_1" xmlns="http://www.w3.org/2000/svg" xmlns:xlink="http://www.w3.org/1999/xlink" x="0px" y="0px"
	 viewBox="0 0 1000 1000" style="enable-background:new 0 0 1000 1000;" xml:space="preserve">
<style type="text/css">
	.st0{fill:#E53029;}
	.st1{fill:#FDD900;}
	.st2{fill:#66B44B;}
	.st3{fill:#61AB48;}
	.st4{fill:#FFFFFF;}
	.st5{fill:url(#SVGID_1_);}
	.st6{fill:#F0CE00;}
	.st7{fill:#D92F27;}
</style>
<path class="st0" d="M495.2,9.7c0,0,286.9-12.9,438.9,275.4c-80.3,0-463.3,0-463.3,0s-87.5-2.9-162.1,103.3
	c-21.5,44.5-44.5,90.4-18.6,180.7c-37.3-63.1-198-342.8-198-342.8S205.4,21.2,495.2,9.7z"/>
<path class="st1" d="M919.2,741.7c0,0-132.3,254.9-458,242.3c40.2-69.5,231.7-401.2,231.7-401.2s46.2-74.3-8.4-192
	c-27.8-40.9-56-83.7-147.2-106.5c73.3-0.7,395.9,0,395.9,0S1054.1,485.1,919.2,741.7z"/>
<path class="st2" d="M73.2,743.7c0,0-154.6-242,19.2-517.8c40.1,69.6,231.6,401.3,231.6,401.3s41.2,77.2,170.5,88.8
	c49.3-3.6,100.5-6.7,165.9-74.2c-36,63.8-198,342.8-198,342.8S228,988.9,73.2,743.7z"/>
<path class="st3" d="M461.1,986.4l65.2-271.9c0,0,71.7-5.6,131.7-71.5C620.7,708.6,461.1,986.4,461.1,986.4z"/>
<path class="st4" d="M276.9,501.1C276.9,381.2,374.1,284,494,284C613.9,284,711,381.2,711,501.1C711,621,613.9,718.1,494,718.1
	C374.1,718.1,276.9,621,276.9,501.1z"/>
<linearGradient id="SVGID_1_" gradientUnits="userSpaceOnUse" x1="493.9626" y1="322.8896" x2="493.9626" y2="670.9943">
	<stop  offset="0" style="stop-color:#96C1E9"/>
	<stop  offset="1" style="stop-color:#116CB3"/>
</linearGradient>
<path class="st5" d="M313.2,501.1c0-99.8,80.9-180.7,180.7-180.7c99.8,0,180.7,80.9,180.7,180.7c0,99.8-80.9,180.7-180.7,180.7
	C394.1,681.8,313.2,600.9,313.2,501.1z"/>
<path class="st6" d="M933.2,284.4L664.8,363c0,0-40.5-59.4-127.5-78.7C612.7,284.1,933.2,284.4,933.2,284.4z"/>
<path class="st7" d="M284.8,559.4C247.1,494,92.1,226.3,92.1,226.3l198.8,196.7c0,0-20.4,42-12.7,102L284.8,559.4z"/>
</svg>
