<?xml version="1.0" encoding="utf-8"?>
<!-- Generator: Adobe Illustrator 21.1.0, SVG Export Plug-In . SVG Version: 6.00 Build 0)  -->
<svg version="1.1" id="Layer_1" xmlns="http://www.w3.org/2000/svg" xmlns:xlink="http://www.w3.org/1999/xlink" x="0px" y="0px"
	 viewBox="0 0 800 800" style="enable-background:new 0 0 800 800;" xml:space="preserve">
<style type="text/css">
	.st0{fill:#D34A47;}
	.st1{fill:#FFFFFF;}
</style>
<g>
	<path class="st0" d="M495.4,762.5l7.5-124.7l20.7-35.3c0,0-47,19.2-125.8,19.2c-78.7,0-125.1-18.9-125.1-18.9l23.2,38.5l8.2,121.1
		c0,13,42.8,23.5,95.7,23.5C452.5,786,495.4,775.5,495.4,762.5"/>
	<path class="st0" d="M471.8,180.2l15.7-62.1l87-91.5L551.5,7l-92.1,97.5l-18.2,74.2c-13.2-0.4-27-0.7-41.2-0.7
		c-97,0-175.6,11.1-175.6,24.7c0,13.6,78.6,24.7,175.6,24.7c97,0,175.6-11.1,175.6-24.7C575.6,192.7,533,184,471.8,180.2"/>
	<path class="st1" d="M462.6,214.9c0,0-3.4,0.8-13.4,0.8c-10,0-17.1-0.1-19.9-2.6c-0.8-0.7-1.2-2.1-1.2-3c0-1.8,1.3-2.8,2.9-3.5
		l1.5,2.4c-0.7,0.2-1,0.5-1,0.8c0,1.3,10.2,2.3,18.1,2.2c7.8-0.1,17.3-0.7,17.3-2.1c0-0.4-0.7-0.8-2-1.1l1.5-2.4
		c2,0.6,3.8,1.8,3.8,4C470.1,214,465.6,214.5,462.6,214.9"/>
	<path class="st0" d="M574.3,26.7c2.2-2.5-1.1-9-7.4-14.4c-6.3-5.4-13.2-7.8-15.3-5.3c-2.2,2.5,1.1,9,7.4,14.4
		C565.2,26.9,572.1,29.2,574.3,26.7"/>
	<path class="st0" d="M491.2,457.9c-2.1-19.8,43.4-48.6,31.7-49.5c-25.1,1.4-37.6,29.4-50.2,58.7c-4.6,10.7-20.5,56.6-30.9,50.9
		c-10.4-5.6,13.5-43.3,20.2-65.7c-7.7,5.7-36,27.6-43.3,7.1c-11.7,10-36.8,15.3-33.9-10.8c-6.2,11-20.2,26.5-37,20.1
		c-22.1-8.4,12.8-78.7,21.4-75.1c8.7,3.5-1.7,19.6-4.5,25.8c-6,13.7-12.9,30.9-8.3,34.4c7.9,6,29.5-22.8,30-23.5
		c4-5.3,15.5-40.2,24.8-36.2c9.3,4-23.1,50.1-11,59.2c2.4,1.8,12.4-1.1,18.5-7.7c3.9-4.3,2.6-13.7,15.7-44.9
		c13.1-31.3,24.8-70.2,33.8-67.2c9,3,1.6,22.9-1.6,30.4c-15.1,35-41.3,92.7-29,88.4c12.3-4.4,18.8-4.6,30.9-18.8
		c12.1-14.1,11.5-37.4,19.6-36.9c8.1,0.5,6.7,8,4.8,13.7c7.9-9.1,37.6-28.2,44.7-9.3c8.5,22.4-42.4,54.8-29.7,53.1
		c12.4-1.6,32.4-14.3,41-25.9l23.6-211.8c0,0-23.7,19.6-174.6,19.6c-150.9,0-172.1-19.2-172.1-19.2L245.7,410
		c10.6-30.3,35.9-91.5,75.8-89.4c18.1,0.9,42.3,35.8,21.6,37c-8.8,0.5-9.7-17.4-20.1-20.1c-7.5-1.9-17.9,4.2-24.7,10.8
		c-13.5,13.2-42.4,65.1-38.6,91c4.9,33,45.6-11.5,52.5-24.7c4.8-9.3,8.1-36.9,18.7-34c10.6,2.9-0.9,31.3-8.6,56.5
		c-8.6,28.3-13.2,58.1-24,54.6c-10.8-3.4,6.8-39.9,6.2-46.3c-10.2,9.4-28.9,33.2-52.9,21.4L264,587c0,0,33.1,26.2,132.9,26.2
		S531,587.4,531,587.4l15.5-139.1C533.8,460.7,493.7,482.6,491.2,457.9"/>
</g>
</svg>
