<?xml version="1.0" encoding="utf-8"?>
<!-- Generator: Adobe Illustrator 21.1.0, SVG Export Plug-In . SVG Version: 6.00 Build 0)  -->
<svg version="1.1" id="Layer_1" xmlns="http://www.w3.org/2000/svg" xmlns:xlink="http://www.w3.org/1999/xlink" x="0px" y="0px"
	 viewBox="0 0 800 800" style="enable-background:new 0 0 800 800;" xml:space="preserve">
<style type="text/css">
	.st0{fill:#A1070C;}
	.st1{fill:url(#SVGID_1_);}
</style>
<g>
	<path class="st0" d="M92,577.8l308,177.8l308-177.8V222.2L400,44.4L92,222.2V577.8L92,577.8z M400,789.3L62.8,594.6V205.4L400,10.7
		l337.2,194.7v389.3L400,789.3L400,789.3z"/>
	
		<linearGradient id="SVGID_1_" gradientUnits="userSpaceOnUse" x1="2.6442" y1="799.7087" x2="2.6442" y2="798.2659" gradientTransform="matrix(236.842 0 0 -273.481 -226.263 219070.7344)">
		<stop  offset="0" style="stop-color:#F7F6F3"/>
		<stop  offset="1" style="stop-color:#FEF6D5"/>
	</linearGradient>
	<path class="st1" d="M88.1,219.9L400,39.8l311.9,180.1v360.2L400,760.2L88.1,580.1V219.9"/>
	<path class="st0" d="M543.1,268.2c0,14.1-2.8,28.2-8.4,42.2c-5.6,14-13.1,26.9-22.5,38.8c-9.4,11.9-20.2,22.3-32.5,31.3
		c-12.3,8.9-25,15.4-38.3,19.3l-5.9-9.8c7.8-3.9,15-8.9,21.5-15.1c6.5-6.1,12.1-13.1,16.8-20.8c4.7-7.7,8.2-15.9,10.8-24.6
		c2.5-8.7,3.8-17.5,3.8-26.4c0-10.2-1.5-19.9-4.5-29c-3-9.1-7.4-17.1-13.1-23.9c-5.8-6.8-12.9-12.1-21.4-16.1
		c-8.5-3.9-18.2-5.9-29.2-5.9c-13.4,0-25.7,2.6-36.9,7.8s-21.2,12.2-30.2,21.1c-8.9,8.8-16.7,19-23.3,30.4
		c-6.6,11.4-12.1,23.5-16.5,36c-4.4,12.6-7.7,25.3-9.9,38.1c-2.2,12.8-3.4,24.9-3.4,36.3c0,11.5,1.2,23.5,3.6,35.7
		c2.4,12.3,6,24.4,10.6,36.3s10.4,23.2,17.3,33.8c6.9,10.6,14.8,19.9,23.9,27.9c9,8,19.1,14.4,30.2,19.1c11.1,4.7,23.1,7.1,36.2,7.1
		c8.9,0,17.6-1.2,26.1-3.6c8.5-2.4,16.6-5.7,24.4-9.8c7.8-4.1,15.2-8.9,22.2-14.5c7-5.6,13.5-11.6,19.4-18.2l9.2,8.9
		c-8.2,10.8-17.9,21.2-29.2,31.1c-11.3,10-23.4,18.8-36.4,26.5c-13,7.7-26.7,13.9-40.9,18.4c-14.2,4.6-28.3,6.8-42.3,6.8
		c-13.6,0-26.4-2.4-38.4-7.1c-12-4.7-23-11.2-33.1-19.3c-10.1-8.1-19-17.6-26.9-28.5c-7.9-10.9-14.6-22.5-20.1-34.8
		c-5.5-12.3-9.7-24.9-12.6-38c-2.9-13-4.3-25.8-4.3-38.3c0-18.1,3-36.6,9.1-55.7c6.1-19.1,14.4-37.6,25-55.6
		c10.6-18,23.1-35,37.6-51c14.4-16,30-30,46.6-41.9s34.1-21.4,52.2-28.3c18.2-7,36.3-10.5,54.3-10.5c11.2,0,21.6,1.6,31.3,4.9
		c9.7,3.3,18.1,8,25.1,14.1c7.1,6.1,12.7,13.8,16.8,22.9C541.1,246.1,543.1,256.5,543.1,268.2L543.1,268.2z"/>
</g>
</svg>
