<?xml version="1.0" encoding="iso-8859-1"?>
<!-- Generator: Adobe Illustrator 19.0.0, SVG Export Plug-In . SVG Version: 6.00 Build 0)  -->
<svg version="1.1" id="Capa_1" xmlns="http://www.w3.org/2000/svg" xmlns:xlink="http://www.w3.org/1999/xlink" x="0px" y="0px"
	 viewBox="0 0 512 512" style="enable-background:new 0 0 512 512;" xml:space="preserve">
<g>
	<g>
		<path d="M502,374h-49.5c-5.523,0-10,4.477-10,10s4.477,10,10,10H492v60c0,20.953-17.047,38-38,38s-38-17.047-38-38V10
			c0-5.523-4.477-10-10-10H149.336H10C4.477,0,0,4.477,0,10v444c0,31.981,26.019,58,58,58h396c31.981,0,58-26.019,58-58v-70
			C512,378.477,507.523,374,502,374z M58,492c-20.953,0-38-17.047-38-38V20h129.336H396v434c0,14.527,5.381,27.813,14.238,38H58z"/>
	</g>
</g>
<g>
	<g>
		<path d="M222.07,74.93C220.21,73.07,217.63,72,215,72s-5.21,1.07-7.07,2.93S205,79.37,205,82s1.07,5.21,2.93,7.07
			S212.37,92,215,92s5.21-1.07,7.07-2.93S225,84.63,225,82S223.93,76.79,222.07,74.93z"/>
	</g>
</g>
<g>
	<g>
		<path d="M335.752,72H253.5c-5.523,0-10,4.477-10,10s4.477,10,10,10h72.252v68H90.249V92h80.501c5.523,0,10-4.477,10-10
			s-4.477-10-10-10H80.249c-5.523,0-10,4.477-10,10v88c0,5.523,4.477,10,10,10h255.503c5.523,0,10-4.477,10-10V82
			C345.752,76.477,341.275,72,335.752,72z"/>
	</g>
</g>
<g>
	<g>
		<path d="M128.249,200.058h-48c-5.523,0-10,4.477-10,10v48c0,5.523,4.477,10,10,10h48c5.523,0,10-4.477,10-10v-48
			C138.249,204.535,133.772,200.058,128.249,200.058z M118.249,248.058h-28v-28h28V248.058z"/>
	</g>
</g>
<g>
	<g>
		<path d="M231.752,200.058h-48c-5.523,0-10,4.477-10,10v48c0,5.523,4.477,10,10,10h48c5.523,0,10-4.477,10-10v-48
			C241.752,204.535,237.275,200.058,231.752,200.058z M221.752,248.058h-28v-28h28V248.058z"/>
	</g>
</g>
<g>
	<g>
		<path d="M335.752,200.058h-48c-5.523,0-10,4.477-10,10v48c0,5.523,4.477,10,10,10h48c5.523,0,10-4.477,10-10v-48
			C345.752,204.535,341.275,200.058,335.752,200.058z M325.752,248.058h-28v-28h28V248.058z"/>
	</g>
</g>
<g>
	<g>
		<path d="M128,289.089H80.249c-5.523,0-10,4.477-10,10s4.477,10,10,10H128c5.523,0,10-4.477,10-10S133.523,289.089,128,289.089z"/>
	</g>
</g>
<g>
	<g>
		<path d="M231.876,289.089h-47.751c-5.523,0-10,4.477-10,10s4.477,10,10,10h47.751c5.523,0,10-4.477,10-10
			S237.399,289.089,231.876,289.089z"/>
	</g>
</g>
<g>
	<g>
		<path d="M335.628,289.089h-47.751c-5.523,0-10,4.477-10,10s4.477,10,10,10h47.751c5.523,0,10-4.477,10-10
			S341.151,289.089,335.628,289.089z"/>
	</g>
</g>
<g>
	<g>
		<path d="M128,329.089H80.249c-5.523,0-10,4.477-10,10s4.477,10,10,10H128c5.523,0,10-4.477,10-10S133.523,329.089,128,329.089z"/>
	</g>
</g>
<g>
	<g>
		<path d="M335.752,377.089H80.249c-5.523,0-10,4.477-10,10V448c0,5.523,4.477,10,10,10h255.503c5.523,0,10-4.477,10-10v-60.911
			C345.752,381.566,341.275,377.089,335.752,377.089z M325.752,438H90.249v-40.911h235.503V438z"/>
	</g>
</g>
<g>
	<g>
		<path d="M231.876,329.089h-47.751c-5.523,0-10,4.477-10,10s4.477,10,10,10h47.751c5.523,0,10-4.477,10-10
			S237.399,329.089,231.876,329.089z"/>
	</g>
</g>
<g>
	<g>
		<path d="M335.628,329.089h-47.751c-5.523,0-10,4.477-10,10s4.477,10,10,10h47.751c5.523,0,10-4.477,10-10
			S341.151,329.089,335.628,329.089z"/>
	</g>
</g>
<g>
	<g>
		<path d="M453.07,135.42c-1.86-1.86-4.44-2.93-7.07-2.93s-5.21,1.07-7.07,2.93c-1.86,1.86-2.93,4.44-2.93,7.07
			c0,2.64,1.07,5.22,2.93,7.07c1.86,1.87,4.44,2.94,7.07,2.94s5.21-1.07,7.07-2.94c1.86-1.86,2.93-4.43,2.93-7.07
			C456,139.86,454.93,137.29,453.07,135.42z"/>
	</g>
</g>
<g>
	<g>
		<path d="M481.833,0h-15.667C449.533,0,436,13.533,436,30.167v75.5c0,5.523,4.477,10,10,10s10-4.477,10-10V75h36v195h-36v-90
			c0-5.523-4.477-10-10-10s-10,4.477-10,10v100c0,1.683,0.424,3.338,1.234,4.813l28,51c1.756,3.199,5.116,5.188,8.766,5.188
			c3.65,0,7.009-1.988,8.766-5.188l28-51c0.81-1.475,1.234-3.13,1.234-4.813V30.167C512,13.533,498.467,0,481.833,0z M474,310.221
			L462.898,290h22.204L474,310.221z M492,55h-36V30.167C456,24.561,460.561,20,466.167,20h15.667C487.439,20,492,24.561,492,30.167
			V55z"/>
	</g>
</g>
<g>
</g>
<g>
</g>
<g>
</g>
<g>
</g>
<g>
</g>
<g>
</g>
<g>
</g>
<g>
</g>
<g>
</g>
<g>
</g>
<g>
</g>
<g>
</g>
<g>
</g>
<g>
</g>
<g>
</g>
</svg>
