<?xml version="1.0" encoding="utf-8"?>
<!-- Generator: Adobe Illustrator 21.1.0, SVG Export Plug-In . SVG Version: 6.00 Build 0)  -->
<svg version="1.1" id="Layer_1" xmlns="http://www.w3.org/2000/svg" xmlns:xlink="http://www.w3.org/1999/xlink" x="0px" y="0px"
	 viewBox="0 0 800 800" style="enable-background:new 0 0 800 800;" xml:space="preserve">
<style type="text/css">
	.st0{fill:#EDEDED;}
	.st1{fill:#55CD6C;}
	.st2{fill:#FEFEFE;}
</style>
<path class="st0" d="M21,777l52.1-189C39.2,529.3,21,464.2,21,396.4C21,190.4,190.4,21,397.7,21S777,190.4,777,396.4
	S604.9,777,397.7,777c-65.2,0-127.7-20.9-183.8-52.1L21,777z"/>
<path class="st1" d="M224.3,657.1l11.7,6.5c48.2,30,104.3,48.2,162.9,48.2c170.8,0,312.8-142.1,312.8-315.4S569.8,86.2,397.7,86.2
	S86.2,224.3,86.2,396.4c0,60,16.9,118.6,48.2,168.1l7.8,11.7l-30,109.5L224.3,657.1z"/>
<path class="st2" d="M297.3,221.7l-24.8-1.3c-7.8,0-15.6,2.6-20.9,7.8c-11.7,10.4-31.3,30-36.5,56c-9.1,39.1,5.2,86,39.1,133
	s99.1,122.5,213.8,155.1c36.5,10.4,65.2,3.9,88.6-10.4c18.2-11.7,30-30,33.9-49.5l3.9-18.2c1.3-5.2-1.3-11.7-6.5-14.3L505.9,442
	c-5.2-2.6-11.7-1.3-15.6,3.9l-32.6,41.7c-2.6,2.6-6.5,3.9-10.4,2.6c-22.2-7.8-96.5-39.1-136.9-117.3c-1.3-3.9-1.3-7.8,1.3-10.4
	l31.3-35.2c2.6-3.9,3.9-9.1,2.6-13l-37.8-84.7C306.5,225.6,302.5,221.7,297.3,221.7"/>
</svg>
