<?xml version="1.0" encoding="utf-8"?>
<!-- Generator: Adobe Illustrator 21.1.0, SVG Export Plug-In . SVG Version: 6.00 Build 0)  -->
<svg version="1.1" id="Layer_1" xmlns="http://www.w3.org/2000/svg" xmlns:xlink="http://www.w3.org/1999/xlink" x="0px" y="0px"
	 viewBox="0 0 400 400" style="enable-background:new 0 0 400 400;" xml:space="preserve">
<style type="text/css">
	.st0{fill:#045CB8;}
	.st1{fill:#FFFFFF;}
</style>
<path class="st0" d="M38.4,0h323.2C382.8,0,400,17.2,400,38.4v323.2c0,21.2-17.2,38.4-38.4,38.4H38.4C17.2,400,0,382.8,0,361.6V38.4
	C0,17.2,17.2,0,38.4,0z"/>
<g transform="translate(12.5, 12.5)">
	<path class="st1" d="M183.6,132.4c-11.3,2.3-19.6,6.6-27.6,14.5c-11.7,11.5-16.9,26.9-15.4,46.2c1,12.9,6.2,24.5,14.7,33
		c11.5,11.4,25.2,16.2,44,15.4c8.7-0.4,13-1.2,20.4-4c6.9-2.6,6.9-2.3,1.7-10.3c-2.5-3.9-4.9-7.5-5.2-8.1c-0.5-0.9-1.2-0.8-4.8,0.2
		c-16.9,4.7-33.9-0.5-41.8-13c-3.7-5.8-5.1-11.3-5.1-19.8c0-17.2,8.4-28.9,23.7-32.9c6.7-1.8,18.7-1.1,25.3,1.4
		c0.8,0.3,2.4-1.8,5.8-7.7c2.6-4.5,4.8-8.4,4.8-8.8c0-1.1-9.7-4.8-15.7-6C201.7,131.1,190.1,131.1,183.6,132.4"/>
</g>
</svg>
