<?xml version="1.0" encoding="utf-8"?>
<!-- Generator: Adobe Illustrator 21.1.0, SVG Export Plug-In . SVG Version: 6.00 Build 0)  -->
<svg version="1.1" id="Layer_1" xmlns="http://www.w3.org/2000/svg" xmlns:xlink="http://www.w3.org/1999/xlink" x="0px" y="0px"
	 viewBox="0 0 400 400" style="enable-background:new 0 0 400 400;" xml:space="preserve">
<style type="text/css">
	.st0{fill:#2175FF;}
	.st1{fill:#FFFFFF;}
</style>
<g>
	<path class="st0" d="M32,0h336c17.7,0,32,14.3,32,32v336c0,17.7-14.3,32-32,32H32c-17.7,0-32-14.3-32-32V32C0,14.3,14.3,0,32,0z"/>
	<path class="st1" d="M186.7,186.7V160h26.7v40l-6.7,6.7l6.7,6.7V240h-26.7v-40l6.7-6.7L186.7,186.7z M100,200
		c0-55.2,44.8-100,100-100c55.2,0,100,44.8,100,100c0,55.2-44.8,100-100,100C144.8,300,100,255.2,100,200z M113.3,200
		c0,47.9,38.8,86.7,86.7,86.7c47.9,0,86.7-38.8,86.7-86.7c0-47.9-38.8-86.7-86.7-86.7C152.1,113.3,113.3,152.1,113.3,200z
		 M126.7,200c0-40.5,32.8-73.3,73.3-73.3c40.5,0,73.3,32.8,73.3,73.3c0,40.5-32.8,73.3-73.3,73.3C159.5,273.3,126.7,240.5,126.7,200
		z M140,200c0,33.1,26.9,60,60,60c33.1,0,60-26.9,60-60c0-33.1-26.9-60-60-60C166.9,140,140,166.9,140,200z"/>
</g>
</svg>
