<?xml version="1.0" encoding="utf-8"?>
<!-- Generator: Adobe Illustrator 21.1.0, SVG Export Plug-In . SVG Version: 6.00 Build 0)  -->
<svg version="1.1" id="Layer_1" xmlns="http://www.w3.org/2000/svg" xmlns:xlink="http://www.w3.org/1999/xlink" x="0px" y="0px"
	 viewBox="0 0 400 400" style="enable-background:new 0 0 400 400;" xml:space="preserve">
<style type="text/css">
	.st0{fill:#359AD5;}
	.st1{fill:#FFFFFF;}
</style>
<g>
	<path class="st0" d="M32,0h336c17.7,0,32,14.3,32,32v336c0,17.7-14.3,32-32,32H32c-17.7,0-32-14.3-32-32V32C0,14.3,14.3,0,32,0z"/>
	<path class="st1" d="M201.3,151.1c0,9.2,6.2,12.2,20.7,18.8l8.8,3.9c20.7,9.2,49.2,24,49.2,67.6c0,69.8-52.3,78.5-89.7,78.5
		c-24.2,0-49.7-5.7-66.8-10.9v-59.8c14.9,3.9,40.9,10,52.3,10c12.7,0,22.4-1.7,22.4-13.1c0-8.7-6.2-12.7-19.8-18.8l-10.6-4.8
		c-19.8-9.2-47.9-24.9-47.9-67.2c0-62,48.8-75.5,89.7-75.5c30.8,0,51,7,61.5,10.9v58c-12.3-3.9-37.4-9.2-52.3-9.2
		C208.8,139.8,201.3,142.4,201.3,151.1L201.3,151.1z"/>
</g>
</svg>
