<?xml version="1.0" encoding="utf-8"?>
<!-- Generator: Adobe Illustrator 21.1.0, SVG Export Plug-In . SVG Version: 6.00 Build 0)  -->
<svg version="1.1" id="Layer_1" xmlns="http://www.w3.org/2000/svg" xmlns:xlink="http://www.w3.org/1999/xlink" x="0px" y="0px"
	 viewBox="0 0 400 400" style="enable-background:new 0 0 400 400;" xml:space="preserve">
<style type="text/css">
	.st0{fill:#2440FF;}
	.st1{fill:#FFFFFF;}
</style>
<g>
	<path class="st0" d="M32,0h336c17.7,0,32,14.3,32,32v336c0,17.7-14.3,32-32,32H32c-17.7,0-32-14.3-32-32V32C0,14.3,14.3,0,32,0z"/>
	<g transform="translate(16 12)">
		<rect x="112" y="260" class="st1" width="144" height="32"/>
		<path class="st1" d="M184.5,228c-42.6,0-72.5-33.3-72.5-72.1S141.5,84,184.1,84c42.8,0,71.9,33.5,71.9,72.1
			C256,194.3,227.2,228,184.5,228z M184.3,196c23.8,0,39.7-18.7,39.7-39.9c0-21.4-16.2-40.1-39.9-40.1c-23.6,0-40.1,18.4-40.1,39.9
			S160.6,196,184.3,196z"/>
	</g>
</g>
</svg>
