<?xml version="1.0" encoding="utf-8"?>
<!-- Generator: Adobe Illustrator 21.1.0, SVG Export Plug-In . SVG Version: 6.00 Build 0)  -->
<svg version="1.1" id="Layer_1" xmlns="http://www.w3.org/2000/svg" xmlns:xlink="http://www.w3.org/1999/xlink" x="0px" y="0px"
	 viewBox="0 0 800 800" style="enable-background:new 0 0 800 800;" xml:space="preserve">
<style type="text/css">
	.st0{fill:#FEFEFE;}
	.st1{fill:#E94335;}
	.st2{fill:#34A753;}
	.st3{fill:#4284F3;}
	.st4{fill:#FABB05;}
</style>
<g id="ZWlAxL.tif">
	<g>
		<path class="st0" d="M21.1,401.5c0-128.6,0-257.2-0.1-385.8c0-3.2,0.7-3.9,3.9-3.9c251,0.1,502.1,0.1,753.1,0
			c3.2,0,3.9,0.7,3.9,3.9c-0.1,257.2-0.1,514.5,0,771.7c0,3.2-0.7,3.9-3.9,3.9c-251-0.1-502.1-0.1-753.1,0c-3.2,0-3.9-0.7-3.9-3.9
			C21.1,658.7,21.1,530.1,21.1,401.5z"/>
		<path class="st1" d="M63.3,229.3c4.1-10.4,9.8-19.9,15.6-29.4C134.7,110,213.5,50.9,316.1,25C394.3,5.2,471.7,9.7,547.3,38.3
			c42.8,16.2,81.4,39.7,116.2,69.4c2.4,2.1,2.1,3.1,0,5.1c-35.9,35.8-71.8,71.7-107.5,107.6c-2.1,2.1-3.4,1.9-5.5,0.2
			c-84.7-67.5-204.6-63.9-286,3.8c-32.4,26.9-55.4,60.4-69.7,100c-0.5,1.3-1,2.6-1.5,3.9c-2.1,0.4-3.4-1-4.8-2.1
			c-27.7-21.1-55.2-42.3-82.9-63.4c-13.1-10-26.3-19.9-39.2-30.1C65.1,231.7,63.5,231.1,63.3,229.3z"/>
		<path class="st2" d="M193.1,472.4c8,22.7,18.3,44.2,32.9,63.4c42.4,56.2,98.7,87.6,169,93c36.3,2.7,71.9-2,106.3-14.4
			c13.5-4.9,26.2-11.5,38.7-18.7c1.7,0,2.8,1.1,4,2.1c27.2,21.2,54.5,42.2,81.7,63.3c11.6,8.9,23.1,17.9,34.7,26.9
			c1.2,0.9,2.8,1.5,2.6,3.5c-13.9,13.4-29.2,25.2-45.3,35.8c-47.4,31.1-99.3,50.3-155.5,57.2c-114.7,13.9-216.7-16-305.1-90.6
			c-38.4-32.5-68.6-71.7-91.4-116.6c-0.9-1.7-1.6-3.6-2.4-5.4c0.7-2.6,3-3.6,4.8-5c27.1-20.6,54.1-41.3,81-62.1
			c12.7-9.8,25.6-19.3,38.2-29.2C189,474.2,190.5,472.3,193.1,472.4z"/>
		<path class="st3" d="M663,691.5c-14.2-11-28.4-22.1-42.6-33.1c-26.8-20.9-53.6-41.8-80.5-62.6c7.9-6,16.2-11.6,23.7-18.3
			c28.3-25.6,45.7-57.4,54.1-94.4c0.7-3.1-0.9-3.1-3.1-3.1c-13.7,0-27.3,0-41,0c-52.7,0-105.3,0-158,0.1c-3.7,0-4.9-0.8-4.9-4.8
			c0.2-46.9,0.2-93.8,0-140.7c0-4.1,1.3-4.8,5-4.8c116.9,0.1,233.8,0.1,350.7,0c4.4,0,6,1.4,6.9,5.5c7.3,32.9,8.6,66.1,6.3,99.5
			c-3.8,55.8-17.1,109-42.5,159c-18.1,35.7-41.8,67.4-70.8,95.1C665.2,689.8,664.1,690.6,663,691.5z"/>
		<path class="st4" d="M193.1,472.4c-41.9,32.1-83.9,64.2-125.8,96.4c-1.3,1-2.7,2-4,3.1c-7.1-12.8-12.4-26.4-17.3-40.2
			c-17.3-48.7-24.6-99-22-150.6c2.6-51.9,14.8-101.4,37.3-148.3c0.6-1.2,0.9-2.7,2.1-3.5c29.9,22.8,59.7,45.7,89.6,68.5
			c13.4,10.2,26.8,20.3,40.3,30.4c-4.5,15.1-8.1,30.4-9.9,46.2c-3.6,32.5-0.6,64.4,9.1,95.6C192.7,470.8,192.9,471.6,193.1,472.4z"
			/>
	</g>
</g>
</svg>
