<?xml version="1.0" encoding="utf-8"?>
<!-- Generator: Adobe Illustrator 21.1.0, SVG Export Plug-In . SVG Version: 6.00 Build 0)  -->
<svg version="1.1" id="Layer_1" xmlns="http://www.w3.org/2000/svg" xmlns:xlink="http://www.w3.org/1999/xlink" x="0px" y="0px"
	 viewBox="0 0 400 400" style="enable-background:new 0 0 400 400;" xml:space="preserve">
<style type="text/css">
	.st0{fill:#F0EFEB;}
	.st1{fill:#BAD000;}
	.st2{fill:#AEB702;}
</style>
<circle class="st0" cx="195.9" cy="200" r="191.9"/>
<path class="st1" d="M373.3,160c0,2.8-1.8,4.5-4.6,4.5c-3.6,0-7.3,0-11,0c0,0,0.3,30.4-0.1,45.6c-0.5,18.4-10.3,30.9-27.9,35.7
	c-15,4.1-30.1,4.1-44.9-0.9c-15-5.1-23.3-15.9-25-31.7c-0.2-2.3-0.3-4.5-0.3-6.8c0-18.1,0-36.2,0-54.3c0-8.2,2.4-10.7,10.6-11.1
	c4.4-0.2,8.8-0.4,13.2,0.4c4.1,0.8,6.1,3.1,6.5,7.2c0.1,1.6,0.2,3.1,0.2,4.7c0,18.2,0,36.3,0,54.5c0,5.1,1.4,9.5,6.3,12.1
	c2.4,1.3,5,1.8,7.7,2.1c4.2,0.4,8.3,0.4,12.5-0.5c7-1.4,10.6-5.7,10.9-12.8c0-0.5,0-1,0-1.6c0-18.7,0-37.5,0.1-56.2
	c0-1,0.1-2.1,0.3-3.1c0.6-3.6,2.7-5.6,6.2-6.3c2-0.4,4-0.4,6-0.5v0h2.6c0,0,0-2.5,0.1-3.2c0.3-2.5,1.8-4.2,4.3-4.2
	c7.4-0.1,14.7-0.1,22.1,0c2.7,0,4.3,1.9,4.4,4.7C373.3,145.5,373.3,152.7,373.3,160z"/>
<path class="st2" d="M357.8,164.5c-3.4,0-6.7-0.2-10.1,0c-2.9,0.1-5.2-1.8-5.1-5.2c0.1-5.6,0.1-12.7,0-18.3c0,0,0.8,0,1.2,0
	c2.7,0.1,5.3,0,7.9,0.7c3.1,0.8,5,2.7,5.6,5.9c0.6,2.9,0.3,5.9,0.3,8.9C357.7,159.2,357.7,161.8,357.8,164.5
	C357.7,164.5,357.8,164.5,357.8,164.5z"/>
<g>
	<path class="st1" d="M27.4,198.6c0-13,0-26,0-39c0-2.4,0.1-4.9,0.7-7.3c1.6-6.7,6.4-10.9,13.8-11.1c12.1-0.5,24.2-0.9,36.3,0.3
		c7.7,0.8,14.8,3.4,20.1,9.5c3.8,4.4,5.6,9.7,6.4,15.3c1.1,7.5,1,15-1.1,22.4c-2.9,10.3-10,16.3-20.1,18.8c-4.6,1.1-9.3,1.5-14,1.5
		c-8.5,0-17.1,0-25.6,0c-1.6,0-1.9,0.4-1.9,2c0.1,10.1,0,20.2,0,30.3c0,1.5-0.1,2.9-1,4.1c-1.9,2.5-10.4,2.6-12.4,0.1
		c-0.6-0.7-0.9-1.5-0.9-2.4c-0.1-1.3-0.2-2.5-0.2-3.8C27.4,225.7,27.4,212.1,27.4,198.6z M42,177.6c0,5.5,0,10.9,0,16.4
		c0,1.2,0.3,1.5,1.5,1.5c9-0.1,18,0,27,0c2.4,0,4.9-0.2,7.3-0.7c6.8-1.2,11.1-5.1,12.2-11.2c1-5.5,1.1-11,0-16.4
		c-1.3-6.1-4.9-10.1-11.1-11.5c-2.5-0.6-5-0.8-7.6-0.9c-7.6-0.1-15.2,0-22.8,0c-0.9,0-1.7,0.1-2.6,0.3c-2,0.4-3.3,1.7-3.6,3.7
		c-0.2,1.1-0.3,2.2-0.3,3.3C42,167.3,42,172.4,42,177.6z"/>
	<path class="st1" d="M198.5,278.9c-3.8,0.1-5.3-1.1-6.2-4.9c-0.3-1.1-0.5-2.3-0.6-3.4c-0.2-2.5,0.7-3.8,3.2-4.3
		c2.2-0.4,4.5-0.6,6.7-1.1c5.2-1.2,8.8-4.4,11.2-9.1c1.1-2.1,1.9-4.2,2.7-6.4c0.2-0.6,0.8-1.2,0.3-1.7c-0.4-0.4-1.1,0-1.6,0.1
		c-2.8,0.5-5.5,0.5-8.3,0c-5.8-1-9.4-4.7-11.7-9.8c-2.4-5.5-3.7-11.3-5.2-17.1c-4.4-15.9-8.7-31.7-13-47.6c-1.5-5.5-0.2-7.1,5.5-7.1
		c0.5,0,0.9,0,1.4,0c4.1,0.2,6,1.6,7.1,5.6c1.4,5.1,2.8,10.3,4.2,15.4c3.7,13.6,7.4,27.2,11.2,40.9c0.1,0.5,0.3,1,0.5,1.5
		c1.8,5.4,4.2,6.6,10.3,5.8c2.3-0.3,3.6-2,4.4-4c1.4-3.3,2-6.8,2.8-10.2c4-16.4,7.9-32.7,11.8-49.1c1-4.3,2.8-5.7,7.2-5.8
		c1.4,0,2.9-0.1,4.3,0.2c2.4,0.5,3.2,1.6,3.2,4c0,1.5-0.5,2.9-0.8,4.3c-6.1,24.5-12.2,48.9-18.4,73.4c-1.6,6.5-3.9,12.7-7.8,18.3
		c-4.9,7-11.8,10.8-20.2,11.9c-0.9,0.1-1.8,0.2-2.8,0.3C199.4,279,199,278.9,198.5,278.9z"/>
	<path class="st1" d="M170.4,206.6c0,6.1,0.2,12.2,0,18.3c-0.3,11.1-5.8,18.4-16.5,21.4c-10.8,3.1-21.8,3.5-32.6,0.2
		c-11.8-3.6-17-12.7-16.5-24.5c0.3-6.1,2-11.7,6.7-15.8c3.6-3.2,8-4.8,12.6-5.8c4.4-1,8.8-1.3,13.3-1.3c5.7,0,11.4-0.1,17.1,0
		c1.6,0,2-0.5,1.9-2c-0.2-3,0.1-6-0.2-9c-0.5-4.6-2.9-7.7-7.2-9.3c-4.9-1.8-10-1.9-15.1-1.7c-5.2,0.2-10.4,0.7-15.5,1.8
		c-3.7,0.8-5.5-0.6-5.7-4.4c-0.4-6.1,0.6-7.7,6.7-8.7c11-1.9,22.1-2.4,33.1,0.6c7.5,2,13.5,6.1,16.4,13.7c1.2,3.1,1.7,6.4,1.6,9.7
		C170.4,195.3,170.5,201,170.4,206.6C170.4,206.6,170.4,206.6,170.4,206.6z M156.4,217.5c0-1.7-0.1-3.4,0-5c0.1-1.4-0.3-1.8-1.7-1.8
		c-6.1,0.1-12.3,0-18.4,0c-2.4,0-4.7,0.3-7.1,0.7c-6.5,1.3-9.5,4.4-10.2,10.5c-0.7,6.2,2,11.1,7.6,12.7c7.7,2.3,15.5,2,23.1-0.7
		c4-1.4,6-4.6,6.6-8.9C156.4,222.6,156.4,220,156.4,217.5z"/>
	<path class="st1" d="M396,122.2c0,2.6,0,5.2,0,7.8c0,2.3-1.2,3.6-3.5,3.6c-5.3,0-10.7,0-16,0c-2,0-3.3-1.2-3.3-3.2
		c-0.1-5.5-0.1-11,0-16.5c0-2.1,1.3-3.2,3.5-3.3c5.2,0,10.4,0,15.6,0c2.5,0,3.6,1.2,3.6,3.6C396,116.9,396,119.6,396,122.2z"/>
	<path class="st1" d="M357.8,102.8c0-1.7,0-3.5,0-5.2c0-1.7,0.7-2.4,2.5-2.4c3.5,0,7.1,0,10.6,0c1.7,0,2.5,0.7,2.5,2.4
		c0,3.5,0,7.1,0,10.6c0,1.7-0.9,2.6-2.6,2.6c-3.5,0-7,0-10.4,0c-1.7,0-2.5-0.9-2.5-2.6C357.7,106.4,357.7,104.6,357.8,102.8
		C357.7,102.8,357.7,102.8,357.8,102.8z"/>
</g>
</svg>
