<?xml version="1.0" encoding="utf-8"?>
<!-- Generator: Adobe Illustrator 21.1.0, SVG Export Plug-In . SVG Version: 6.00 Build 0)  -->
<svg version="1.1" id="Layer_1" xmlns="http://www.w3.org/2000/svg" xmlns:xlink="http://www.w3.org/1999/xlink" x="0px" y="0px"
	 viewBox="0 0 800 800" style="enable-background:new 0 0 800 800;" xml:space="preserve">
<style type="text/css">
	.st0{fill:#E21836;}
	.st1{fill:#FFFFFF;}
</style>
<g>
	<path class="st0" d="M53.3,0h693.3C776.1,0,800,23.9,800,53.3v693.3c0,29.5-23.9,53.3-53.3,53.3H53.3C23.9,800,0,776.1,0,746.7
		V53.3C0,23.9,23.9,0,53.3,0z"/>
</g>
<g id="CLfSFK.tif">
	<g>
		<path class="st1" d="M657.1,375.8c-0.7,2.1-1.5,4.2-3.7,5.5c-3.6,2-8.1,0.7-9.9-2.9c-1.9-3.9-0.2-8.3,3.9-9.8
			c3.7-1.5,8,0.7,9.2,4.6c0.2,0.5,0.3,1,0.5,1.6C657.1,375,657.1,375.4,657.1,375.8z M644.1,375.1c0,3.2,2.5,5.7,5.7,5.7
			c3.2,0,5.7-2.5,5.7-5.7c0-3.2-2.5-5.6-5.8-5.6C646.5,369.4,644.1,371.9,644.1,375.1z"/>
		<path class="st1" d="M193.2,432.1c-6.4,0-12.9,0-19.3,0c-17.5-0.1-31.7-15.6-30.9-33c0.6-14.3,10.9-27,25.2-29.9
			c2-0.4,4-0.6,6-0.6c12.8-0.1,25.5-0.1,38.3,0c14.9,0.1,27.5,10.7,30.6,25.3c4.1,19.8-10.7,38.2-31,38.4
			C205.8,432.1,199.5,432.1,193.2,432.1z M193.4,379.4c-6,0-11.9-0.1-17.9,0.1c-2.4,0.1-4.9,0.5-7.2,1.4c-9.4,3.5-15,13.3-13.3,22.5
			c2,10.6,10.3,17.7,20.8,17.7c11.7,0,23.3,0,35,0c2,0,4.1-0.3,6-0.9c10.1-2.9,16.3-12.8,14.7-23.3c-1.4-9.8-10.4-17.4-20.5-17.5
			C205.1,379.4,199.3,379.4,193.4,379.4z"/>
		<path class="st1" d="M574.2,405.8c0.6,1.5,1,2.7,1.6,3.8c4,7.6,10.5,11.4,19,11.4c13.8,0.1,27.5,0,41.3,0c0.7,0,1.3,0,2.3,0
			c-2.4,3.7-4.5,7.1-6.8,10.4c-0.2,0.3-0.9,0.5-1.4,0.5c-12.9,0-25.8,0.2-38.7-0.1c-15.9-0.4-29.4-14.6-29.8-30.6
			c-0.4-15.9,10.6-29.3,25.1-32.3c2-0.4,4.1-0.6,6.2-0.7c14.4-0.1,28.7,0,43.1,0c0.3,0,0.6,0,1.2,0.1c-1.6,2.5-3.3,4.6-4.5,7.1
			c-1.5,3.2-3.7,4.1-7.2,4c-10.4-0.3-20.9-0.1-31.3-0.1c-8.9,0-16.8,5.7-19.7,14.2c-0.1,0.2-0.1,0.5-0.2,0.9c19.8,0,39.4,0,59.5,0
			c-1,1.6-1.7,2.8-2.5,4c-1.3,2-2.6,3.9-3.7,5.9c-0.7,1.2-1.5,1.4-2.7,1.3c-16,0-32,0-48.1,0C576.2,405.8,575.4,405.8,574.2,405.8z"
			/>
		<path class="st1" d="M250.4,432c0-21.2,0-42.3,0-63.5c0.7,0,1.3-0.1,1.8-0.1c17,0,34,0,51,0c11.5,0,19.9,7.1,22,18.3
			c1.9,10-5,20.9-14.9,23.7c-2.2,0.6-4.6,0.8-6.9,1c-1.5,0.1-3.1,0-4.8,0.4c7.9,6.6,15.7,13.3,24,20.3c-3.9,0-7.3-0.3-10.6,0.1
			c-5,0.6-8.6-1.2-12.2-4.6c-9.7-8.9-19.7-17.4-29.6-26c-0.3-0.3-0.7-0.5-1-0.8c0-0.1,0.1-0.3,0.1-0.4c0.7,0,1.4-0.1,2.1-0.1
			c10.3,0,20.5,0.1,30.8,0.1c4.6,0,8.2-1.7,10.3-6c3.2-6.7-1.6-14.8-9-14.9c-13.2-0.2-26.4,0-39.6-0.1c-1.7,0-1.5,1-1.5,2
			c0,16,0,32.1,0,48.1c0,0.8,0,1.6,0,2.5C258.4,432,254.5,432,250.4,432z"/>
		<path class="st1" d="M357,409.7c11.1,0,21.7,0,32.7,0c-5.9-9.5-11.6-18.6-17.4-28.1c-1,1.5-1.8,2.7-2.5,3.9
			c-9.5,15.1-19,30.2-28.5,45.3c-0.3,0.5-0.9,1.2-1.4,1.2c-4.4,0.1-8.8,0.1-13.6,0.1c1.9-3,3.7-5.8,5.5-8.6
			c10.9-17.1,21.8-34.2,32.8-51.3c3.1-4.8,9.3-5.9,13.6-2.3c0.7,0.6,1.4,1.4,1.9,2.2c12.6,19.7,25.2,39.5,37.9,59.2
			c0.1,0.2,0.1,0.3,0.3,0.7c-0.5,0.1-0.9,0.1-1.4,0.1c-3.6,0-7.1-0.1-10.7,0c-1.5,0.1-2.3-0.5-3-1.7c-1.4-2.6-3.1-5-4.5-7.6
			c-0.8-1.4-1.7-1.9-3.3-1.9c-9.8,0.1-19.5,0-29.3,0.1c-1.2,0-2-0.3-2.7-1.4C361.3,416.3,359.2,413.2,357,409.7z"/>
		<path class="st1" d="M488,368.5c-2.3,3.6-4.4,6.9-6.6,10.2c-0.3,0.5-1.4,0.7-2.1,0.7c-11.4,0-22.8,0-34.3,0
			c-11.6,0-21.1,9.6-20.9,21.2c0.2,11.2,9.5,20.4,20.9,20.4c13.9,0.1,27.8,0,41.6,0c0.6,0,1.3,0,2.3,0c-2.4,3.7-4.5,7.1-6.7,10.4
			c-0.2,0.3-0.9,0.5-1.4,0.5c-12.9,0-25.8,0.2-38.7-0.1c-14.2-0.3-26.5-11.4-29.3-25.8c-3.3-17,8-33.8,25-37.2
			c2.1-0.4,4.3-0.5,6.4-0.6c14,0,28,0,42,0C486.7,368.4,487.2,368.5,488,368.5z"/>
		<path class="st1" d="M495,368.5c4.1,0,8,0,12.1,0c0,17.5,0,34.9,0,52.6c19.1,0,37.9,0,57.1,0c-1.9,3-3.8,5.5-5.3,8.3
			c-1.2,2.2-2.7,2.8-5.1,2.8c-17.2-0.1-34.4-0.2-51.6,0c-4.5,0-7.4-2.7-7.3-7.3c0.2-18,0.1-36.1,0.1-54.2
			C495,370,495,369.4,495,368.5z"/>
		<path class="st1" d="M647.2,371c1.9,0.1,3.8-0.7,5.1,1c1,1.3,0.2,2.5-0.9,3.6c0.5,0.9,0.9,1.8,1.4,2.8c-1.4,0.8-1.6-0.4-2.1-1.2
			c-0.5-0.6-1-1.2-1.5-1.8c-0.2,0.1-0.4,0.2-0.6,0.3c0,0.7,0.1,1.4,0,2.1c0,0.3-0.4,0.5-0.6,0.7c-0.2-0.3-0.7-0.5-0.7-0.8
			C647.2,375.7,647.2,373.4,647.2,371z M648.6,374.9c1-0.4,1.8-0.6,2.4-1.1c0.2-0.1,0.1-1.1-0.1-1.2c-0.7-0.4-1.4-0.5-2.3-0.7
			C648.6,373,648.6,373.7,648.6,374.9z"/>
	</g>
</g>
<g>
	<path class="st0" d="M955.3,0h693.3c29.5,0,53.3,23.9,53.3,53.3v693.3c0,29.5-23.9,53.3-53.3,53.3H955.3
		c-29.5,0-53.3-23.9-53.3-53.3V53.3C902,23.9,925.9,0,955.3,0z"/>
</g>
<g id="CLfSFK.tif_1_">
	<g>
		<path class="st1" d="M1559.1,375.8c-0.7,2.1-1.5,4.2-3.7,5.5c-3.6,2-8.1,0.7-9.9-2.9c-1.9-3.9-0.2-8.3,3.9-9.8
			c3.7-1.5,8,0.7,9.2,4.6c0.2,0.5,0.3,1,0.5,1.6C1559.1,375,1559.1,375.4,1559.1,375.8z M1546.1,375.1c0,3.2,2.5,5.7,5.7,5.7
			c3.2,0,5.7-2.5,5.7-5.7c0-3.2-2.5-5.6-5.8-5.6C1548.5,369.4,1546.1,371.9,1546.1,375.1z"/>
		<path class="st1" d="M1095.2,432.1c-6.4,0-12.9,0-19.3,0c-17.5-0.1-31.7-15.6-30.9-33c0.6-14.3,10.9-27,25.2-29.9
			c2-0.4,4-0.6,6-0.6c12.8-0.1,25.5-0.1,38.3,0c14.9,0.1,27.5,10.7,30.6,25.3c4.1,19.8-10.7,38.2-31,38.4
			C1107.8,432.1,1101.5,432.1,1095.2,432.1z M1095.4,379.4c-6,0-11.9-0.1-17.9,0.1c-2.4,0.1-4.9,0.5-7.2,1.4
			c-9.4,3.5-15,13.3-13.3,22.5c2,10.6,10.3,17.7,20.8,17.7c11.7,0,23.3,0,35,0c2,0,4.1-0.3,6-0.9c10.1-2.9,16.3-12.8,14.7-23.3
			c-1.4-9.8-10.4-17.4-20.5-17.5C1107.1,379.4,1101.3,379.4,1095.4,379.4z"/>
		<path class="st1" d="M1476.2,405.8c0.6,1.5,1,2.7,1.6,3.8c4,7.6,10.5,11.4,19,11.4c13.8,0.1,27.5,0,41.3,0c0.7,0,1.3,0,2.3,0
			c-2.4,3.7-4.5,7.1-6.8,10.4c-0.2,0.3-0.9,0.5-1.4,0.5c-12.9,0-25.8,0.2-38.7-0.1c-15.9-0.4-29.4-14.6-29.8-30.6
			c-0.4-15.9,10.6-29.3,25.1-32.3c2-0.4,4.1-0.6,6.2-0.7c14.4-0.1,28.7,0,43.1,0c0.3,0,0.6,0,1.2,0.1c-1.6,2.5-3.3,4.6-4.5,7.1
			c-1.5,3.2-3.7,4.1-7.2,4c-10.4-0.3-20.9-0.1-31.3-0.1c-8.9,0-16.8,5.7-19.7,14.2c-0.1,0.2-0.1,0.5-0.2,0.9c19.8,0,39.4,0,59.5,0
			c-1,1.6-1.7,2.8-2.5,4c-1.3,2-2.6,3.9-3.7,5.9c-0.7,1.2-1.5,1.4-2.7,1.3c-16,0-32,0-48.1,0
			C1478.2,405.8,1477.4,405.8,1476.2,405.8z"/>
		<path class="st1" d="M1152.4,432c0-21.2,0-42.3,0-63.5c0.7,0,1.3-0.1,1.8-0.1c17,0,34,0,51,0c11.5,0,19.9,7.1,22,18.3
			c1.9,10-5,20.9-14.9,23.7c-2.2,0.6-4.6,0.8-6.9,1c-1.5,0.1-3.1,0-4.8,0.4c7.9,6.6,15.7,13.3,24,20.3c-3.9,0-7.3-0.3-10.6,0.1
			c-5,0.6-8.6-1.2-12.2-4.6c-9.7-8.9-19.7-17.4-29.6-26c-0.3-0.3-0.7-0.5-1-0.8c0-0.1,0.1-0.3,0.1-0.4c0.7,0,1.4-0.1,2.1-0.1
			c10.3,0,20.5,0.1,30.8,0.1c4.6,0,8.2-1.7,10.3-6c3.2-6.7-1.6-14.8-9-14.9c-13.2-0.2-26.4,0-39.6-0.1c-1.7,0-1.5,1-1.5,2
			c0,16,0,32.1,0,48.1c0,0.8,0,1.6,0,2.5C1160.4,432,1156.5,432,1152.4,432z"/>
		<path class="st1" d="M1259,409.7c11.1,0,21.7,0,32.7,0c-5.9-9.5-11.6-18.6-17.4-28.1c-1,1.5-1.8,2.7-2.5,3.9
			c-9.5,15.1-19,30.2-28.5,45.3c-0.3,0.5-0.9,1.2-1.4,1.2c-4.4,0.1-8.8,0.1-13.6,0.1c1.9-3,3.7-5.8,5.5-8.6
			c10.9-17.1,21.8-34.2,32.8-51.3c3.1-4.8,9.3-5.9,13.6-2.3c0.7,0.6,1.4,1.4,1.9,2.2c12.6,19.7,25.2,39.5,37.9,59.2
			c0.1,0.2,0.1,0.3,0.3,0.7c-0.5,0.1-0.9,0.1-1.4,0.1c-3.6,0-7.1-0.1-10.7,0c-1.5,0.1-2.3-0.5-3-1.7c-1.4-2.6-3.1-5-4.5-7.6
			c-0.8-1.4-1.7-1.9-3.3-1.9c-9.8,0.1-19.5,0-29.3,0.1c-1.2,0-2-0.3-2.7-1.4C1263.3,416.3,1261.2,413.2,1259,409.7z"/>
		<path class="st1" d="M1390,368.5c-2.3,3.6-4.4,6.9-6.6,10.2c-0.3,0.5-1.4,0.7-2.1,0.7c-11.4,0-22.8,0-34.3,0
			c-11.6,0-21.1,9.6-20.9,21.2c0.2,11.2,9.5,20.4,20.9,20.4c13.9,0.1,27.8,0,41.6,0c0.6,0,1.3,0,2.3,0c-2.4,3.7-4.5,7.1-6.7,10.4
			c-0.2,0.3-0.9,0.5-1.4,0.5c-12.9,0-25.8,0.2-38.7-0.1c-14.2-0.3-26.5-11.4-29.3-25.8c-3.3-17,8-33.8,25-37.2
			c2.1-0.4,4.3-0.5,6.4-0.6c14,0,28,0,42,0C1388.7,368.4,1389.2,368.5,1390,368.5z"/>
		<path class="st1" d="M1397,368.5c4.1,0,8,0,12.1,0c0,17.5,0,34.9,0,52.6c19.1,0,37.9,0,57.1,0c-1.9,3-3.8,5.5-5.3,8.3
			c-1.2,2.2-2.7,2.8-5.1,2.8c-17.2-0.1-34.4-0.2-51.6,0c-4.5,0-7.4-2.7-7.3-7.3c0.2-18,0.1-36.1,0.1-54.2
			C1397,370,1397,369.4,1397,368.5z"/>
		<path class="st1" d="M1549.2,371c1.9,0.1,3.8-0.7,5.1,1c1,1.3,0.2,2.5-0.9,3.6c0.5,0.9,0.9,1.8,1.4,2.8c-1.4,0.8-1.6-0.4-2.1-1.2
			c-0.5-0.6-1-1.2-1.5-1.8c-0.2,0.1-0.4,0.2-0.6,0.3c0,0.7,0.1,1.4,0,2.1c0,0.3-0.4,0.5-0.6,0.7c-0.2-0.3-0.7-0.5-0.7-0.8
			C1549.2,375.7,1549.2,373.4,1549.2,371z M1550.6,374.9c1-0.4,1.8-0.6,2.4-1.1c0.2-0.1,0.1-1.1-0.1-1.2c-0.7-0.4-1.4-0.5-2.3-0.7
			C1550.6,373,1550.6,373.7,1550.6,374.9z"/>
	</g>
</g>
</svg>
