<svg viewBox="0 -39 479.99478 479" xmlns="http://www.w3.org/2000/svg"><path d="m239.996094 88.496094c-61.855469 0-112 50.144531-112 112 0 61.855468 50.144531 112 112 112 61.855468 0 112-50.144532 112-112-.066406-61.828125-50.171875-111.933594-112-112zm0 208c-53.019532 0-96-42.980469-96-96 0-53.019532 42.980468-96 96-96 53.019531 0 96 42.980468 96 96-.058594 52.996094-43.003906 95.941406-96 96zm0 0"/><path d="m271.996094 200.496094c0-17.671875-14.328125-32-32-32s-32 14.328125-32 32 14.328125 32 32 32 32-14.328125 32-32zm-48 0c0-8.835938 7.164062-16 16-16 8.835937 0 16 7.164062 16 16 0 8.835937-7.164063 16-16 16-8.835938 0-16-7.164063-16-16zm0 0"/><path d="m396.394531 119c-88.0625-82.207031-224.734375-82.207031-312.796875 0l-81.058594 75.648438c-1.585937 1.480468-2.4999995 3.539062-2.539062 5.710937-.0390625 2.167969.804688 4.257813 2.339844 5.792969l64 64c37.636718 37.484375 86.351562 61.84375 138.921875 69.464844 23.039062 3.285156 46.429687 3.285156 69.46875 0 52.570312-7.621094 101.285156-31.980469 138.921875-69.464844l64-64c1.535156-1.535156 2.378906-3.625 2.339844-5.792969-.039063-2.171875-.953126-4.230469-2.539063-5.710937zm5.945313 139.839844c-89.664063 89.65625-235.023438 89.65625-324.6875 0l-58.144532-58.144532 75-70c81.921876-76.460937 209.054688-76.460937 290.976563 0l75 70zm0 0"/><path d="m39.996094 8.496094v56h16v-48h48v-16h-56c-4.417969 0-8 3.582031-8 8zm0 0"/><path d="m55.996094 336.496094h-16v56c0 4.417968 3.582031 8 8 8h56v-16h-48zm0 0"/><path d="m439.996094 64.496094v-56c0-4.417969-3.582032-8-8-8h-56v16h48v48zm0 0"/><path d="m423.996094 384.496094h-48v16h56c4.417968 0 8-3.582032 8-8v-56h-16zm0 0"/><path d="m239.996094 264.496094c-4.066406.003906-8.125-.382813-12.121094-1.144532l-3.015625 15.710938c4.988281.957031 10.058594 1.4375 15.136719 1.433594h2.527344l-.488282-16zm0 0"/><path d="m274.394531 128.25-6.878906 14.398438c4.285156 2.042968 8.324219 4.554687 12.046875 7.496093l9.90625-12.570312c-4.664062-3.65625-9.71875-6.785157-15.074219-9.324219zm0 0"/><path d="m256.085938 262.457031 4 15.496094c5.742187-1.492187 11.300781-3.621094 16.574218-6.34375l-7.34375-14.210937c-4.210937 2.171874-8.648437 3.867187-13.230468 5.058593zm0 0"/><path d="m192.554688 264.921875c4.777343 3.515625 9.925781 6.492187 15.351562 8.878906l6.402344-14.65625c-4.34375-1.90625-8.460938-4.289062-12.28125-7.105469zm0 0"/><path d="m289.675781 160.144531c2.992188 3.679688 5.570313 7.679688 7.679688 11.925781l14.328125-7.109374c-2.636719-5.3125-5.859375-10.3125-9.597656-14.914063zm0 0"/><path d="m176.066406 203.542969-16 .753906c.277344 5.925781 1.210938 11.800781 2.785156 17.519531l15.425782-4.265625c-1.253906-4.570312-1.996094-9.269531-2.210938-14.007812zm0 0"/><path d="m303.996094 199.488281 16-.265625c-.089844-5.929687-.839844-11.832031-2.230469-17.597656l-15.554687 3.757812c1.109374 4.621094 1.710937 9.351563 1.785156 14.105469zm0 0"/><path d="m298.226562 227.082031 14.5625 6.652344c2.460938-5.398437 4.3125-11.054687 5.527344-16.863281l-15.664062-3.253906c-.96875 4.636718-2.453125 9.152343-4.425782 13.464843zm0 0"/><path d="m281.132812 249.527344 10.289063 12.257812c4.53125-3.804687 8.636719-8.097656 12.230469-12.800781l-12.71875-9.703125c-2.882813 3.761719-6.167969 7.199219-9.800782 10.246094zm0 0"/><path d="m169.46875 238.289062c2.804688 5.21875 6.179688 10.109376 10.054688 14.589844l12.097656-10.480468c-3.109375-3.582032-5.8125-7.503907-8.058594-11.6875zm0 0"/><path d="m257.597656 122.449219c-5.777344-1.300781-11.679687-1.953125-17.601562-1.953125v16c4.75.007812 9.480468.546875 14.113281 1.601562zm0 0"/></svg>