<?xml version="1.0" encoding="utf-8"?>
<!-- Generator: Adobe Illustrator 21.1.0, SVG Export Plug-In . SVG Version: 6.00 Build 0)  -->
<svg version="1.1" id="Layer_1" xmlns="http://www.w3.org/2000/svg" xmlns:xlink="http://www.w3.org/1999/xlink" x="0px" y="0px"
	 viewBox="0 0 800 800" style="enable-background:new 0 0 800 800;" xml:space="preserve">
<style type="text/css">
	.st0{fill:#10253E;}
	.st1{fill:#5EE376;}
</style>
<g>
	<path class="st0" d="M53.3,0h693.3C776.1,0,800,23.9,800,53.3v693.3c0,29.5-23.9,53.3-53.3,53.3H53.3C23.9,800,0,776.1,0,746.7
		V53.3C0,23.9,23.9,0,53.3,0z"/>
	<path class="st1" d="M362.2,417.4l74.1,124.4l-9.7,16.3c-5.6,9.4-15.7,15.2-26.6,15.2c-10.9,0-21-5.8-26.6-15.2L204.5,274.4
		c-5.8-9.7-6-21.9-0.4-31.7c5.5-9.9,15.8-16,27.1-16h286.3l-37.4,63H286.1l38.6,64.8h116.9l-37.4,63H362.2z M513.8,289.7
		L513.8,289.7l37.4-63h17.8c11.2,0,21.6,6.1,27.1,16c5.5,9.9,5.3,22-0.4,31.7l-9.1,15.2l-72.6,0v0H513.8z M496,319.6h72.6
		L453.2,513.4L417,452.6L496,319.6z"/>
</g>
<image style="overflow:visible;" width="265" height="82" xlink:href="../../../../../../../../Documents/Screenshots/Screen Shot 2018-10-04 at 2.55.07 PM.png"  transform="matrix(1 0 0 1 995.8583 196.1012)">
</image>
</svg>
