<?xml version="1.0" encoding="utf-8"?>
<!-- Generator: Adobe Illustrator 21.1.0, SVG Export Plug-In . SVG Version: 6.00 Build 0)  -->
<svg version="1.1" id="Layer_1" xmlns="http://www.w3.org/2000/svg" xmlns:xlink="http://www.w3.org/1999/xlink" x="0px" y="0px"
	 viewBox="0 0 1000 1000" style="enable-background:new 0 0 1000 1000;" xml:space="preserve">
<style type="text/css">
	.st0{fill-rule:evenodd;clip-rule:evenodd;fill:#FFFFFF;}
	.st1{fill-rule:evenodd;clip-rule:evenodd;fill:#006189;}
	.st2{fill-rule:evenodd;clip-rule:evenodd;fill:#E38F00;}
</style>
<g>
	<polygon class="st0" points="10,10 989,10 989,989 10,989 10,10 	"/>
	<path class="st1" d="M53.2,661.2h29.5V544.5l46,101.7c5.2,12.2,12.7,16.8,27.2,16.8c14.5,0,21.5-4.5,27-16.8l45.8-101.7v116.7h29.7
		V544.5c0-11.3-4.5-16.8-14.1-19.7c-22.4-6.8-37.4-0.9-44.2,14.3l-45.1,100.6l-43.5-100.6c-6.6-15.2-21.8-21.1-44.4-14.3
		c-9.3,2.9-13.8,8.4-13.8,19.7V661.2L53.2,661.2z"/>
	<path class="st1" d="M282.7,566.3h29.7v64.1c-0.2,3.6,1.1,11.8,17.2,12c8.4,0.2,63.9,0,64.4,0v-76.6h29.7c0,0,0,104.5,0,104.9
		c0,25.8-32,31.5-46.9,31.7h-93.4v-19.7c0.2,0,93.4,0,93.6,0c19-2,16.8-11.6,16.8-14.7v-7.7H331c-29.2-0.2-48-13.1-48.3-27.9
		C282.7,631.1,283.4,566.7,282.7,566.3L282.7,566.3z"/>
	<path class="st1" d="M919.5,491.9c-18.1-0.5-32.2,1.4-44,6.3c-3.4,1.4-8.8,1.4-9.3,5.7c1.8,1.8,2,4.8,3.6,7.3
		c2.7,4.5,7.5,10.7,11.8,13.8c4.8,3.6,9.5,7.3,14.5,10.4c8.8,5.4,18.8,8.6,27.4,14.1c5,3.2,10,7.3,15,10.7c2.5,1.8,4.1,4.8,7.3,5.9
		c0-0.2,0-0.5,0-0.7c-1.6-2-2-5-3.6-7.3c-2.3-2.3-4.5-4.3-6.8-6.6c-6.6-8.8-14.7-16.5-23.6-22.9c-7.3-5-23.1-11.8-26.1-20.2
		c0,0-0.2-0.2-0.5-0.5c5-0.5,10.9-2.3,15.6-3.6c7.7-2,14.7-1.6,22.7-3.6c3.6-0.9,7.3-2,10.9-3.2c0-0.7,0-1.4,0-2
		c-4.1-4.1-7-9.5-11.3-13.4c-11.6-10-24.2-19.7-37.4-27.9c-7-4.5-16.1-7.5-23.6-11.3c-2.7-1.4-7.3-2-8.8-4.3
		c-4.1-5-6.3-11.6-9.3-17.4c-6.6-12.5-12.9-26.3-18.6-39.4c-4.1-8.8-6.6-17.7-11.6-25.8c-23.3-38.5-48.7-61.9-87.7-84.8
		c-8.4-4.8-18.4-6.8-29-9.3c-5.7-0.2-11.3-0.7-17-0.9c-3.6-1.6-7.3-5.9-10.4-7.9c-12.9-8.2-46.2-25.8-55.7-2.5
		c-6.1,14.7,9.1,29.2,14.3,36.7c3.9,5.2,8.8,11.1,11.6,17c1.6,3.9,2,7.9,3.6,12c3.6,10,7,21.1,11.8,30.4c2.5,4.8,5.2,9.7,8.4,14
		c1.8,2.5,5,3.6,5.7,7.7c-3.2,4.5-3.4,11.3-5.2,17c-8.2,25.6-5,57.3,6.6,76.1c3.6,5.7,12.2,18.1,23.8,13.4
		c10.2-4.1,7.9-17,10.9-28.3c0.7-2.7,0.2-4.5,1.6-6.3c0,0.2,0,0.5,0,0.5c3.2,6.3,6.3,12.5,9.3,18.8c7,11.1,19.3,22.7,29.5,30.4
		c5.4,4.1,9.7,11.1,16.5,13.6c0-0.2,0-0.5,0-0.7c-0.2,0-0.2,0-0.5,0c-1.4-2-3.4-2.9-5.2-4.5c-4.1-4.1-8.6-9.1-11.8-13.6
		c-9.5-12.7-17.9-26.7-25.4-41.2c-3.6-7-6.8-14.7-9.7-21.8c-1.4-2.7-1.4-6.8-3.6-8.2c-3.4,5-8.4,9.3-10.9,15.4
		c-4.3,9.7-4.8,21.8-6.3,34.2c-0.9,0.2-0.5,0-0.9,0.5c-7.3-1.8-9.7-9.3-12.5-15.6c-6.8-16.1-7.9-41.9-2-60.5
		c1.6-4.8,8.4-19.7,5.7-24.2c-1.4-4.3-5.9-6.8-8.4-10.2c-2.9-4.3-6.1-9.7-8.2-14.5c-5.4-12.7-8.2-26.7-14.1-39.4
		c-2.7-5.9-7.5-12-11.3-17.4c-4.3-6.1-9.1-10.4-12.5-17.7c-1.1-2.5-2.7-6.6-0.9-9.3c0.5-1.8,1.4-2.5,3.2-2.9
		c2.9-2.5,11.3,0.7,14.3,2c8.4,3.4,15.4,6.6,22.4,11.3c3.2,2.3,6.6,6.6,10.6,7.7c1.6,0,3.2,0,4.8,0c7.3,1.6,15.4,0.5,22.2,2.5
		c12,3.9,22.9,9.5,32.6,15.6c29.7,18.8,54.2,45.5,70.7,77.5c2.7,5.2,3.9,10,6.3,15.4c4.8,11.1,10.7,22.4,15.4,33.3
		c4.8,10.7,9.3,21.5,16.1,30.4c3.4,4.8,17,7.3,23.1,9.7c4.5,2,11.6,3.9,15.6,6.3c7.7,4.8,15.4,10.2,22.7,15.4
		C907.5,481.7,918.8,487.4,919.5,491.9L919.5,491.9z"/>
	<path class="st1" d="M688.4,295c-3.9,0-6.6,0.5-9.3,1.1c0,0,0,0.2,0,0.5c0.2,0,0.2,0,0.5,0c1.8,3.6,5,6.1,7.3,9.3
		c1.8,3.6,3.4,7.3,5.2,10.9c0.2-0.2,0.5-0.5,0.5-0.5c3.2-2.3,4.8-5.9,4.8-11.3c-1.4-1.6-1.6-3.2-2.7-4.8
		C693.1,297.9,690.2,296.8,688.4,295L688.4,295z"/>
	<path class="st2" d="M446.4,661.2h85.2c10,0,19.5-2,27.2-5.7c12.9-5.9,19-13.8,19-24.2v-21.8c0-8.4-7-16.3-21.1-21.8
		c-7.3-2.7-16.3-4.3-25.2-4.3h-35.8c-12,0-17.7-3.6-19.3-11.6c-0.2-0.9-0.2-1.8-0.2-2.7v-13.4c0-0.7,0-1.6,0.2-2.5
		c1.6-6.1,4.8-7.7,15.2-8.8c0.9,0,2,0,2.7,0h84.5v-19.7H496c-12,0-18.4,0.7-24,2.5c-17.4,5.4-25.2,14-25.2,29.2v17.2
		c0,13.4,15,24.7,40.3,27.4c2.7,0.2,5.7,0.2,8.6,0.2h30.6c1.1,0,2.3,0,3.2,0.2c9.3,0.9,13.4,2.5,16.1,5.9c1.8,1.8,2.3,3.4,2.3,5.4
		v17.2c0,2-1.4,4.8-4.1,7c-2.7,2.3-7,3.9-12.7,4.1c-1.1,0-1.8,0.2-2.9,0.2h-81.8V661.2L446.4,661.2z"/>
	<path class="st2" d="M762.3,627c0,20.2,15.2,31.5,45.5,33.8c2.9,0.2,5.7,0.5,8.6,0.5h77v-19.7h-77.7c-17.2,0-23.8-4.3-23.8-14.7
		v-102h-29.7V627L762.3,627z"/>
	<path class="st2" d="M596.6,627.9v-70.2c0-17.9,12.7-28.8,37.4-32.2c2.7-0.2,5.4-0.5,7.9-0.5h56.2c2.9,0,5.4,0.2,8.4,0.5
		c24.7,3.4,37.2,14.3,37.2,32.2v70.2c0,14.5-5.2,22.2-17.4,27.4l29,26.3H721l-23.6-21.3l-23.8,1.4h-31.7c-5.2,0-11.1-0.7-17.2-2.3
		C605.9,654.2,596.6,644.2,596.6,627.9L596.6,627.9z M628.6,626.3c0,0.9,0.5,1.8,0.7,2.9c1.6,8.2,9.3,12.7,21.1,12.7H677l-24.5-22.2
		h34.2l21.5,19.5c4.1-2.3,6.6-5.4,7.5-9.5c0.2-0.9,0.2-2,0.2-2.9v-67.3c0-0.9,0-1.8-0.2-2.7c-1.6-7.7-9.3-12-20.8-12h-44.6
		c-13.1,0-21.8,5.7-21.8,14.7V626.3L628.6,626.3z"/>
	<path class="st2" d="M907.1,661.4h4.3v-16.5h5.7v-3.4h-15.9v3.4h5.9V661.4L907.1,661.4z M939.9,661.4h4.1v-19.9h-6.1l-5,13.6
		l-5.4-13.6h-5.9v19.9h3.9v-15.2h0.2l5.7,15.2h2.9l5.7-15.2l0,0V661.4L939.9,661.4z"/>
</g>
</svg>
