<?xml version="1.0" encoding="utf-8"?>
<!-- Generator: Adobe Illustrator 21.1.0, SVG Export Plug-In . SVG Version: 6.00 Build 0)  -->
<svg version="1.1" id="Layer_1" xmlns="http://www.w3.org/2000/svg" xmlns:xlink="http://www.w3.org/1999/xlink" x="0px" y="0px"
	 viewBox="0 0 1000 1000" style="enable-background:new 0 0 1000 1000;" xml:space="preserve">
<style type="text/css">
	.st0{fill:#FEFEFE;}
	.st1{fill:#BDEFFC;}
	.st2{fill:#E1F7FD;}
	.st3{fill:#DCF6FD;}
	.st4{fill:#6BDDFA;}
</style>
<g id="_x32_AESfX.tif">
	<g>
		<path class="st0" d="M946.7,755.4c0,75.4-0.1,150.7,0.1,226.1c0,4.6-0.9,5.5-5.5,5.5c-294.2-0.1-588.4-0.1-882.7,0
			c-4.6,0-5.5-0.9-5.5-5.5c0.2-74.8,0.1-149.7,0.1-224.5c0.7-0.5,1.4-0.5,2.1,0c2.7,2.7,2.9,6.5,3.9,9.9
			c7.8,27.5,33.7,47.7,63.1,48.8c33.7,1.3,71-28.1,69.3-70.8c-1.1-28.7-21.8-54.6-50.9-62.6c-15.2-4.2-15.4-4.9-13.1-20.7
			c5.4-35.5,20.3-67.3,38.9-97.4c17.7-28.7,39-54.7,62.2-79.3c55.6-58.9,120.1-105.9,190.8-144.8c62-34.2,127.1-60.4,196.4-76
			c12-2.7,18.8-13.2,16.3-24c-2.5-10.8-12.2-16.8-24.4-14.3c-34.3,7.1-67.7,17.5-100.4,30c-63.7,24.3-123.6,56-179.9,94.4
			c-30.2,20.6-59,42.8-86.1,67.5c-40.1,36.5-76.6,76-105.8,121.9c-23.9,37.5-41.8,77.3-47.4,121.8c-0.9,6.9-0.6,13.9-0.8,20.8
			c-0.1,4.3-0.8,8.3-4.2,11.2c-13.7,11.7-22.9,26.2-26.5,44c-0.2,1-0.9,1.9-1.5,2.7c-0.7,0.6-1.4,0.6-2.1,0.1
			c0-240.1,0-480.1-0.1-720.2c0-5.3,0.8-6.8,6.6-6.8c143.9,0.2,287.9,0.2,431.8,0.2c0.5,0.8,0.4,1.6-0.3,2.2
			c-10.5,4.1-21.4,6.9-30.7,13.9c-38.4,28.8-35.9,87.4,5,112.5c26,15.9,59.3,12.3,81.2-8.7c1.3-1.2,2.6-2.5,3.8-3.8
			c6.7-6.7,8.5-6.9,16.2-1c13.7,10.6,25.6,23,36.1,36.8c30.6,40,50,85.5,64.8,133.2c14.4,46.3,22.8,93.9,27.9,142
			c4.4,41.2,4.9,82.7,3,124c-2.9,62-11.9,123.3-30.4,182.8c-1.2,4-1.9,8-1.3,12.2c1.2,8,7.4,14.6,15.5,16.4
			c7.1,1.6,14.8-1.8,19.3-8.4c2.4-3.5,3.6-7.4,4.8-11.3c13.2-45.8,21.9-92.5,27.2-139.9c4.8-43.5,5.8-87.2,4-130.9
			c-2.9-72.2-14-143.2-36.9-212c-16.8-50.3-38.9-98-72.9-139.3c-15-18.1-31.9-34.2-52-46.6c-4.4-2.7-7.3-6-8.2-11.4
			c-5.1-30.8-22.9-50.2-53-58.5c-1.5-0.4-2.9-1-4.1-2.1c-0.7-0.7-0.8-1.5-0.3-2.3c143.5,0,287,0,430.5-0.1c5.3,0,6.3,1,6.3,6.3
			c-0.2,240.2-0.1,480.4-0.1,720.6c-0.8,0.5-1.5,0.5-2.2-0.2c-3-4.1-3.1-9.2-4.8-13.7c-9.4-24.9-26.8-40.6-53.1-45.1
			c-46.2-7.9-86.3,34.2-76.9,80.1c3.1,15.2,2.9,15.9-12,20.7c-34.9,11.3-70.6,14-107.3,11.6c-51.8-3.5-101.6-15.4-150.3-32.4
			c-57-19.8-111-46.3-162.2-78.3c-54.1-33.8-103.8-73-148.1-119c-3.2-3.3-6.3-6.8-9.4-10.2c-8.3-9.1-20.4-9.8-28.8-2
			c-8.4,7.9-8.5,18.9-0.2,28.2c47.4,52.5,102.2,95.9,161.7,133.7c23.5,14.9,47.5,28.8,72.3,41.2c70.5,35.4,143.9,62.1,222.3,73.8
			c26.9,4,54.1,6.7,81.4,5c36.1-2.1,71.6-7.3,104.3-24.4c4.8-2.5,9-2.2,13.9,0c40.3,18.3,84.4-3.4,94.5-46.4c0.6-2.5,1-5.1,2.8-7.1
			C945.2,754.9,945.9,754.9,946.7,755.4z"/>
		<path class="st1" d="M491.4,14.6c0-0.5,0.1-0.9,0.1-1.4c6.2,0,12.3,0,18.5,0c0,0.5,0,1,0.1,1.5C503.9,18.3,497.6,18.4,491.4,14.6z
			"/>
		<path class="st2" d="M54.8,757l-0.8,0l-0.8,0c0-5.7,0-11.3,0-17c0.5,0,1,0,1.5,0C58.3,745.6,58.2,751.3,54.8,757z"/>
		<path class="st3" d="M946.7,755.4c-0.5,0-1,0-1.4,0c-3.5-5.2-3.5-10.3,0-15.5c0.5,0,1,0,1.4,0
			C946.7,745.1,946.7,750.3,946.7,755.4z"/>
		<path class="st4" d="M54.8,757c0-5.7-0.1-11.3-0.1-17c2.8-18.8,11.1-34.6,26-46.7c3.2-2.6,4.9-5.3,4.9-9.8
			C85,639,99.8,598.8,121,560.6C154.6,500,200.8,450,252.9,405c58.9-50.9,124.1-92.2,194.3-125.6c51.2-24.3,104.2-43.6,159.7-55.5
			c13.8-3,25.2,3.6,27.9,16.1c2.6,12.4-5.4,23.3-18.9,26.3c-67.2,14.9-130.4,40.4-190.8,73c-43.5,23.5-84.8,50.4-123.4,81.4
			c-54.4,43.8-103,92.9-138.8,153.5c-16.4,27.8-29,57.3-33.5,89.7c-0.2,1.8-0.2,3.6-0.5,5.4c-1.2,6.1,0.9,8.6,7.5,10
			c31.1,6.3,51.7,28.3,56.9,59.3c4.4,26.5-9.2,55-34.3,69.8c-37,21.8-88.7,5.5-102-42.4C56.1,763,55.5,760,54.8,757z"/>
		<path class="st4" d="M491.4,14.6c6.2,0,12.4,0,18.7,0c32,5.6,53.1,26.6,58.9,58.9c1,5.7,3.4,9.3,8.4,12.5
			c35.2,22.2,60.5,53.6,81.4,88.9c33.4,56.4,52.9,117.9,65.7,181.7c7.7,38.5,12.2,77.5,14.3,116.7c5.2,95.6-3.6,189.7-30,281.9
			c-1.8,6.4-3.4,13-8.9,17.6c-7.5,6.5-17.6,7.2-25.8,2c-8.1-5.2-12.1-15.2-9-25c9.5-30.4,16.4-61.5,21.5-92.9
			c4.2-25.8,6.9-51.8,8.8-78c2.2-30.6,2.5-61.2,1-91.7c-4.7-96.5-21.7-190.2-67.1-276.9c-15.5-29.5-34.6-56.5-60.8-77.9
			c-0.8-0.6-1.6-1.3-2.3-2c-5.4-5.6-9.2-5.4-15.1,0.9c-27.1,29.3-70.4,30.1-99.3,2.7c-26.6-25.1-27.9-70-2.6-97.7
			C460.5,24.2,474.6,16.6,491.4,14.6z"/>
		<path class="st4" d="M945.3,739.9c0,5.2,0,10.3,0,15.5c-4.9,30.1-21,51-50.7,59.7c-16.5,4.8-33.1,3.6-48.7-4.4
			c-4.1-2.1-7.2-2.1-11.4,0c-28.6,14.7-59.3,21-91.1,23.5c-65.8,5.1-129.3-6.7-191.8-26.1C448.9,776.2,356.3,725,272.2,658.2
			c-29.6-23.5-57.4-49-82.6-77.4c-8.8-9.9-8.6-22.4,0.5-31c8.9-8.4,22.6-8.1,31.1,1.3c45.3,50.2,97.6,91.8,154.6,127.7
			c72.7,45.8,150.1,80.6,234,100.3c37.9,8.9,76.2,14.1,115.2,13.1c26.5-0.7,52.6-4.9,77.7-14.2c6.2-2.3,8.5-4.6,6.3-12.1
			c-10.7-37.3,12.6-76.5,50.2-86c37.4-9.4,75.5,13.8,84.5,51.7C944.2,734.4,944.7,737.2,945.3,739.9z"/>
		<path class="st4" d="M367.7,261.7c-13.1-1.8-26.5-4.1-40-5.5c-46.4-4.7-92.5-4.3-136.3,14.8c-37.3,16.3-60.1,43.6-62.8,85.7
			c-2.1,31.5,7.2,60.3,19.8,88.4c3.3,7.5,7.4,14.7,11.4,21.9c6.8,12.5,4.3,25.7-6.3,31.7c-12.2,6.9-24.1,2.9-31.6-10.5
			c-17.4-31.5-30.8-64.4-35.4-100.4c-7.7-58.9,13.1-115.3,71.3-148.5c29.4-16.7,61.4-24.1,94.7-27.3c40-3.8,79.5-0.1,118.8,6.5
			c12.1,2,20.9,12.5,19.7,23.7C389.7,253.7,380,261.9,367.7,261.7z"/>
		<path class="st4" d="M915.9,362.9c-0.9,44.4-14,82.7-33.4,119.2c-14.3,26.8-31.7,51.6-50.8,75.3c-2.1,2.6-4.3,5.1-6.7,7.5
			c-8.7,8.8-20.8,9.4-29.7,1.5c-8.9-7.9-10.3-20.3-2.4-29.8c23.4-28.5,44.5-58.5,59.9-92.1c10.7-23.3,18.5-47.5,19.5-73.2
			c2-48.1-21.7-83.5-67.3-101.6c-22.4-8.9-45.7-13.4-69.8-14.4c-5.9-0.3-11.8-0.8-17.7-1.2c-10.2-0.7-18.1-8.5-19.3-18.8
			c-1.1-10.4,5.4-20.3,15.3-23.1c11-3.2,22.1-0.5,32.9,0.4c31.7,2.5,62.5,9.3,90.8,24.4C888.7,264.4,914.6,307.4,915.9,362.9z"/>
		<path class="st4" d="M500.7,985.2c-39.2-0.8-72.3-16.1-101.1-41.6c-41.6-36.8-67.8-83.9-88.5-134.5c-2.9-7.1-5.7-14.3-8.1-21.6
			c-4.1-12.3,0.8-23.6,12-28c11.5-4.5,23.5,0.5,28.2,12.9c8.4,22.1,17.3,44,28.7,64.8c17,31.1,36.9,59.9,65.7,81.5
			c43.8,32.7,93.4,30.3,134.2-6.5c19-17.2,35-36.8,48.2-58.8c7.7-12.8,19.9-16.7,31.2-10c11.1,6.7,13.5,19.4,5.7,32.3
			c-21.2,35.2-47,66.1-82.5,87.9C551.7,977.4,527.2,984.7,500.7,985.2z"/>
		<path class="st4" d="M500.4,576.6c-29.8,0-52.4-22.9-52.4-53c0-29.3,23.5-53.2,52.6-53.4c28.6-0.2,52.7,24.4,52.7,53.5
			C553.2,553.2,529.9,576.6,500.4,576.6z"/>
		<path class="st0" d="M124.3,721.4c14.6,0,26.3,12,26.2,26.7c-0.1,15-11.4,26.2-26.6,26.2c-15.1,0-26.1-11.2-26-26.5
			C97.9,732.7,109.3,721.3,124.3,721.4z"/>
		<path class="st0" d="M474.3,84.2c-0.1-15.4,10.8-26.5,25.9-26.5c15-0.1,26.5,11.1,26.7,26.1c0.2,14.5-11.7,26.6-26.2,26.8
			C485.8,110.6,474.4,99.2,474.3,84.2z"/>
		<path class="st0" d="M902.1,747.8c0,15.2-11,26.4-26.1,26.4c-14.6,0-26.5-11.8-26.5-26.4c0-14.6,11.8-26.5,26.4-26.5
			C890.8,721.4,902.1,732.8,902.1,747.8z"/>
	</g>
</g>
</svg>
