<?xml version="1.0" encoding="utf-8"?>
<!-- Generator: Adobe Illustrator 21.1.0, SVG Export Plug-In . SVG Version: 6.00 Build 0)  -->
<svg version="1.1" id="Layer_1" xmlns="http://www.w3.org/2000/svg" xmlns:xlink="http://www.w3.org/1999/xlink" x="0px" y="0px"
	 viewBox="0 0 800 800" style="enable-background:new 0 0 800 800;" xml:space="preserve">
<style type="text/css">
	.st0{fill:#EECBA2;}
	.st1{fill:#56332B;}
	.st2{fill:#EFCEA8;}
	.st3{fill:#F1D6B6;}
	.st4{fill:#FEAE56;}
	.st5{fill:#F5E2CA;}
	.st6{fill:#CBAB8C;}
	.st7{fill:#010000;}
	.st8{fill:#CCAC8D;}
	.st9{fill:#CFAF8F;}
	.st10{fill:#D1B090;}
	.st11{fill:#CEAE8E;}
	.st12{fill:#4D2A24;}
	.st13{fill:#E3C19B;}
	.st14{fill:#D6B694;}
	.st15{fill:#CEAE8D;}
	.st16{fill:#D8B794;}
	.st17{fill:#D8B795;}
	.st18{fill:#D7B694;}
	.st19{fill:#D6B494;}
	.st20{fill:#D6B594;}
	.st21{fill:#DCBB97;}
	.st22{fill:#E8C69F;}
	.st23{fill:#E0BE99;}
	.st24{fill:#442823;}
	.st25{fill:#EC1C24;}
	.st26{fill:#FEB71F;}
	.st27{fill:#FE9B28;}
	.st28{fill:#FDD9BD;}
	.st29{fill:#FE9A22;}
	.st30{fill:#4C2D26;}
	.st31{fill:#836150;}
	.st32{fill:#0D0706;}
	.st33{fill:#0C0706;}
	.st34{fill:#361914;}
	.st35{fill:#341813;}
	.st36{fill:#0D0807;}
	.st37{fill:#120A09;}
	.st38{fill:#7C483F;}
	.st39{fill:#462924;}
	.st40{fill:#5A362D;}
	.st41{fill:#2D1B16;}
	.st42{fill:#3C211D;}
	.st43{fill:#452924;}
	.st44{fill:#341F1B;}
	.st45{fill:#3B231E;}
	.st46{fill:#3F2520;}
	.st47{fill:#221411;}
	.st48{fill:#653F35;}
	.st49{fill:#D3B292;}
	.st50{fill:#281714;}
	.st51{fill:#D1B291;}
	.st52{fill:#F7F7F7;}
	.st53{fill:#F4F4F4;}
	.st54{fill:#533029;}
	.st55{fill:#FB8E1F;}
	.st56{fill:#FE9828;}
	.st57{fill:#FCD8CF;}
	.st58{fill:#C41D2C;}
	.st59{fill:#FEC95B;}
	.st60{fill:#FECA62;}
	.st61{fill:#FE8E1E;}
	.st62{fill:#FE951E;}
	.st63{fill:#FEA335;}
	.st64{fill:#C2292D;}
	.st65{fill:#7D4940;}
	.st66{fill:#FEB51D;}
</style>
<g id="AXVAwf.tif">
	<g>
		<path class="st0" d="M431.6,154.1c4.4,0,8.8,0,13.1,0c3.5,2.1,7,2.1,10.5,0c5.3,0,10.5,0,15.8,0c14.2,3.9,29.2,2,43.5,5.3
			c5.5,1.3,11,2.3,16,5.1c12,9.5,22.9,20,30.1,33.8c7.1,13.6,16.3,25.8,24.9,38.4c7.7,11.2,14.2,23.1,16.8,36.6
			c0.6,3.4,0.7,7.5-3,9.2c-3.5,1.6-5.5-2-7.2-4.2c-7.9-10.2-20.3-16.5-25.1-30.6c-0.8,10.1-7,9.5-12.6,8.2
			c-12.4-2.8-25.1-3.3-37.6-5.2c-4.8-0.8-9.5-1.1-14.3-0.1c-12.4,2.4-14.7,5.5-11.9,17.9c2,9,2.6,18.1,4.2,27.2
			c1,5.2,2.1,11.6-1.1,15.3c-9.5,11.1-0.1,14.3,6.7,19c9.5,12.9,23.8,20.6,34.4,32.3c1.3,1.3,2.6,2.6,3.9,4c1.4,1.3,2.7,2.7,3.9,4.2
			c5.4,8.7,12.6,9.2,21.5,5.5c17-7.1,29.5-18.3,35.7-36c1.3-3.6,2.3-9.2,6.4-8.9c5.6,0.4,4.4,6.6,5.1,10.6c1.7,10.3,4.4,20.6,0.7,31
			c-1.3,2.8-4.3,4.1-5.9,6.9c-9.7,17.6-24.8,25-39.6,23.2c12.7,0.8,28.1-3.1,37.8-19.8c1.1-1.9,2-5.5,5.3-4.7
			c2.9,0.7,3.3,3.8,3.7,6.3c0.6,3.4,1.2,6.8,2.2,10.2c3.5,35.4-18.5,67.3-52.3,76.4c-8.9,2.4-13.5-0.7-14.1-9.8
			c-0.3-3.9-0.2-7.9-1.5-11.7c-1.2-4.6-1.2-9.5-2.7-14c-0.9-3.9-1.1-7.8-1.1-11.8c1.2-9.5-4.2-16.5-9.4-23.5
			c-16-24.9-37.4-43.7-63.5-57.5c-14.7-7.8-26.3-20.3-40.4-29.3c-19.7-12.5-38.4-12.3-57.6,0.7c-10.9,7.4-19.8,17.4-31.2,24
			c-29.2,15.4-54.8,34.8-72.3,63.5c-9.7,13.4-11.9,28.9-13.4,44.7c-2.7,28.7-8.3,31.3-32.3,14.8c-7.2-4.9-13.9-10.7-20.5-16.4
			c-9.9-8.6-14.2-19.3-14.5-32.4c-0.5-22,1.4-43.7,4.9-65.4c0.7-4.1,0.2-10.1,5.4-10.9c5.1-0.8,6.7,4.7,8.6,8.6
			c6.9,14.5,17.9,24.6,32.7,30.8c8.7,3.7,16.2,3.2,21.9-5.1c1.3-1.4,2.7-2.8,4.2-4.1c1.3-1.3,2.7-2.6,4-3.9
			c11.1-11.5,23.7-21.4,35.2-32.5c1.2-1.3,2.5-2.4,3.8-3.6c1.3-1.2,2.6-2.2,4-3.2c4.4-2.2,2.6-4.4-0.1-6.6c-6.5-14-3.3-28.1,0-42.1
			c4.7-20-0.8-26.6-21.4-24c-15.1,1.9-30.3,2.7-45.1,6.9c-7.9,2.3-8.1,1.6-11.7-7c-6,10.5-12.5,20.7-24.2,26
			c-3.2-0.4-4.5-2.6-5.2-5.4c-1.1-10.9,5.8-19,9.9-28.1c13.6-20.2,29.1-39.2,40.2-61.1c4.3-7,9.6-13,17-16.9
			c20.8-7.3,42.9-6.8,64.2-10.7c8.8,0,17.5,0,26.3,0c5.6,2.7,11.7,0.7,17.5,1.4C397.6,154.7,414.7,157.2,431.6,154.1z"/>
		<path class="st1" d="M179,398.5c-2.9,5.9-1.9,15.3-10.8,16c-10.3,0.8-14.3-8.1-18.6-15.5c-1.3-67.6,20.3-127.8,58.2-182.9
			c1-1.4-0.2,0.4,0.8-1c0.7-1.1,1.5-2.2,2.1-3.3c-0.9,0.5-1,1.6-1.7,2.3c-24.5,29.3-47.4,59.6-65.9,93.1
			c-4.5,8.1-7.7,16.7-11.5,25.1c-1.9,4.3-2.5,9.5-7.9,11.4c-17.3-15.2-33.8-31.3-52.5-45c0-2.6,0-5.3,0-7.9
			c2.8-9.6,9.7-16.5,16.2-23.4c29.6-31.3,57.6-64.5,96.4-85.5c23.9-12.9,50.2-16.8,76.7-20c4.4-0.5,8.8,0.3,10.7,5.4
			c-4.5,5.1-8.9,10.3-13.4,15.4c-13.6,19.9-30.2,37.7-43.1,58.1c-16.1,24.9-21,53.2-25.3,81.7c-1.7,4.8-1.4,9.7-1.4,14.7
			c0.6,15.8-3,31.2-3.2,46.9C184.7,389.5,183.4,394.8,179,398.5z"/>
		<path class="st1" d="M653,399c-2.1,3.2-3.8,6.6-6.3,9.4c-9.2,10.2-15.2,9-21.1-4.2c-6.4-4.1-7-11.1-7.4-17.3
			c-1-16.4-3.8-32.8-3.6-49.3c0-4.9,0.4-9.8-1.2-14.5c-5.7-25.9-7.3-53-21.7-76.5c-10.2-16.8-22.7-32-33.6-48.3
			c-9-10.4-17.9-20.7-26.9-31.1c2.9-6,8.3-5.5,13.5-5.1c49.4,4.2,91.8,23.1,126,59.5c16.1,17.1,34.1,32.5,48.9,51
			c3.9,4.9,6.9,9.9,9,15.6c0,4.4,0,8.8,0,13.1c-17.9,12.5-33.4,28-49.8,42.3c-3.9-1.1-5.1-4.5-6.4-7.7c-18.1-46-48.1-84.3-79-122
			c-0.7-1-1.4-2-1.7-3.2c0.2,2.2,1.9,3.5,3,5.2c18.8,21.1,27.8,47.4,38,73C646.7,324.2,655.8,360.5,653,399z"/>
		<path class="st2" d="M431.6,154.1c-17.3,6-35.1,1-52.6,2.6c-0.9-0.6-1.1-1.2-0.8-1.8c0.3-0.6,0.6-0.9,0.9-0.9
			C396.5,154.1,414,154.1,431.6,154.1z"/>
		<path class="st3" d="M379,154.1c0,0.9,0,1.7,0,2.6c-5.3-0.9-11.2,2.2-15.8-2.6C368.4,154.1,373.7,154.1,379,154.1z"/>
		<path class="st4" d="M432.5,643.8c-0.1,0.8-0.4,1.5-0.9,2.1c-4.4,0-8.8,0-13.1,0c-0.5-0.6-0.8-1.3-0.9-2.1
			C422.5,639.1,427.5,639.1,432.5,643.8z"/>
		<path class="st5" d="M455.2,154.1c-3.5,3.8-7,3.7-10.5,0C448.2,154.1,451.7,154.1,455.2,154.1z"/>
		<path class="st1" d="M546.9,423c0.3,4.1,0.5,8.2,0.8,12.3c-0.7,6-0.3,12.1,0.1,18.1c-3.6,14.2-15.1,22.2-25.6,30.1
			c-11.4,8.6-24.3,15.3-37.5,20.9c-12.3,5.2-14.9,3.9-19.2-8.5c-1.7-4.9-2.8-10.1-4.2-15.1c-1.2-4.1-1.1-8.5-2.4-12.6
			c-0.8-2.7-1.5-5.5-2.9-8c-1.4-2.4-2.6-5-3.6-7.6c-1.1-3.2-2.6-6.2-4.8-8.8c-8.6-12.3-19.2-22-33.3-27.6c-3.6-2.2-10-1.2-9.2-8.2
			c0.1-11.3,0.2-22.7-2.3-33.8c0.6-7.8-5.7-17.9,7.2-21.6c3.9,0.4,7.5-1.2,11.3-1.4c-2.5-0.1-4.8,0.8-7.2,1.3
			c-6.2-1-12.4-0.7-18.6-0.1c-3.2-1-6.2-2.5-9.5-2.4c-0.5,0.5-1.5-1.3-1.7,0c-0.2,1.7-0.8-0.6,0.9,0c3.9,0.1,7.2,1.7,10.8,2.7
			c2.8,0,5,0.8,5.5,4c-0.2,7.2-1.3,14.4,1.2,21.4c1.6,6.5,0.3,13.3,2.3,19.8c1.9,10-1.6,16.5-11.6,19.9
			c-10.1,3.5-17.7,10.6-24.6,18.4c-5.6,6.2-11.1,12.4-12.6,21.1c-0.3,2.3-0.8,4.7-1.8,6.8c-1.9,2.8-4,5.6-4.8,9
			c-1.2,3.4-1.3,7-2,10.5c-7.3,28.4-10.2,29.8-36.7,15.9c-15.3-8-30.3-16.6-42.9-29.6c-2.1,7-0.2,13.2-1.8,19
			c-1.1,2.6-1.9,5.6-5.9,4.3c-1-1.1-1.7-2.4-2.2-3.9c-0.6-28.4-5.8-57.3,9.8-83.7c20.7-27.9,43.7-53.3,76.4-67.6
			c8.8-2.8,16.5-7.1,22.8-14.3c4.9-5.7,11.2-9.6,19.2-9.4c2.5,0.2,4.8,0.9,6.3,3c5.6,6,12,4.3,18.4,1.8c2.2-1,4-2.7,6.2-3.7
			c9.2-3.1,17.9-1.1,23.9,5.9c7.3,8.7,16.4,13.9,26.3,18.4c29.2,13.5,50.9,35.6,69.9,60.9C541,407.9,545.4,414.8,546.9,423z"/>
		<path class="st6" d="M271.5,404.6c-13.5,22.5-10.8,47.5-10.9,72c0,4.8-0.1,9.5-0.1,14.3c-0.5,3.7-1.8,7.7,3,9.8
			c0.9,0.8,1.6,1.7,2.2,2.8c1.5,12,10.4,22.1,8.7,34.9c-10.2,4.3-16.8-1.8-23.5-7.9c-18.2-15.3-31-33.5-34.8-57.6
			c-0.9-5.6-4.9-11.3-8.9-15.7c-13.1-14.2-21-30.6-23.8-49.7c-0.5-3.1-0.4-7.2-4.2-9c1.9-20.9,3.7-41.8,5.6-62.6
			c0.4-0.9,1.1-1.5,1.9-2c1.1-2.8,0.4-5.5-0.2-8.2c-0.4-1.2-0.4-2.3,0.2-3.4c3.6-29.7,8.5-59,26.3-84.3c5.2-1.6,4,3.3,5.6,5.5
			c-3.3,8.8-10.4,16.1-10.5,26.2c-1.2,2.8-3.5,6.2,2.7,5.3c10.2-10.5,20.9-20.6,25.7-37.5c3,9.9,3,9.9,1.3,18.9
			c16.6-5.9,33.1-7.3,49.6-9.1c3.4-0.4,7-1.6,10.3-1c19.1,3.6,27.5,1.6,19.7,26.1c-4.6,14.6-7.3,29.5-1.3,44.6
			c0.5,3.2-0.4,5.9-2.7,8.2c-0.9,0.9-1.8,1.7-2.7,2.6c-4.4-3.8-2.6-9.9-5.3-14.3c-6.1-18.5-17.1-31.8-37.3-35.6
			c-2.6-0.5-5-1.6-5.6-4.7c0.9-1.8,2.6-1.9,4.3-2.1c-1.1-0.1-2.3,0.1-3.4,0.1c-1.7,0-3.4,0.1-5-0.2c0.9,1,2.9,0.8,3,2.8
			c-2.6,5.2-8.1,4.6-12.5,6.2c-18.9,7.2-31.3,25.9-28.7,43.8c3.2,22.6,16.4,35.2,39.1,37.3c4.3,0.4,8.9-0.4,12,3.8
			c-0.8,0.9-1.6,1.7-2.5,2.6c-4.1,1.7-8,0.8-11.4,0.8c1.9,1.6,6-1.2,8.5,1.5c-5.6,13.3-14.3,14.7-27.1,9.2
			c-19.2-8.2-31.6-22.1-39.5-45.4c-5.7,31.6-8.5,59.2-6.7,87.2c0.3,5,2,10.3,5.8,14.3c11.8,12.4,25,22.9,40.1,31.1
			c6.3,3.4,11.8,5.1,12.1-6.4c0.2-11.6,2.6-23.3,5-34.7c2-9.7,4.2-19.7,12.9-26.2C271.1,399.8,272.8,401.4,271.5,404.6z"/>
		<path class="st6" d="M558.1,198.3c35.5,33.8,53.9,75.6,57.9,124c0.6,1,0.7,2.1,0.3,3.2c-0.4,2.8-1.8,5.7-0.1,8.6
			c0.9,0.3,1.5,0.9,1.7,1.8c2.3,22.8,1.8,45.9,7.7,68.3c-7.3,26.7-28.4,46.7-37,72c-7.6,22.1-16.7,40.9-36.2,54
			c-4.8,6.6-10,11.9-19,7.2c4.6-18.4,11.7-36.3,11.5-55.7c3.2-10.8-0.9-22.6,4.8-33c3.5,2.4,2.6,6.1,2.8,9.5c0.7,12.2,3,14,13.8,8
			c14.1-7.8,27.6-17,37.9-29.2c10.4-12.3,8.2-28.5,8.7-43.5c-2.6-6.8-0.2-14.3-2.7-21.1c1.4-13.2-2.2-26-3.2-42.3
			c-2.3,6.5-3.6,10.3-5.1,14c-8.5,21.5-25.7,32.6-46.9,38.2c-9.8,2.6-12.2-6.2-15.8-12.6c2.7-2.6,6.6,0,9.9-2.2
			c1.3-0.2-1.4-2-0.5-0.5c0.4,0.7,0.2,1.2-0.6,1.2c-3.9,0.1-7.8,1-11.5-0.9c-0.8-0.9-1.6-1.8-2.5-2.7c4.1-4.5,9.7-3.2,14.8-3.5
			c21.5-1.5,35.9-15.2,39-37.4c2.3-16.1-10.1-36-26.1-42.8c-5.1-2.2-11.6-1.3-15-6.9c-0.2-1.9,1.7-2,2.5-3.1c-2,0.5-3.9,0.3-5.9,0.2
			c0.5,1.1,2.5,1.2,2.1,3c-2.3,3.9-6.5,4-10.2,5.1c-21.1,6.5-30.4,18.6-31.7,40.9c-0.2,4.3,0.4,8.8-2.8,12.4
			c-8.4-1.5-12.7-8.9-20.7-14.3c10.6-1.4,13-8.2,12-16.3c-1.5-12.5-2.6-25.2-5.9-37.2c-2.9-10.6,0.8-14,10.3-16.4
			c18.1-4.5,35.5,0.3,52.8,3.5c11.2,2.1,17.6,2.7,15-13c7.2,18.8,24.4,27.2,36,45.1c-0.9-19.9-9.2-33-17.6-46.1
			C574.2,224.8,563,213.5,558.1,198.3z"/>
		<path class="st7" d="M546.4,272.9c13,4,26.9,5.7,35.6,18.8c13,19.6,12.4,39.1-0.9,57.2c-11.3,15.3-28.8,18-47,15.7
			c-10.4-11.4-25.8-17.7-33.5-32c-3.1-36,8.5-51.4,44.9-59.7L546.4,272.9z"/>
		<path class="st7" d="M262.4,272.9c23.5,3.3,39.3,15.7,45.7,39c1.5,6.1,2.2,12.3-0.4,18.3c-10.3,13.5-25.2,22.1-36.5,34.6
			c-18,2.1-35.1-1.8-45.5-16.7c-11.4-16.1-13.4-34.8-2.1-52.9c8.7-14,22.5-19.5,37.8-22.3L262.4,272.9z"/>
		<path class="st6" d="M386.5,317c-7.5,0.2-14,3.1-17.9,9.3c-5.7,9-14.4,12.1-23.9,14.3c-1.8-1.5-6.6-0.1-5.2-5
			c6.1-4.9,12.4-9.5,18.3-14.6c25.6-22.1,52.4-29.9,81.9-5.3c16.4,13.6,34.1,25.4,52.3,36.4c19.3,11.6,32.8,28.2,44.7,46.6
			c1.3,1.3,1.1,2.4-0.4,3.4c-14-14.9-26.5-31.2-43.2-43.6c-7.8-5.8-15.7-11.1-24.4-15c-11.1-4.9-22.3-8.9-29.9-19.6
			c-5.2-7.3-14.4-7.2-22.9-7c-0.6,0.1-1.2,0.2-1.9,0.3c-6.3,1-12.5,0.6-18.8,0.2C392.4,316.7,389.6,314.7,386.5,317z"/>
		<path class="st6" d="M339.6,230.3c10.4,3.4,21.6,5.8,21.2,20.6c-0.2,5.9,3.5,6,8,4.2c24.7-9.6,49.2-10.3,73.4,1.7
			c4.4,2.2,7.1,2.5,7.9-3.7c2-15,12.2-21.2,26.1-22.8c3.2-0.7,7.2-3.9,7.8,2.7c-18.6,2.1-23.9,15.6-25.9,31.2
			c-1.1,8.5-3.6,9.9-10.6,4.9c-20.4-14.6-42.9-17.4-67.2-12.7c-11.4,2.2-18.2,11.2-28.4,15.5c2.1-34.4,1.7-35-20.3-39
			C332.5,226.5,336.4,229.5,339.6,230.3z"/>
		<path class="st8" d="M457.8,296.1c-35.9-18.3-71.9-17.7-107.8,0c-2.8,1-3.2-0.2-2.6-2.6c12.4-7,24.3-14.9,38.5-18.4
			c28.2-6.9,51.8,3.6,74.4,18.4C461.1,295.9,460.6,297.2,457.8,296.1z"/>
		<path class="st6" d="M339.6,335.7c1.7,1.7,3.4,3.3,5.2,5c-30.8,13.9-52.3,38.6-73.3,63.9c-1-2-2-3.9-2.9-5.9
			c13.3-23.9,33.1-41.1,56.4-54.5C329.8,341.3,334.7,338.5,339.6,335.7z"/>
		<path class="st6" d="M218.5,243.5c-1.9-1.8-3.7-3.6-5.6-5.5c13.4-19.7,27.4-38.9,45-55.2C248.3,205.4,231.8,223.4,218.5,243.5z"/>
		<path class="st9" d="M610.3,372.4c5.4,6.5,1.6,14.1,2.7,21.1c-4.6-3.6-1.1-9.3-3.8-14.3c-6.5,9.4-10.8,20.9-23.1,23.5
			c-10.4,2.2-21.1,3.3-31.4-2.9C580.9,405.7,596.1,390,610.3,372.4z"/>
		<path class="st10" d="M208,385.5c11,13.7,26.2,15,42.5,14c-13.4,10.2-31.9,5.4-45.2-11.3C204.4,385.4,205.7,384.9,208,385.5z"/>
		<path class="st11" d="M426.3,227.9c-14-6.4-28.2-7-42.7-0.2c13.3-14,25.2-14.4,42.7-2.6c0.8,0.6,1,1.3,0.8,1.9
			C426.8,227.6,426.5,227.9,426.3,227.9z"/>
		<path class="st12" d="M549.7,448.7c-1.7,11.6,1.1,23.5-2,35c-5.8-5.7-4.2-12.9-3.6-19.8c0.3-3.3,3.2-6.5,0.6-10
			c1.1-6.2-2.7-13.1,3-18.6C548.3,439.8,549,444.2,549.7,448.7z"/>
		<path class="st13" d="M484.1,233c-1.8-3.1-5-2.4-7.8-2.7c10.6-5.8,20.8-1.8,31.1,2.7C499.6,233,491.8,233,484.1,233z"/>
		<path class="st14" d="M339.6,230.3c-2.8,0.2-6-0.5-7.9,2.6c-8.1-0.3-15.6-4.1-23.8-3.7C318.6,228.8,329.3,225,339.6,230.3z"/>
		<path class="st15" d="M536.4,402.1c0.1-1.1,0.2-2.3,0.4-3.4c6,7,12.2,13.9,10.1,24.3C543.4,416,539.9,409.1,536.4,402.1z"/>
		<path class="st6" d="M313.3,325.2c0-3-0.5-6.2,2.7-8.2c2,0.5,4,1,6,1.6C320.7,322.9,317.5,324.6,313.3,325.2z"/>
		<path class="st6" d="M307.7,330.3c0.1-6.1,0.3-12.2,0.4-18.3c4.5,4.7,1.6,10.6,2.5,15.8C309.7,328.6,308.7,329.4,307.7,330.3z"/>
		<path class="st16" d="M426.3,227.9c0-0.9,0-1.9,0-2.8c3.1,2.6,6.3,5.3,11.5,9.7C430.3,234.5,428.3,231.2,426.3,227.9z"/>
		<path class="st17" d="M347.5,293.6c0.9,0.9,1.7,1.7,2.6,2.6c-2.2,2.6-4.7,4.5-8.6,4.3C341.5,296.3,344.8,295.1,347.5,293.6z"/>
		<path class="st18" d="M457.8,296.1c0.9-0.9,1.7-1.7,2.6-2.6c2.6,1.7,5.3,3.5,7.9,5.2c0.6,2.4,0.2,3.6-2.6,2.6
			C463.1,299.6,460.5,297.9,457.8,296.1z"/>
		<path class="st19" d="M536.6,367.3c4.3,0,8.6,0,14.9,0c-4.9,3.6-8.7,1.9-12.1,2.4C538.4,369,537.5,368.1,536.6,367.3z"/>
		<path class="st20" d="M265.9,369.8c-3.4,0-6.8,0-10.2,0c0-0.8-0.1-1.5-0.1-2.3c4.4,0,8.7,0,13.1,0
			C267.8,368.2,266.9,369,265.9,369.8z"/>
		<path class="st17" d="M208,385.5c-0.9,0.9-1.8,1.8-2.7,2.7c-2.6-2.2-4.4-4.7-4.3-8.6C205.3,379.6,206.4,382.9,208,385.5z"/>
		<path class="st21" d="M378.4,231.9c-1.2,0.9-2.3,2.3-3.8,2.8c-1.5,0.5-2.3-0.9-1.3-2.1c1-1.3,2.5-2.1,3.9-3.1
			C377.5,230.1,377.8,230.7,378.4,231.9z"/>
		<path class="st22" d="M210.6,275.1c-0.9,1.8-2.7,4.7-4.1,3.1c-2.4-2.5-1.5-6,1.5-8.4C208.1,271.9,208.5,273.9,210.6,275.1z"/>
		<path class="st23" d="M465.7,301.4c0.9-0.9,1.7-1.7,2.6-2.6c2.3,1.1,5.7,3.4,4.2,5.1C470.1,306.8,467.6,303.5,465.7,301.4z"/>
		<path class="st24" d="M123.8,343.7c18.4-50.1,48.8-92.5,84.3-131.7c2.4-0.6,3.7-0.1,2.6,2.6c-33.1,53.7-56.9,110.6-57.9,175
			c-0.1,3.5,0.4,7.1-3.2,9.4C137.1,382.4,132.5,362.1,123.8,343.7z"/>
		<path class="st25" d="M250.8,530.5c8.1,1.2,14.4,8,23,7.9c15.7,3.1,31.7,5.9,46.8,10.5c21.6,6.5,43.1,10.1,65.4,9.3
			c2.2-0.1,4.3,0.4,6.4,1.1c1.3,0.5,2.4,1.3,3.2,2.4c1.9,4.6-0.9,8.5-2.1,12.6c-1.6,4.1,1,7.5,2.2,11c0,0.6,0,1.2-0.1,1.8
			c-0.5,1.1-1.3,2-2.4,2.5c-2.3,0.9-4.7,0.9-7.1,0.3c-7.1-3-13.2-10-22.1-4.9c-2.8,1.2-5.5,2.8-8.6,1c-31.6-2.8-61.9-11.5-91.7-22.1
			C247.3,558.1,250.8,543.4,250.8,530.5z"/>
		<path class="st26" d="M432.5,643.8c-5,0-10,0-15,0c-7-10-16.3-15.5-28.7-15.9c-4-0.1-7.3-0.6-10.7,2.8c-7,7.1-15.2,7.2-22.1,0.3
			c-6.6-6.5-7.9-14.4-0.7-21.9c2-1.6,4.7-2.8,3.4-6.1c-4.2-9.9,0.1-16.5,8.5-21.4c3.4,0.5,7.4-1.8,9.9,2.3c0.2,2.8-2.7,4.3-3.1,7
			c3.1,0.6,3.3-3.5,5.8-3.6c8.5,6.8,18,10.7,28.9,11.2c5.2,2.2,7.2-1.9,9.7-5.1c4.7-4.6,9.7-7.3,16-2.8c0.9,0.8,1.8,1.7,2.8,2.5
			c0.5,2.9,2.3,4.6,5.2,5.3C446.5,609.9,440.7,636.8,432.5,643.8z"/>
		<path class="st27" d="M365.9,582.9c-4.3,6.1-9.9,11.5-4.8,20.5c2.5,4.3-2.4,5.2-5.9,5.7c2.6-7.6-1.6-15.3,0.3-22.9
			c2.5-1.2,5-2.3,7.6-3.5C364.1,581.7,365,581.8,365.9,582.9z"/>
		<path class="st25" d="M394.7,564.4c0-0.9,0-1.8,0-2.6c5-4.9,11.4-3.8,17.4-3.6c27.2,0.8,53.5-1.3,79.7-10.7
			c13.2-4.7,28.4-5.8,42.5-9.5c6.8-0.8,12.1-5.3,18.2-7.8c0.1,4.8,0.6,9.7,0.2,14.4c-1,10.2-5,17.2-16.1,21
			c-33.3,11.3-67.3,19-102.2,22.6c-7.2,0.7-14.1,3.6-21.5,2.8c-1.4-0.2-2.7-0.7-4-1.4c-1.8-1.3-2.4-3.1-2.1-5.2
			c0.9-4.1,7.4-6.6,3.8-12.1C407.3,565.4,398.7,569.4,394.7,564.4z"/>
		<path class="st24" d="M594.6,212c25,27.8,47.5,57.4,65.6,90.2c7.4,13.4,12.4,27.7,18.7,41.5c-9.5,18-13.1,38.8-25.8,55.3
			c-3.6-2.3-3.2-5.9-3.2-9.4c-0.6-64.5-25.3-121-57.9-175C590.9,211.8,592.2,211.4,594.6,212z"/>
		<path class="st28" d="M410.3,588.6c8-0.1,15.9-0.2,23.9-0.4c0,0.8,0,1.5,0.1,2.3c-6.6-1.4-11.6,1.4-15.9,6
			c-2.1,2.9-4.9,3.9-8.3,3.3C399.9,595.9,405.4,592.2,410.3,588.6z"/>
		<path class="st29" d="M442.3,598.4c-5.3,0.8-6.2-0.2-5.2-5.3C439.9,593.8,441.6,595.5,442.3,598.4z"/>
		<path class="st30" d="M210.7,214.6c-0.9-0.9-1.8-1.8-2.6-2.6c2.1-3.8,4.8-7,10.4-9.6C216.6,208,213.9,211.4,210.7,214.6z"/>
		<path class="st31" d="M186.6,322.3c0.3,1,0.6,2,0.9,2.9c0.9,3.4,2,6.8-0.8,9.9c-0.7,0.2-1.4,0.4-2,0.7
			C184.4,331.2,183.1,326.4,186.6,322.3z"/>
		<path class="st30" d="M594.6,212c-0.9,0.9-1.8,1.8-2.6,2.6c-2.6-3.3-5.2-6.7-7.7-10C589.6,204.8,592.4,208,594.6,212z"/>
		<path class="st31" d="M618,335.9c-0.6-0.3-1.3-0.5-2-0.7c-2.8-3.1-1.7-6.5-0.8-9.9c0.3-1,0.6-2,0.9-2.9
			C619.5,326.4,618.3,331.2,618,335.9z"/>
		<path class="st24" d="M534.3,538c-9.1,7-18.8,12-30.9,10.6c-10.1-1.1-18.4,4.6-27.4,7.9c-21,7.7-42.8,4.7-64.3,4.9
			c-5.7,0.1-11.3,0.3-17,0.4c-35.4,4.8-68.3-9-102.2-14.6c-6.9-1.1-12.9-4.9-18.7-8.8c-4.3-12.1-10.3-23.7-11-36.9
			c-1.6-4.5,3.7-8.7,0.6-13.3c0-7.8,0-15.7,0-26.7c12.7,12,24,22.3,37.8,29.1c8.2,4,16.2,8.5,24.4,12.6c8.8,4.5,13.7,1.5,15.5-8
			c0.8-4.2,2.4-8.3,3.6-12.5c1.3-0.9,2.5-0.7,3.6,0.4c0.6,20.1,14.5,24.1,30.9,27.7c25.2,5.4,48.5-0.2,71.9-7.9
			c10-3.3,7.5-11.4,7.9-18.5c0.5-2.3,1.8-3.7,4-4.3c4,4,3.9,9.7,4.9,14.5c2.1,9.9,6.6,11.5,15.1,7.1c19.7-10.2,40-19.5,54.7-37.1
			c2.7-3.3,6.8-5.7,6.8-10.7c5.7,9.4,0.7,20,3,29.7C548.1,503,544.4,521.3,534.3,538z"/>
		<path class="st1" d="M460.6,482.7c5.7,17.9,4.5,19.1-12.6,25c-25.8,9-51.3,12.3-78.2,4.4c-22.1-6.5-22.4-5.7-22.3-29.3
			c-1.4-3.1,0.3-5.9,0.6-8.9c1-3.4,0.5-7.6,4.6-9.5c0-2.6,0-5.2,0-7.8c5-6.8,8.8-14.5,15.2-20.2c1.9-1.8,4-3.2,6.4-4.2
			c16.6-7.3,33.3-13.8,51.6-5.3c9.1,3.2,16.3,9,21.8,16.8c2.4,2.5,4.1,5.7,7.5,7.2c0.9,2.6,1.8,5.1,2.8,7.7
			c-0.2,4.1,1.3,7.9,2.7,11.7C461.8,474.5,462.8,478.6,460.6,482.7z"/>
		<path class="st32" d="M372.8,435.4c-1.5,0.9-2.9,1.8-4.4,2.7c-2.4,0.5-3.6-0.2-2.7-2.8c6.6-10.1,15.9-17.3,27.2-21
			c8.2-2.7,10.8-7.3,9.6-15.2c-1.7-11.8-1.7-23.8-2.5-35.7c0-2.2,0-4.4-0.2-6.6c-1-2.2-3-2.6-5-2.8c-0.7-0.6-0.9-1.2-0.7-1.8
			c0.2-0.6,0.4-0.9,0.6-0.9c6.2-5.4,12.3-3.2,18.4,0.2c0.9,0.6,1.2,1.1,0.9,1.7c-0.3,0.6-0.6,0.8-0.9,0.8c-14.9,2.3-4.5,14-7.7,20.7
			c1.7,11.6,1.8,23.2-0.1,34.8c3.5,1.6,7,3.3,10.5,4.9c-2,2.8-5.1,3.6-8.1,4.7C394.9,421.8,383.8,428.5,372.8,435.4z"/>
		<path class="st33" d="M407.9,416.5c2.2-2.5,5.2-1.9,8-2.1c15.3,5.1,26,15.4,33.9,29c-0.5,1.2-1.3,2-2.5,2.5
			c-6.7-5.5-12.2-12.5-20.6-15.8C421.7,423.9,412.1,424,407.9,416.5z"/>
		<path class="st34" d="M391,343.1c-3.8-0.7-4.3-3.3-3.9-5.9c0.6-3.9,2.2-7.9,6.9-7.5c2.9,0.2,3.5,3.5,2.8,6.2
			C395.8,339.1,394.7,342.5,391,343.1z"/>
		<path class="st35" d="M414.8,342.5c-3.9-1.6-4.5-5-4.2-8.6c0.2-2.5,0.2-6,4.1-4.6c4,1.4,3.8,5.3,3.7,8.8
			C418.3,340.4,417.6,342.3,414.8,342.5z"/>
		<path class="st36" d="M365.7,435.3c0.9,0.9,1.8,1.9,2.7,2.8c-5.4,6-8.2,14.4-15.8,18.5C354.4,447.9,359.4,441.2,365.7,435.3z"/>
		<path class="st37" d="M402.4,358.9c0,13.4,0,26.8,0.1,40.1c-4.7-6.7-1.2-14.3-2.5-21.4C399,371.2,395.4,364.4,402.4,358.9z"/>
		<path class="st38" d="M413.1,322.4c-7.1,2.8-14.1,3.1-21.1-0.4c-0.3-0.2-0.6-0.7-0.5-1.1c0-0.4,0.4-0.7,0.6-1.1
			c2.1-2.2,4.8-2.5,7.6-2.6c2.1,0,4.2,0,6.3,0C409.3,317.7,413.4,317,413.1,322.4z"/>
		<path class="st37" d="M405.4,409.5c0-11.6,0-23.2,0.1-34.8C409,386.3,409.5,397.9,405.4,409.5z"/>
		<path class="st39" d="M451.7,380.8c2.1,0.3,3.1,1.7,2.9,3.5c-0.2,2.5-1.9,3.8-4.4,3.1c-2-0.5-2.6-2.1-2.2-4
			C448.4,381.4,449.9,380.8,451.7,380.8z"/>
		<path class="st39" d="M354.8,384.1c-0.3,1.8-1,3.4-3.1,3.5c-2.6,0.1-4-1.3-3.8-3.9c0.2-2.1,1.8-2.9,3.6-2.9
			C353.5,380.9,354.5,382.2,354.8,384.1z"/>
		<path class="st40" d="M402.4,358.9c-4.1,5.8-1.3,12.5-2.4,18.7c-4.1-6.9-3.9-13.9-0.2-20.9C400.7,357.5,401.5,358.2,402.4,358.9z"
			/>
		<path class="st41" d="M413.1,353.9c0.1-0.8,0.1-1.7,0-2.5c4.2-2.1,8.5-3.9,13.7-1.7C423.2,354.7,418,353.9,413.1,353.9z"/>
		<path class="st42" d="M263.4,488.2c3.8,4.6,3.8,9-0.6,13.3c-0.7-0.1-1.4-0.2-2.1-0.4c-1.7-2.7-2.4-5.3,0.5-7.6
			C261.9,491.7,262.7,490,263.4,488.2z"/>
		<path class="st43" d="M319.2,380.8c1.8,0.1,3.8,0.3,3.4,2.6c-0.3,1.4-1.7,3-3,3.6c-1.7,0.7-3.3-0.4-3.3-2.5
			C316.4,382.5,317.1,381.1,319.2,380.8z"/>
		<path class="st43" d="M486.4,384c-0.2,1.9-1.2,3.6-3,3.1c-1.4-0.4-3-2-3.3-3.3c-0.5-1.9,1.2-3.1,3.1-3
			C485,380.8,486.1,382.1,486.4,384z"/>
		<path class="st43" d="M328.3,411.3c-1.9,0.2-3.4-0.4-3.9-2.4c-0.5-1.8-0.1-3.5,2-3.9c1.9-0.3,3.2,0.9,3.9,2.6
			C331.2,409.6,330.4,410.9,328.3,411.3z"/>
		<path class="st43" d="M475.2,411.4c-1.9-0.2-3.6-1.2-3.1-3c0.4-1.4,2-3,3.4-3.3c1.9-0.5,3.1,1.2,3,3.1
			C478.4,410,477.1,411.1,475.2,411.4z"/>
		<path class="st44" d="M460.6,482.7c0.2-4.6-0.5-9-2.5-13.2c1-0.8,0.9-2.5,2.6-2.6c4,3.8,1.9,8.8,2.5,13.3
			C462.3,481,461.4,481.9,460.6,482.7z"/>
		<path class="st45" d="M394.7,351.2c0,0.9,0,1.8,0.1,2.8c-4.4-0.9-8.7-1.8-13.1-2.7c-0.6-2.3-0.2-3.6,2.6-2.6
			C387.8,349.1,391.9,347.6,394.7,351.2z"/>
		<path class="st46" d="M350,474.8c-0.8,2.7-1.7,5.3-2.5,8c-0.9,0-1.8,0-2.6,0c0.3-3.7-1.1-7.7,2.5-10.6
			C348.9,472.4,349,474.1,350,474.8z"/>
		<path class="st47" d="M460.7,466.9c-0.9,0.9-1.7,1.8-2.6,2.6c0.6-3.6-4.9-7.1-0.2-10.8C460.6,460.8,460.6,463.9,460.7,466.9z"/>
		<path class="st48" d="M400.1,319.7c-2.7,0-5.3,0.1-8,0.1c-1.2-2.2-3.4-2.5-5.6-2.8c2.4-2.4,5.3-2.6,8.4-2.2
			C396.3,316.8,401.4,314.8,400.1,319.7z"/>
		<path d="M447.4,446c0.8-0.8,1.7-1.7,2.5-2.5c1.7,2.5,3.5,5.1,5.2,7.6C450.9,451.8,448.9,449.3,447.4,446z"/>
		<path class="st30" d="M384.2,348.7c-0.9,0.9-1.7,1.7-2.6,2.6c-2.5-0.3-6.9-1-5.6-3.4C377.8,344.3,381.6,345.9,384.2,348.7z"/>
		<path class="st48" d="M413.1,322.4c-1.9-3.1-5-2.5-7.9-2.7c2.1-6.8,6.8-3.5,10.8-2.6c0,0,0-0.2,0-0.2
			C415.8,319.1,415.5,321.3,413.1,322.4z"/>
		<path class="st49" d="M261.2,493.4c-0.2,2.5-0.3,5.1-0.5,7.6c-4.3-3.3-3.6-6.7-0.3-10.3C260.7,491.7,260.9,492.6,261.2,493.4z"/>
		<path class="st50" d="M350,474.8c-0.9-0.9-1.8-1.7-2.6-2.6c0.1-3.7-0.1-7.8,5.4-7.8C351.8,467.9,350.9,471.4,350,474.8z"/>
		<path class="st20" d="M262.4,272.9c0,0-0.9,0-0.9,0c-2-0.4-4-0.8-5.9-1.2c0-0.4,0-0.8,0.1-1.2c4.2,0,8.3,0,12.7,0
			C267.2,273.7,264.2,271.8,262.4,272.9z"/>
		<path class="st51" d="M186.7,335.2c0.3-3.3,0.5-6.6,0.8-9.9C190.1,328.8,191.7,332.2,186.7,335.2z"/>
		<path class="st20" d="M546.4,272.9c0,0-0.9,0-0.9,0c-2-0.4-4-0.8-5.9-1.2c0-0.4,0-0.8,0.1-1.2c4.2,0,8.3,0,12.7,0
			C551.2,273.7,548.2,271.8,546.4,272.9z"/>
		<path class="st51" d="M615.2,325.3c0.3,3.3,0.5,6.6,0.8,9.9C610.9,332.2,612.5,328.8,615.2,325.3z"/>
		<path class="st52" d="M546.5,298.9c-0.9,7.7-4.5,12.7-12.4,12.7c-7.2,0-11.4-4.3-11.7-11.4c-0.3-7,3.5-11.7,10.7-12.3
			C541,287.1,544.8,292,546.5,298.9z"/>
		<path class="st53" d="M285.7,299c-0.7,7.6-4.3,12.5-12.2,12.6c-7.2,0-11.6-4.4-11.8-11.3c-0.3-7.5,4.1-12.3,12-12.4
			C280.9,287.8,284.5,292.3,285.7,299z"/>
		<path class="st54" d="M416,317c-3.7,0.5-7.9-1-10.8,2.7c-1.7,0-3.4,0-5.2,0c-1.7-1.6-3.5-3.2-5.2-4.9
			C402,314.6,409.5,311.3,416,317z"/>
		<path class="st55" d="M408.2,582.8c0,1.7,0.1,3.3,0.1,5c-3.5,2.8-4.8,9.1-10.6,7.9c-3.3-0.7-3.2-4.6-2.9-7.7
			c0.2-0.8,0.2-1.5,0.2-2.3c-2.1-3.5-4.1-7.1-5.4-11.1c1.7-3.4,3.4-6.8,5.2-10.2c7.3,0.2,16.1-3.3,18.7,8c1.5,2.5,1,4.5-1.5,6
			c-1,1.7-6.8-3.6-4.3,3.1C407.9,581.8,408.1,582.3,408.2,582.8z"/>
		<path class="st56" d="M394.8,587.9c4.7,11.6,9-2.8,13.5-0.2c0.8,0.1,1.4,0.4,2,0.8c0.1,3.6-8.1,7.3,0.1,10.9c0,0.6,0,1.1,0,1.7
			c-12.4,0.1-24.2-1.4-31.7-13.1c-2.1,0.6-2.9-0.3-2.6-2.4c-2.5-4.3-6.7-2.6-10.3-2.8c-1-0.1-1.9-0.1-2.9-0.2
			c10.2-7.3,16.9-0.2,23.7,6c2.5,2.4,5,2.9,7.6,0.1L394.8,587.9z"/>
		<path class="st57" d="M394.4,588.8c-0.2,2.6,2.7,6.5-2.6,6.9c-5.1,0.3-5.4-3.2-4.9-7C389.3,588.7,391.8,588.7,394.4,588.8z"/>
		<path class="st58" d="M389.6,574.6c1.8,3.7,6.6,5.9,5.4,11.1C390,583.5,389.1,579.4,389.6,574.6z"/>
		<path class="st59" d="M376.2,585.7c0.9,0.8,1.7,1.6,2.6,2.4c0.2,4.3,0.6,8.9-5.4,9.5c-2.3,0.2-3.9-1.8-4.3-3.9
			C368.2,588.2,371,585.8,376.2,585.7z"/>
		<path class="st60" d="M433.2,632.5c-0.2,2.9-1.9,4.6-4.7,5c-3.2,0.4-4.6-1.6-4.7-4.5c-0.1-2.8,0.9-5.1,4.2-5.1
			C430.9,627.9,432.6,629.6,433.2,632.5z"/>
		<path class="st61" d="M397.4,610c1.9,0,3.4,0.8,3.6,2.7c0.1,1.9-1.3,3.2-3.1,3.3c-0.9,0-2.2-1.2-2.6-2.1
			C394.7,612.2,395.2,610.6,397.4,610z"/>
		<path class="st62" d="M424.3,615.2c1.2,0.9,2.6,1.3,3,2.2c0.8,2-0.5,3.3-2.3,3.4c-0.8,0-2.2-1.4-2.4-2.3
			C422.4,617.7,423.5,616.6,424.3,615.2z"/>
		<path class="st63" d="M410.5,601.2c0-0.6,0-1.1,0-1.7c2.7-1,5.4-2,8-3C417.9,601.6,415.6,603.9,410.5,601.2z"/>
		<path class="st64" d="M410.9,578c0.8-1.9,1.7-3.7,2.5-5.6c4.6,6.7,1,9.2-5.2,10.4c0,0-1.1,0-1.1,0
			C406.7,579.9,408.1,578.3,410.9,578z"/>
		<path class="st65" d="M407.9,416.5c6.9,3.7,16.4,3.8,18.9,13.7c-19-8.7-36.4-0.6-54,5.2C382.1,424.7,393.4,417.6,407.9,416.5z"/>
		<path class="st66" d="M410.9,578c-1.3,1.6-2.6,3.2-3.8,4.8c-3.8-1-8.4-2.7-5.3-7.3C405.6,569.7,408.5,574.3,410.9,578z"/>
	</g>
</g>
</svg>
