<?xml version="1.0" encoding="utf-8"?>
<!-- Generator: Adobe Illustrator 21.1.0, SVG Export Plug-In . SVG Version: 6.00 Build 0)  -->
<svg version="1.1" id="Layer_1" xmlns="http://www.w3.org/2000/svg" xmlns:xlink="http://www.w3.org/1999/xlink" x="0px" y="0px"
	 viewBox="0 0 800 800" style="enable-background:new 0 0 800 800;" xml:space="preserve">
<style type="text/css">
	.st0{fill:#FEFEFE;}
	.st1{fill:#2F4F79;}
	.st2{fill:#556F91;}
	.st3{fill:#4A668A;}
	.st4{fill:#4C678C;}
	.st5{fill:#61799A;}
	.st6{fill:#92A3B9;}
	.st7{fill:#7C90AB;}
	.st8{fill:#1E416F;}
</style>
<g>
	<path class="st0" d="M8,388.7c0-45.6,0.1-91.3-0.1-136.9c0-4.4,0.8-5.4,5.3-5.4c39.2,0.2,78.4,0.1,117.6,0.1
		c3.2,3.7,2.2,8.2,2.2,12.4c0.1,61,0,122,0.1,183.1c0,4-0.4,8.1,0.9,12c5.3,27.6,19.4,39.3,47.5,39c8.9-0.1,17.7-1.8,26.4-3.4
		c4.9-0.9,7.7-3.5,7.7-8.7c0-6.2,0.1-12.4,0-18.6c-0.1-4.1-2-5.9-6.1-5.3c-2.4,0.3-4.8,0.4-7.3,0.4c-14.2,0-21.9-6.9-23.4-21.1
		c-0.3-2.4-0.2-4.8-0.2-7.3c0-56.8,0-113.6,0-170.5c0-3.2-0.2-6.5,0.8-9.6c0.4-0.9,1-1.7,1.6-2.4c201.2,0,402.4,0,603.6-0.2
		c6.1,0,7.5,1.4,7.4,7.4c-0.3,45-0.2,90-0.2,134.9c-1.5,1.3-3.2,1.9-5.1,1.8c-12-2.7-17.7-9.4-19.6-22.3
		c-2.7-17.7-1.4-35.4-1.7-53.1c-0.1-4.8,0-9.7-1.1-14.4c-4.1-18.1-14.3-30.2-32.7-35c-6.8-1.8-13.8-2.3-20.7-3.4
		c-1.6-0.2-3.6-0.5-4.7,0.6c-4.7,5-2,11.2-2.4,16.9c-0.3,3.7,0.6,7.1,5,8.1c18.1,4.1,22.2,17.5,22.4,33.5
		c0.1,12.9-0.3,25.8,0.1,38.7c0.5,15.3,4.3,29.3,17,39.3c4.4,3.5,3.9,6.7-0.1,9.8c-13.7,10.6-17.1,25.4-17,41.6
		c0,12.4,0.4,24.8-0.2,37.1c-0.9,18.6-6.7,25.7-22.9,29.1c-4.9,0.8-4.1,4.7-4.5,8.1c-0.7,6.8,2,13.9-2.2,20.3
		c-199.9,0-399.7,0-599.6,0c-4.1-6.4-1.5-13.5-2.2-20.3c-0.3-3.4,0.4-7.2-4.5-8.1c-14.4-3.1-19.1-8.1-21.6-22.2
		c-2.6-14.4-1.3-29-1.4-43.5c-0.1-17.6-4-33.1-20.4-42.9c-4.6-2.7-4.1-5.9,0.1-8.6c15.7-9.9,20.1-25.1,20.1-42.4c0-11,0-22.1,0-33.1
		c0-5.4,0.8-10.7,2-16c2.2-10.1,7.9-17.2,18.1-19.6c6-1.4,7.5-4.8,7.5-10.3c0.2-16.6,0.3-16.6-16.3-15.3c-8.4,0.7-16.4,3-24.1,6.4
		c-17.8,8-23.4,23.7-24.5,41.4c-0.8,13.4-0.2,26.9-0.2,40.3c0,7.3-0.9,14.5-2.7,21.6c-2.5,9.6-8.1,16.3-18.7,17.6
		C11.2,390.7,9.5,390,8,388.7z"/>
	<path class="st0" d="M82.4,545.5c-23.2,0-46.3-0.1-69.5,0.1c-4,0-5-0.9-5-5C8.1,500.3,8,459.9,8,419.5c0.7-0.6,1.5-1.1,2.3-1.4
		c11,0,19.2,6.4,21.9,17.5c1.5,6,2.4,12.1,2.3,18.3c-0.1,12.9-0.1,25.8,0,38.7c0.2,27.4,10.9,40.9,37.4,47.7c3.4,0.9,6.9,1.1,10,3
		C82.8,543.8,82.9,544.6,82.4,545.5z"/>
	<path class="st0" d="M791.8,419.5c0,40.4-0.1,80.8,0.1,121.2c0,4-0.9,5-5,5c-22.6-0.2-45.2-0.1-67.9-0.1c-0.5-0.9-0.4-1.7,0.4-2.4
		c3.8-2.2,8.2-2.4,12.3-3.6c21.8-6.1,32.8-19.9,33.4-42.7c0.3-12.9,0.1-25.8,0.1-38.7c0-7.6,1-15.1,2.6-22.4
		c2.5-11.5,10.3-17.6,21.6-17.7C790.4,418.4,791.1,418.9,791.8,419.5z"/>
	<path class="st1" d="M132.3,455.3c-2-4.3-1.2-9-1.2-13.5c-0.1-65.1-0.2-130.2-0.2-195.3c16.7,0,33.4,0,50.1,0
		c-0.1,0.5-0.2,1.1-0.2,1.6c-3.1,2.9-7,2.5-10.7,2.5c-9.2,0.2-18.3,0-27.5,0.1c-5,0-7.4,2.2-7.4,7.3c0,3-0.1,5.9-0.1,8.9
		c0,58.2,0,116.3-0.1,174.5C135,446.2,136.2,451.3,132.3,455.3z"/>
	<path class="st2" d="M95.3,515.1c4.8-1.1,6.8,0.6,6.6,5.7c-0.3,8.2-0.1,16.5-0.1,24.7c-3.8,0-7.5,0-11.3,0
		c-0.5-0.8-0.5-1.5,0.2-2.2c7.3-3.5,10-13.7,6.3-23.9C96.4,518,95,516.8,95.3,515.1z"/>
	<path class="st3" d="M701.3,545.5c0.1-8.2,0.3-16.3,0.1-24.5c-0.1-4.8,1.3-7.1,6.3-5.9c-3.1,5.6-2.5,11.8-2.8,17.9
		c-0.2,4.9,1.2,8.4,5.8,10.3c0.6,0.7,0.7,1.4,0.1,2.2C707.8,545.5,704.6,545.5,701.3,545.5z"/>
	<path class="st4" d="M791.8,419.5c-0.6-0.1-1.1-0.2-1.7-0.3c-2.5-2.5-2.2-5.8-2.2-8.9c0.1-7.1-0.2-14.1-1-21.2
		c1.6-0.1,3.3-0.2,4.9-0.3C791.8,399,791.8,409.2,791.8,419.5z"/>
	<path class="st5" d="M9.8,419.1c-0.6,0.1-1.2,0.2-1.7,0.3c0-10.2,0-20.5,0-30.7c1.6,0.1,3.3,0.1,4.9,0.2c-0.7,7.6-1.1,15.2-1,22.8
		C11.9,414.4,11.8,417.1,9.8,419.1z"/>
	<path class="st6" d="M90.3,544.1c0.1,0.5,0.1,0.9,0.2,1.4c-2.7,0-5.4,0-8.1,0c0.1-0.5,0.1-1-0.1-1.4
		C84.9,541.6,87.6,541.6,90.3,544.1z"/>
	<path class="st7" d="M711,545.5c0-0.5,0.1-1,0.2-1.4c2.7-2.5,5.4-2.5,8.1,0c-0.1,0.5-0.2,0.9-0.2,1.4
		C716.4,545.5,713.7,545.5,711,545.5z"/>
	<path class="st8" d="M373.4,445.1c0,12-0.2,22.5,0.1,33c0.1,3.9-1.4,5.9-4.8,7.3c-30.9,12.2-62.4,15.1-93.6,2.8
		c-27.8-11-40.6-34.1-43.6-62.8c-2.2-21.4-0.3-42.5,10.6-61.8C267,319,319.8,315,351.5,332.1c22.7,12.2,32.2,33,34.6,57.6
		c0.8,8.3,0.1,16.7,0.7,25c0.4,6.2-1.3,8.2-7.8,8.1c-30.1-0.4-60.3,0.1-90.4-0.3c-7.7-0.1-8.2,2.7-6.5,8.8
		c4.4,16.1,16,25.4,34.1,27.1C336.1,460.2,355,456.8,373.4,445.1z"/>
	<path class="st8" d="M406.8,442.2c9.8,5.3,18.4,10.6,28.3,13.4c13.2,3.8,26.5,4.4,39.8,0.9c4.8-1.3,9.2-3.4,10.1-9.2
		c0.9-6.1-2.7-9.5-7.3-12.3c-7.2-4.4-15.4-6.3-23.2-9c-8.2-2.8-16.2-5.8-23.7-10c-31.1-17.3-32.8-59.6-3.2-79.6
		c16.1-10.9,34.5-13.2,53.2-13.5c13.7-0.3,27.3,1.8,40.7,5.5c3.4,0.9,5,2.2,4.9,5.9c-0.2,10.2-0.2,20.5,0,30.7
		c0.1,5-1.9,4.4-5.3,2.8c-13.7-6.2-28.1-9-43.2-8.1c-3.7,0.2-7.5,0.7-11.1,1.8c-4.4,1.3-8.9,3.1-9.8,8.5c-0.9,5.9,2.4,9.6,7,12.6
		c5.7,3.7,12.2,5.6,18.6,7.7c10.2,3.3,20.2,7.1,29.8,12.2c31.2,16.6,27.7,58,6.6,75.3c-13.8,11.3-30,15.4-47,17.1
		c-20.3,2-40.3,0-59.7-6.6c-2.8-1-5.5-1.5-5.4-5.7C406.9,469.4,406.8,456.3,406.8,442.2z"/>
	<path class="st8" d="M552.6,441.7c18.8,12.5,37.7,19.1,59.1,16.7c11.7-1.3,19-5,19.3-11.3c0.5-10.1-7.9-12.7-15-15.5
		c-11.9-4.8-24.5-7.9-36.2-13.7c-17.5-8.7-27.3-22.1-27.3-42.1c0-19.8,9.3-34.2,26.7-42.6c29.2-14.2,59.5-11.9,89.9-4.2
		c3.4,0.9,2.9,3.3,2.9,5.7c0,10-0.2,19.9,0.1,29.9c0.1,5-1.4,5.2-5.5,3.4c-13.7-6.3-28.1-9-43.2-8.1c-2.9,0.2-5.9,0.6-8.7,1.3
		c-5.3,1.2-10.9,2.8-12,9.1c-1.2,7,3.8,10.8,9.2,13.7c9.8,5.2,20.8,7.3,30.9,11.4c12.3,5,24.4,10.5,31.8,22.3
		c12.8,20.3,6.4,48.6-14,63.1c-13,9.2-27.9,12.5-43.2,14c-20.3,2-40.3-0.1-59.7-6.6c-3.4-1.1-5.4-2.3-5.3-6.5
		C552.8,468.8,552.6,455.9,552.6,441.7z"/>
	<path class="st8" d="M132.3,455.3c0.1-65.5,0.1-131.1,0.2-196.6c0-10.5,0-10.6,10.3-10.6c12.6,0,25.2,0,37.9,0
		c0.1,57.9,0.2,115.8,0.3,173.7c0,4-0.1,8.1,0,12.1c0.4,15.7,7.8,22.4,23.5,21.3c13.1-0.9,13.1-0.9,13.1,12.6c0,1.6,0,3.2,0,4.8
		c0,18.6,0,18.6-18.8,21c-11.2,1.4-22.4,3-33.7,0.4C146.4,489.8,133.6,474.7,132.3,455.3z"/>
	<path class="st8" d="M90.3,544.1c-2.7,0-5.4,0-8-0.1c-4.5-0.8-9.1-1.2-13.5-2.3c-23.2-5.9-35.1-20-36.3-44.2
		c-0.8-14.5-0.3-29.1-0.6-43.6c-0.1-4.6-0.3-9.2-0.9-13.7c-1.8-13.6-7.5-19.1-21.2-21.2c0-7.5,0-15.1-0.2-22.6
		c-0.1-3.2,0.4-5.8,3.3-7.5c11.2-2.1,16.1-9.7,17.8-20.2c2.2-13.4,0.8-26.8,1.2-40.3c0.2-7.5-0.2-15.1,0.9-22.5
		c3.9-27.8,19.1-41.6,48.5-44.8c20.3-2.2,20-2.2,20.4,18.3c0.2,7.1-0.9,10.7-9.1,11.8c-10.2,1.3-15.3,9-16.8,19
		c-1.9,12.6-0.6,25.2-1,37.9c-0.2,7.5,0,15-1.4,22.5c-2.8,14.9-9.8,26.6-25.2,33.5c24.3,11.3,26.7,32.4,26.7,54.8
		c0,11.6-0.8,23.1,0.6,34.7c1.7,13.8,6,18.4,19.8,21.5c3.4,1.5,5.6,3.5,5,7.7c-0.5,3.7-0.6,7.5,0,11.2
		C101.6,542.2,98,545.1,90.3,544.1z"/>
	<path class="st8" d="M719.3,544.1c-2.7,0-5.4,0-8.1,0c-6.4,0.7-9.1-1.9-8.2-8.6c0.5-4.2,0.5-8.5,0-12.7c-0.5-4.2,1.4-6.3,4.8-7.8
		c14.8-3.2,19.9-8.9,20.5-25.3c0.6-13.7,0.1-27.4,0.4-41.2c0.1-5.1,0.7-10.2,1.7-15.2c2.4-12.5,8.6-22.5,21.2-28.8
		c-19.2-11.2-22.5-29.3-23-48.6c-0.3-12.1-0.1-24.2-0.2-36.3c-0.1-15.8-5.6-29-23.4-29.8c-3.6-0.2-3.4-2.7-3.4-5.1
		c0-5.1,0-10.2,0-15.3c0-10.4,0-10.5,10.8-9.3c5.1,0.6,10.2,1.1,15.1,2.1c25.2,5.3,37.9,19.9,39.9,45.7c1.5,19.6-0.6,39.3,1.5,58.9
		c1.2,11.1,6,19.5,17.9,21.9c2.8,1.8,3.4,4.4,3.3,7.6c-0.2,7.5-0.1,15-0.2,22.5c-13.7,2.2-19.6,8.2-21.2,22.1
		c-1.5,13.1-0.4,26.3-0.8,39.5c-0.2,7.2,0,14.6-1,21.7C763.2,529,748.6,541.6,719.3,544.1z"/>
	<path class="st0" d="M310.3,392.5c-8.3,0-16.7,0-25,0c-2.8,0-4.4-0.4-4.2-4c0.9-13.1,15.4-27.9,28.6-28.9
		c18.4-1.3,30.3,10.1,30.4,28.5c0,4-1.7,4.4-4.8,4.4C327,392.5,318.6,392.5,310.3,392.5z"/>
</g>
</svg>
