<?xml version="1.0" encoding="utf-8"?>
<!-- Generator: Adobe Illustrator 21.1.0, SVG Export Plug-In . SVG Version: 6.00 Build 0)  -->
<svg version="1.1" id="Layer_1" xmlns="http://www.w3.org/2000/svg" xmlns:xlink="http://www.w3.org/1999/xlink" x="0px" y="0px"
	 viewBox="0 0 634 758" style="enable-background:new 0 0 634 758;" xml:space="preserve">
<style type="text/css">
	.st0{fill:#FFFFFF;}
</style>
<g>
	<g>
		<g>
			<path class="st0" d="M318,462.2c-5.9,0-10.7,4.8-10.7,10.7c0,5.9,4.8,10.7,10.7,10.7h0.1c5.9,0,10.6-4.8,10.6-10.7
				C328.7,467,323.9,462.2,318,462.2z"/>
		</g>
	</g>
	<g>
		<g>
			<path class="st0" d="M101.6,422.7c-2-2-4.7-3.1-7.5-3.1c-2.8,0-5.6,1.1-7.5,3.1c-2,2-3.1,4.7-3.1,7.5c0,2.8,1.1,5.6,3.1,7.5
				c2,2,4.7,3.1,7.5,3.1c2.8,0,5.6-1.1,7.5-3.1c2-2,3.1-4.7,3.1-7.5S103.6,424.6,101.6,422.7z"/>
		</g>
	</g>
	<g>
		<g>
			<path class="st0" d="M545.2,127.3H88.8c-24.7,0-44.8,20.1-44.8,44.8v300.8c0,29.4,23.9,53.3,53.3,53.3h162.1v40.5h-14.9
				c-24.7,0-44.8,20.1-44.8,44.8v8.5c0,5.9,4.8,10.7,10.7,10.7h213.3c5.9,0,10.7-4.8,10.7-10.7v-8.5c0-24.7-20.1-44.8-44.8-44.8
				h-14.9v-40.5h162.1c29.4,0,53.3-23.9,53.3-53.3V172.1C590,147.4,569.9,127.3,545.2,127.3z M389.5,588c12.2,0,22.3,9.4,23.4,21.3
				H221.1c1.1-11.9,11.1-21.3,23.4-21.3H389.5z M280.7,566.7v-40.5h72.5v40.5H280.7z M568.7,472.8c0,17.6-14.4,32-32,32H97.3
				c-17.6,0-32-14.4-32-32V172.1c0-12.9,10.5-23.5,23.5-23.5h217.6v270.9H132.5c-5.9,0-10.7,4.8-10.7,10.7s4.8,10.7,10.7,10.7h436.2
				V472.8z M568.7,419.5h-241V148.6h217.6c12.9,0,23.5,10.5,23.5,23.5V419.5z"/>
		</g>
	</g>
	<g>
		<g>
			<path class="st0" d="M526.2,170H359.8c-5.9,0-10.7,4.8-10.7,10.7v76.8c0,5.9,4.8,10.7,10.7,10.7h166.4c5.9,0,10.7-4.8,10.7-10.7
				v-76.8C536.8,174.7,532.1,170,526.2,170z M515.5,246.8h-145v-55.5h145V246.8z"/>
		</g>
	</g>
	<g>
		<g>
			<path class="st0" d="M177.9,287.3h-69.5c-5.9,0-10.7,4.8-10.7,10.7c0,5.9,4.8,10.7,10.7,10.7h69.5c5.9,0,10.7-4.8,10.7-10.7
				C188.6,292.1,183.8,287.3,177.9,287.3z"/>
		</g>
	</g>
	<g>
		<g>
			<path class="st0" d="M267.7,287.3h-53.1c-5.9,0-10.7,4.8-10.7,10.7c0,5.9,4.8,10.7,10.7,10.7h53.1c5.9,0,10.7-4.8,10.7-10.7
				C278.4,292.1,273.6,287.3,267.7,287.3z"/>
		</g>
	</g>
	<g>
		<g>
			<path class="st0" d="M267.7,372.6h-19.9c-5.9,0-10.7,4.8-10.7,10.7c0,5.9,4.8,10.7,10.7,10.7h19.9c5.9,0,10.7-4.8,10.7-10.7
				C278.4,377.4,273.6,372.6,267.7,372.6z"/>
		</g>
	</g>
	<g>
		<g>
			<path class="st0" d="M205.3,372.6h-97c-5.9,0-10.7,4.8-10.7,10.7s4.8,10.7,10.7,10.7h97c5.9,0,10.7-4.8,10.7-10.7
				S211.2,372.6,205.3,372.6z"/>
		</g>
	</g>
	<g>
		<g>
			<path class="st0" d="M143.1,329.9h-34.8c-5.9,0-10.7,4.8-10.7,10.7c0,5.9,4.8,10.7,10.7,10.7h34.8c5.9,0,10.7-4.8,10.7-10.7
				C153.8,334.7,149,329.9,143.1,329.9z"/>
		</g>
	</g>
	<g>
		<g>
			<path class="st0" d="M267.7,329.9h-73.4c-5.9,0-10.7,4.8-10.7,10.7c0,5.9,4.8,10.7,10.7,10.7h73.4c5.9,0,10.7-4.8,10.7-10.7
				C278.4,334.7,273.6,329.9,267.7,329.9z"/>
		</g>
	</g>
	<g>
		<g>
			<path class="st0" d="M526.2,287.3H360.3c-5.9,0-10.7,4.8-10.7,10.7c0,5.9,4.8,10.7,10.7,10.7h165.9c5.9,0,10.7-4.8,10.7-10.7
				C536.8,292.1,532.1,287.3,526.2,287.3z"/>
		</g>
	</g>
	<g>
		<g>
			<path class="st0" d="M533.7,375.7c-2-2-4.7-3.1-7.5-3.1c-2.8,0-5.6,1.1-7.5,3.1c-2,2-3.1,4.7-3.1,7.5c0,2.8,1.1,5.6,3.1,7.5
				c2,2,4.7,3.1,7.5,3.1c2.8,0,5.5-1.1,7.5-3.1c2-2,3.1-4.7,3.1-7.5C536.8,380.5,535.7,377.7,533.7,375.7z"/>
		</g>
	</g>
	<g>
		<g>
			<path class="st0" d="M482.8,372.6H360.3c-5.9,0-10.7,4.8-10.7,10.7s4.8,10.7,10.7,10.7h122.6c5.9,0,10.7-4.8,10.7-10.7
				S488.7,372.6,482.8,372.6z"/>
		</g>
	</g>
	<g>
		<g>
			<path class="st0" d="M526.2,329.9H360.3c-5.9,0-10.7,4.8-10.7,10.7c0,5.9,4.8,10.7,10.7,10.7h165.9c5.9,0,10.7-4.8,10.7-10.7
				C536.8,334.7,532.1,329.9,526.2,329.9z"/>
		</g>
	</g>
	<g>
		<g>
			<path class="st0" d="M123.4,214.8l20.1-20.1c4.2-4.2,4.2-10.9,0-15.1c-4.2-4.2-10.9-4.2-15.1,0l-27.6,27.6
				c-4.2,4.2-4.2,10.9,0,15.1l27.6,27.6c2.1,2.1,4.8,3.1,7.5,3.1s5.5-1,7.5-3.1c4.2-4.2,4.2-10.9,0-15.1L123.4,214.8z"/>
		</g>
	</g>
	<g>
		<g>
			<path class="st0" d="M270.8,207.2l-27.6-27.6c-4.2-4.2-10.9-4.2-15.1,0c-4.2,4.2-4.2,10.9,0,15.1l20.1,20.1l-20.1,20.1
				c-4.2,4.2-4.2,10.9,0,15.1c2.1,2.1,4.8,3.1,7.5,3.1c2.7,0,5.5-1,7.5-3.1l27.6-27.6C275,218.1,275,211.4,270.8,207.2z"/>
		</g>
	</g>
	<g>
		<g>
			<path class="st0" d="M210.7,172.3c-5.1-3-11.6-1.3-14.6,3.8l-39,66.4c-3,5.1-1.3,11.6,3.8,14.6c1.7,1,3.6,1.5,5.4,1.5
				c3.7,0,7.2-1.9,9.2-5.3l39-66.4C217.5,181.9,215.8,175.3,210.7,172.3z"/>
		</g>
	</g>
</g>
</svg>
