<?xml version="1.0" encoding="utf-8"?>
<!-- Generator: Adobe Illustrator 21.1.0, SVG Export Plug-In . SVG Version: 6.00 Build 0)  -->
<svg version="1.1" id="Layer_1" xmlns="http://www.w3.org/2000/svg" xmlns:xlink="http://www.w3.org/1999/xlink" x="0px" y="0px"
	 viewBox="0 0 634 758" style="enable-background:new 0 0 634 758;" xml:space="preserve">
<style type="text/css">
	.st0{fill:#FFFFFF;}
</style>
<g>
	<g>
		<g>
			<path class="st0" d="M581.9,296.2l-29.9-7.5c-4.8-20.3-12.7-39.5-23.7-57.2l15.9-26.4c2.5-4.2,1.9-9.6-1.6-13l-38.5-38.5
				c-3.5-3.5-8.8-4.1-13-1.6l-26.4,15.9c-17.8-11-37-18.9-57.2-23.7l-7.5-29.9c-1.2-4.8-5.4-8.1-10.3-8.1h-54.4
				c-4.9,0-9.2,3.3-10.3,8.1l-7.5,29.9c-20.3,4.8-39.5,12.7-57.2,23.7l-26.4-15.9c-4.2-2.5-9.6-1.9-13,1.6L182.1,192
				c-3.5,3.5-4.1,8.8-1.6,13l15.9,26.4c-6.6,10.7-12.2,22.1-16.6,33.8c-2.1,5.5,0.7,11.7,6.2,13.7c5.5,2.1,11.7-0.7,13.7-6.2
				c4.6-12.4,10.7-24.2,18.1-35.2c2.3-3.4,2.4-7.9,0.3-11.4l-15-25l26.7-26.7l25,15c3.5,2.1,8,2,11.4-0.3
				c18.9-12.6,39.8-21.3,62-25.7c4-0.8,7.3-3.9,8.3-7.9l7-28.3h37.8l7,28.3c1,4,4.2,7.1,8.3,7.9c22.2,4.4,43.1,13.1,62,25.7
				c3.4,2.3,7.9,2.4,11.4,0.3l25-15l26.7,26.7l-15,25c-2.1,3.5-2,8,0.3,11.4c12.6,18.9,21.3,39.8,25.7,62c0.8,4,3.9,7.3,7.9,8.3
				l28.3,7v37.8l-28.3,7c-4,1-7.1,4.2-7.9,8.3c-4.4,22.2-13.1,43.1-25.7,62c-2.3,3.4-2.4,7.9-0.3,11.4l15,25L494.9,493l-25-15
				c-3.5-2.1-8-2-11.4,0.3c-13.5,9-28.1,16-43.5,20.9v-38.7c50.9-21.2,84.6-71.1,84.6-126.7c0-61.2-40.3-113.2-95.7-130.8
				c-0.3-0.1-0.7-0.2-1-0.3c-12.8-4-26.4-6.1-40.5-6.1c-59.9,0-112.5,38.7-130.7,95.1H88.8c-24.7,0-44.8,20.1-44.8,44.8v270.8
				c0,24.7,20.1,44.8,44.8,44.8h281.5c24.7,0,44.8-20.1,44.8-44.8v-85.8c17.5-4.9,34.1-12.2,49.6-21.7l26.4,15.9
				c4.2,2.5,9.6,1.9,13-1.6l38.5-38.5c3.5-3.5,4.1-8.8,1.6-13L528.3,436c11-17.8,18.9-37,23.7-57.2l29.9-7.5
				c4.8-1.2,8.1-5.4,8.1-10.3v-54.4C590,301.6,586.7,297.3,581.9,296.2z M362.3,217.8c1.4,0,2.8,0,4.3,0.1l-2.2,1.1
				c-9.2,4.7-15.1,13.6-15.7,24c-0.6,10.3,4.2,19.9,12.9,25.6c2.1,1.4,3.3,3.6,3.3,6.1v16.9h-38.8c4-5.4,5.8-12,5.1-18.8
				c-0.9-8.8-5.8-16.3-13.4-20.7c-1.4-0.8-2.5-2.2-2.8-3.9l-3.8-18.5C326.7,222,344.1,217.8,362.3,217.8z M291.9,241.6l2.2,10.8
				c1.6,7.6,6.3,14.1,13,18c2.2,1.3,2.8,3.3,2.9,4.5c0.1,1.1,0,3.2-1.9,4.9L295,291.6h-40.7C262.1,271.4,275.3,254.3,291.9,241.6z
				 M393.7,607.2c0,12.9-10.5,23.5-23.5,23.5H88.8c-12.9,0-23.5-10.5-23.5-23.5V389.7h328.4V607.2z M393.7,368.3H65.3v-32
				c0-12.9,10.5-23.5,23.5-23.5h281.5c12.9,0,23.5,10.5,23.5,23.5L393.7,368.3L393.7,368.3z M386.2,294.5v-19.9
				c0-9.7-4.8-18.6-12.9-23.9c-3.2-2.1-3.4-5.3-3.3-6.5c0.1-1.3,0.6-4.4,4-6.1l26.9-13.6c45,15.9,77.3,58.9,77.3,109.3
				c0,23.5-7.1,45.8-19.6,64.4l-3.8-10.6c-6.1-17.3-21.9-29.2-39.9-30.8v-20.4C415,317.3,403.1,301,386.2,294.5z M415,378.3
				c9,1.5,16.7,7.7,19.8,16.5l8,22.5c-8.1,7.9-17.5,14.6-27.8,19.8L415,378.3L415,378.3z"/>
		</g>
	</g>
	<g>
		<g>
			<path class="st0" d="M358.5,330H231.7c-5.9,0-10.7,4.8-10.7,10.7c0,5.9,4.8,10.7,10.7,10.7h126.8c5.9,0,10.7-4.8,10.7-10.7
				C369.2,334.7,364.4,330,358.5,330z"/>
		</g>
	</g>
	<g>
		<g>
			<path class="st0" d="M145.3,333.1c-2-2-4.7-3.1-7.5-3.1c-2.8,0-5.6,1.1-7.5,3.1c-2,2-3.1,4.7-3.1,7.5s1.1,5.6,3.1,7.5
				c2,2,4.7,3.1,7.5,3.1c2.8,0,5.6-1.1,7.5-3.1c2-2,3.1-4.7,3.1-7.5C148.4,337.8,147.3,335.1,145.3,333.1z"/>
		</g>
	</g>
	<g>
		<g>
			<path class="st0" d="M104.8,333.1c-2-2-4.7-3.1-7.5-3.1c-2.8,0-5.6,1.1-7.5,3.1c-2,2-3.1,4.7-3.1,7.5s1.1,5.6,3.1,7.5
				c2,2,4.7,3.1,7.5,3.1c2.8,0,5.6-1.1,7.5-3.1c2-2,3.1-4.7,3.1-7.5S106.8,335.1,104.8,333.1z"/>
		</g>
	</g>
	<g>
		<g>
			<path class="st0" d="M185.9,333.1c-2-2-4.7-3.1-7.5-3.1c-2.8,0-5.6,1.1-7.5,3.1c-2,2-3.1,4.7-3.1,7.5s1.1,5.6,3.1,7.5
				c2,2,4.7,3.1,7.5,3.1c2.8,0,5.6-1.1,7.5-3.1c2-2,3.1-4.7,3.1-7.5S187.8,335.1,185.9,333.1z"/>
		</g>
	</g>
	<g>
		<g>
			<path class="st0" d="M318.7,436.6h-72.2c-5.9,0-10.7,4.8-10.7,10.7c0,5.9,4.8,10.7,10.7,10.7h72.2c5.9,0,10.7-4.8,10.7-10.7
				C329.4,441.3,324.6,436.6,318.7,436.6z"/>
		</g>
	</g>
	<g>
		<g>
			<path class="st0" d="M371.9,542.1c-2-2-4.7-3.1-7.5-3.1c-2.8,0-5.6,1.1-7.5,3.1c-2,2-3.1,4.7-3.1,7.5s1.1,5.6,3.1,7.5
				c2,2,4.7,3.1,7.5,3.1c2.8,0,5.6-1.1,7.5-3.1c2-2,3.1-4.7,3.1-7.5C375,546.8,373.8,544,371.9,542.1z"/>
		</g>
	</g>
	<g>
		<g>
			<path class="st0" d="M321.9,538.9h-75.3c-5.9,0-10.7,4.8-10.7,10.7c0,5.9,4.8,10.7,10.7,10.7h75.3c5.9,0,10.7-4.8,10.7-10.7
				C332.6,543.7,327.8,538.9,321.9,538.9z"/>
		</g>
	</g>
	<g>
		<g>
			<path class="st0" d="M364.3,487.8H246.6c-5.9,0-10.7,4.8-10.7,10.7c0,5.9,4.8,10.7,10.7,10.7h117.8c5.9,0,10.7-4.8,10.7-10.7
				C375,492.5,370.2,487.8,364.3,487.8z"/>
		</g>
	</g>
	<g>
		<g>
			<path class="st0" d="M199.6,436.6H97.2c-5.9,0-10.7,4.8-10.7,10.7v102.4c0,5.9,4.8,10.7,10.7,10.7h102.4
				c5.9,0,10.7-4.8,10.7-10.7V447.2C210.3,441.4,205.5,436.6,199.6,436.6z M188.9,538.9h-81v-81h81V538.9z"/>
		</g>
	</g>
	<g>
		<g>
			<path class="st0" d="M536.6,515.1c-5.9,0-10.7,4.8-10.7,10.7V588h-46.5c1.7-3.9,1-8.6-2.2-11.8c-4.2-4.2-10.9-4.2-15.1,0
				l-16.3,16.3c-4.2,4.2-4.2,10.9,0,15.1l16.3,16.3c2.1,2.1,4.8,3.1,7.5,3.1c2.7,0,5.5-1,7.5-3.1c4-4,4.1-10.3,0.5-14.5h58.8
				c5.9,0,10.7-4.8,10.7-10.7v-72.9C547.2,519.9,542.5,515.1,536.6,515.1z"/>
		</g>
	</g>
	<g>
		<g>
			<path class="st0" d="M178.6,151.8l-16.3-16.3c-4.2-4.2-10.9-4.2-15.1,0c-3.6,3.6-4.1,9-1.5,13.2H97.3c-5.9,0-10.7,4.8-10.7,10.7
				v63.3c0,5.9,4.8,10.7,10.7,10.7s10.7-4.8,10.7-10.7V170h37.8c-2.6,4.1-2.1,9.6,1.5,13.2c2.1,2.1,4.8,3.1,7.5,3.1
				c2.7,0,5.5-1,7.5-3.1l16.3-16.3c2-2,3.1-4.7,3.1-7.5C181.7,156.5,180.6,153.8,178.6,151.8z"/>
		</g>
	</g>
	<g>
		<g>
			<path class="st0" d="M104.8,254.5c-2-2-4.7-3.1-7.5-3.1c-2.8,0-5.6,1.1-7.5,3.1c-2,2-3.1,4.7-3.1,7.5c0,2.8,1.1,5.5,3.1,7.5
				c2,2,4.7,3.1,7.5,3.1c2.8,0,5.6-1.1,7.5-3.1c2-2,3.1-4.7,3.1-7.5C107.9,259.2,106.8,256.5,104.8,254.5z"/>
		</g>
	</g>
</g>
</svg>
