<?xml version="1.0" encoding="utf-8"?>
<!-- Generator: Adobe Illustrator 21.1.0, SVG Export Plug-In . SVG Version: 6.00 Build 0)  -->
<svg version="1.1" id="Layer_1" xmlns="http://www.w3.org/2000/svg" xmlns:xlink="http://www.w3.org/1999/xlink" x="0px" y="0px"
	 viewBox="0 0 634 758" style="enable-background:new 0 0 634 758;" xml:space="preserve">
<style type="text/css">
	.st0{fill:#FFFFFF;}
</style>
<g>
	<g>
		<g>
			<path class="st0" d="M536.7,187h-4.3v-36.3c0-24.7-20.1-44.8-44.8-44.8c-24.7,0-44.8,20.1-44.8,44.8V187h-38.7
				c-5.9,0-10.7,4.8-10.7,10.7s4.8,10.7,10.7,10.7h38.7v24.2c0,5.9,4.8,10.7,10.7,10.7c5.9,0,10.7-4.8,10.7-10.7V186h46.9v182.5
				h-46.9v-59.9c0-5.9-4.8-10.7-10.7-10.7c-5.9,0-10.7,4.8-10.7,10.7v70.5c0,1.9,0.5,3.8,1.5,5.4l24.6,41.7H259.1
				c-5.9,0-10.7,4.8-10.7,10.7s4.8,10.7,10.7,10.7h271.2c5.9,0,10.7-4.8,10.7-10.7s-4.8-10.7-10.7-10.7h-24l24.6-41.7
				c1-1.6,1.5-3.5,1.5-5.4V208.4h4.3c17.6,0,32,14.4,32,32v228.2H122.9v-78.8h213.3c20,0,36.3-16.3,36.3-36.3V142.2
				c0-20-16.3-36.3-36.3-36.3h-256c-20,0-36.3,16.3-36.3,36.3v211.3c0,20,16.3,36.3,36.3,36.3h21.3v119.3
				c0,29.4,23.9,53.3,53.3,53.3h137.6v25.6c-28.9,0.6-52.3,24.2-52.3,53.3c0,5.9,4.8,10.7,10.7,10.7h189.9c5.9,0,10.7-4.8,10.7-10.7
				c0-29.1-23.4-52.7-52.3-53.3v-25.6h137.5c29.4,0,53.3-23.9,53.3-53.3V240.4C590,210.9,566.1,187,536.7,187z M503.1,389.8
				L487.6,416l-15.4-26.2L503.1,389.8L503.1,389.8z M511.1,164.6h-46.9v-13.9c0-12.9,10.5-23.5,23.5-23.5s23.5,10.5,23.5,23.5V164.6
				z M65.3,142.2c0-8.2,6.7-14.9,14.9-14.9h256c8.2,0,14.9,6.7,14.9,14.9v40.5H65.3V142.2z M80.2,368.5c-8.2,0-14.9-6.7-14.9-14.9
				V204.1h285.8v149.4c0,8.2-6.7,14.9-14.9,14.9H80.2z M428.3,630.7H263.4c4.4-12.4,16.3-21.3,30.2-21.3h104.6
				C412,609.4,423.9,618.3,428.3,630.7z M313.8,588v-25.6h64V588H313.8z M568.7,509.1c0,17.6-14.4,32-32,32H154.9
				c-17.6,0-32-14.4-32-32v-19.2h445.8V509.1z"/>
		</g>
	</g>
	<g>
		<g>
			<path class="st0" d="M317.1,144.4h-99.3c-5.9,0-10.7,4.8-10.7,10.7c0,5.9,4.8,10.7,10.7,10.7h99.3c5.9,0,10.7-4.8,10.7-10.7
				C327.8,149.1,323,144.4,317.1,144.4z"/>
		</g>
	</g>
	<g>
		<g>
			<path class="st0" d="M136,147.5c-2-2-4.7-3.1-7.6-3.1c-2.8,0-5.5,1.1-7.5,3.1c-2,2-3.1,4.7-3.1,7.5c0,2.8,1.1,5.6,3.1,7.5
				c2,2,4.7,3.1,7.5,3.1c2.8,0,5.6-1.1,7.6-3.1c2-2,3.1-4.7,3.1-7.5C139.1,152.2,138,149.5,136,147.5z"/>
		</g>
	</g>
	<g>
		<g>
			<path class="st0" d="M99.6,147.5c-2-2-4.7-3.1-7.5-3.1c-2.8,0-5.6,1.1-7.5,3.1c-2,2-3.1,4.7-3.1,7.5c0,2.8,1.1,5.6,3.1,7.5
				s4.7,3.1,7.5,3.1c2.8,0,5.6-1.1,7.5-3.1c2-2,3.1-4.7,3.1-7.5C102.7,152.2,101.6,149.5,99.6,147.5z"/>
		</g>
	</g>
	<g>
		<g>
			<path class="st0" d="M172.4,147.5c-2-2-4.7-3.1-7.5-3.1c-2.8,0-5.5,1.1-7.5,3.1c-2,2-3.1,4.7-3.1,7.5c0,2.8,1.1,5.6,3.1,7.5
				c2,2,4.7,3.1,7.5,3.1c2.8,0,5.6-1.1,7.5-3.1c2-2,3.1-4.7,3.1-7.5C175.5,152.2,174.4,149.5,172.4,147.5z"/>
		</g>
	</g>
	<g>
		<g>
			<path class="st0" d="M120.9,279.8l29-29c4.2-4.2,4.2-10.9,0-15.1c-4.2-4.2-10.9-4.2-15.1,0l-36.5,36.5c-2,2-3.1,4.7-3.1,7.5
				c0,2.8,1.1,5.5,3.1,7.5l36.5,36.5c2.1,2.1,4.8,3.1,7.5,3.1s5.5-1,7.5-3.1c4.2-4.2,4.2-10.9,0-15.1L120.9,279.8z"/>
		</g>
	</g>
	<g>
		<g>
			<path class="st0" d="M318.1,272.3l-36.5-36.5c-4.2-4.2-10.9-4.2-15.1,0c-4.2,4.2-4.2,10.9,0,15.1l29,29l-29,29
				c-4.2,4.2-4.2,10.9,0,15.1c2.1,2.1,4.8,3.1,7.5,3.1s5.5-1,7.5-3.1l36.5-36.5c2-2,3.1-4.7,3.1-7.5
				C321.3,277,320.1,274.3,318.1,272.3z"/>
		</g>
	</g>
	<g>
		<g>
			<path class="st0" d="M239.4,226.7c-5.1-3-11.6-1.3-14.6,3.8l-51.6,87.8c-3,5.1-1.3,11.6,3.8,14.6c1.7,1,3.6,1.5,5.4,1.5
				c3.7,0,7.2-1.9,9.2-5.3l51.6-87.8C246.2,236.3,244.5,229.7,239.4,226.7z"/>
		</g>
	</g>
	<g>
		<g>
			<path class="st0" d="M461.1,263.4c-2-2-4.7-3.1-7.5-3.1s-5.6,1.1-7.5,3.1c-2,2-3.1,4.7-3.1,7.5c0,2.8,1.1,5.6,3.1,7.5
				c2,2,4.7,3.1,7.5,3.1s5.6-1.1,7.5-3.1c2-2,3.1-4.7,3.1-7.5C464.2,268.1,463,265.4,461.1,263.4z"/>
		</g>
	</g>
	<g>
		<g>
			<path class="st0" d="M211.8,426.3h-1.7c-5.9,0-10.7,4.8-10.7,10.7s4.8,10.7,10.7,10.7h1.7c5.9,0,10.7-4.8,10.7-10.7
				S217.7,426.3,211.8,426.3z"/>
		</g>
	</g>
</g>
</svg>
