<?xml version="1.0" encoding="utf-8"?>
<!-- Generator: Adobe Illustrator 21.1.0, SVG Export Plug-In . SVG Version: 6.00 Build 0)  -->
<svg version="1.1" id="Layer_1" xmlns="http://www.w3.org/2000/svg" xmlns:xlink="http://www.w3.org/1999/xlink" x="0px" y="0px"
	 viewBox="0 0 634 758" style="enable-background:new 0 0 634 758;" xml:space="preserve">
<style type="text/css">
	.st0{fill:#FFFFFF;}
	.st1{fill:#23C286;}
</style>
<g>
	<g>
		<g>
			<path class="st0" d="M306.7,307.7l10.2-81.7l-23.6-2.9l-11.9,95c-0.4,3.4,0.6,6.8,2.9,9.3c2.3,2.6,5.5,4,8.9,4h35.6v-23.8
				L306.7,307.7L306.7,307.7z"/>
		</g>
	</g>
	<g>
		<g>
			<path class="st0" d="M344.2,334.9c-13.1,13.1-30.5,20.3-49,20.3h-2V379h2c24.8,0,48.2-9.7,65.8-27.2L344.2,334.9z"/>
		</g>
	</g>
	<g>
		<g>
			<path class="st0" d="M459.6,212.7h-11.9v23.8h11.9c13.1,0,23.8,10.7,23.8,23.8c0,13.1-10.7,23.8-23.8,23.8h-11.9v23.8h11.9
				c26.2,0,47.5-21.3,47.5-47.5S485.8,212.7,459.6,212.7z"/>
		</g>
	</g>
	<g>
		<g>
			<path class="st0" d="M174.4,236.4h11.9v-23.8h-11.9c-26.2,0-47.5,21.3-47.5,47.5s21.3,47.5,47.5,47.5h11.9V284h-11.9
				c-13.1,0-23.8-10.7-23.8-23.8C150.7,247.1,161.3,236.4,174.4,236.4z"/>
		</g>
	</g>
	<g>
		<g>
			<path class="st0" d="M435.8,141.4v129.8l-2.5,32.4c-3.3,54.1-42.8,99.1-95.8,109.4c-3.4,0.6-6.9,1.1-10.4,1.4
				c-63.8,5.5-120.6-42.1-126.1-106.1l-2.8-36.2v-95h-23.8v96l2.9,37.2c3.2,37.3,20.8,71.2,49.4,95.3c25.5,21.5,57.1,33,90.1,33
				c4.1,0,8.1-0.2,12.2-0.5c4.2-0.4,8.4-0.9,12.7-1.7C405.6,424,453,370.1,456.9,305.3l2.5-33.1V141.4H435.8z"/>
		</g>
	</g>
	<g>
		<g>
			<path class="st0" d="M395.3,46.7c-10.1-15-26.9-24.1-45.4-24.1h-0.1h-211c-6.6,0-11.9,5.3-11.9,11.9c0,13.4,4.4,25.7,11.9,35.6
				l0,0c-6.6,0-11.9,5.3-11.9,11.9c0,13.4,4.4,25.7,11.9,35.6l0,0c-6.6,0-11.9,5.3-11.9,11.9c0,32.8,26.6,59.4,59.4,59.4h47.5
				c52,0,105.3-16.6,151.5-33.7c16.7,15.7,37,27.2,59.2,33.3c1,0.3,2.1,0.4,3.2,0.4c2.6,0,5.1-0.8,7.2-2.4c2.9-2.2,4.7-5.7,4.7-9.4
				v-59.4C459.6,80.7,431.3,50.2,395.3,46.7z M435.8,160.3c-14.6-6.3-27.9-15.5-38.9-27.1c-3.3-3.5-8.4-4.6-12.8-2.9
				c-30,11.3-92.5,34.9-150.3,34.9h-47.5c-15.5,0-28.7-9.9-33.6-23.8h33.6c6.6,0,11.9-5.3,11.9-11.9c0-6.6-5.3-11.9-11.9-11.9
				c-15.5,0-28.7-9.9-33.6-23.8h33.6c6.6,0,11.9-5.3,11.9-11.9S192.9,70,186.3,70c-15.5,0-28.7-9.9-33.6-23.8h197.1
				c11.5,0.1,22.5,6.6,27.8,17.2c2,4,6.1,6.6,10.6,6.6c26.2,0,47.5,21.3,47.5,47.5L435.8,160.3L435.8,160.3z"/>
		</g>
	</g>
	<g>
		<g>
			<path class="st1" d="M293.2,212.7H186.3c-6.6,0-11.9,5.3-11.9,11.9v30c0,17.4,6.9,33.8,19.2,46.1c12.3,12.2,28.6,19,46,19h0.1
				h0.2c17.4,0,33.8-6.9,46.1-19.2c12.3-12.3,19-28.7,19-46.1v-29.7C305.1,218,299.8,212.7,293.2,212.7z M281.4,254.3
				c0,22.9-18.5,41.5-41.3,41.6h-0.2h-0.1c-22.8,0-41.4-18.5-41.5-41.6v-17.8h83.2v17.8H281.4z"/>
		</g>
	</g>
	<g>
		<g>
			<path class="st1" d="M447.7,212.7H340.8c-6.6,0-11.9,5.3-11.9,11.9v30c0.1,35.9,29.3,65.1,65.2,65.1h0.1h0.2
				c17.4,0,33.8-6.9,46.1-19.2c12.3-12.3,19-28.7,19-46.1v-29.7C459.6,218,454.3,212.7,447.7,212.7z M435.8,254.3
				c0,11.1-4.3,21.5-12.1,29.3c-7.8,7.8-18.2,12.2-29.3,12.2h-0.2l0,0c-22.8-0.5-41.5-18.5-41.6-41.6v-17.8h83.2V254.3z"/>
		</g>
	</g>
	<g>
		<g>
			<rect x="293.2" y="212.7" class="st1" width="47.5" height="23.8"/>
		</g>
	</g>
	<g>
		<g>
			<circle class="st0" cx="245.7" cy="248.3" r="23.8"/>
		</g>
	</g>
	<g>
		<g>
			<circle class="st0" cx="388.3" cy="248.3" r="23.8"/>
		</g>
	</g>
	<g>
		<g>
			<path class="st0" d="M245.7,414.6v62c0,6.1-4.5,11.2-10.4,11.9l-86.9,10.2c-52.9,7.1-92.8,52.6-92.8,106v130.7h23.8V604.7
				c0-41.5,31-76.9,72-82.4l86.8-10.2c18-2.2,31.5-17.5,31.4-35.6v-61.9L245.7,414.6L245.7,414.6z"/>
		</g>
	</g>
	<g>
		<g>
			<path class="st0" d="M485.4,498.8l-86.7-10.2c-6-0.7-10.5-5.8-10.5-12v-62h-23.8v61.9c-0.1,18.1,13.3,33.5,31.4,35.7l86.5,10.2
				c41.1,5.5,72.1,40.9,72.1,82.3v130.7h23.8V604.7C578.3,551.4,538.4,505.9,485.4,498.8z"/>
		</g>
	</g>
	<g>
		<g>
			<path class="st0" d="M413,493.1l-7.6,17.7c-15.2,35.4-49.9,58.3-88.4,58.3h-0.1c-38.5,0-73.2-22.9-88.3-58.3l-7.6-17.7l-21.8,9.4
				l7.6,17.7c18.9,44.1,62.1,72.7,110.2,72.7h0.1c48,0,91.3-28.5,110.2-72.6l7.6-17.7L413,493.1z"/>
		</g>
	</g>
	<g>
		<g>
			<rect x="150.7" y="640.4" class="st0" width="23.8" height="95"/>
		</g>
	</g>
	<g>
		<g>
			<rect x="67.5" y="664.1" class="st0" width="95" height="23.8"/>
		</g>
	</g>
	<g>
		<g>
			<rect x="459.6" y="640.4" class="st0" width="23.8" height="95"/>
		</g>
	</g>
	<g>
		<g>
			<rect x="471.4" y="664.1" class="st0" width="95" height="23.8"/>
		</g>
	</g>
</g>
</svg>
