<?xml version="1.0" encoding="utf-8"?>
<!-- Generator: Adobe Illustrator 21.1.0, SVG Export Plug-In . SVG Version: 6.00 Build 0)  -->
<svg version="1.1" id="Layer_1" xmlns="http://www.w3.org/2000/svg" xmlns:xlink="http://www.w3.org/1999/xlink" x="0px" y="0px"
	 viewBox="0 0 634 758" style="enable-background:new 0 0 634 758;" xml:space="preserve">
<style type="text/css">
	.st0{fill:#FFFFFF;}
</style>
<g>
	<g>
		<g>
			<circle class="st0" cx="388.2" cy="248.3" r="23.8"/>
		</g>
	</g>
	<g>
		<g>
			<path class="st0" d="M308.2,288.3l20-60l-22.5-7.5l-23.8,71.3c-2.1,6.2,1.3,12.9,7.5,15L325,319l7.5-22.5L308.2,288.3z"/>
		</g>
	</g>
	<g>
		<g>
			<path class="st0" d="M245.8,426.5v49.8c0,6-4.4,11.1-10.4,11.9l-106.9,13.3c-41.9,5.2-73.2,41-72.9,83.1v150.9h23.8l0,0v-151
				c-0.2-30.1,22.2-55.7,52.1-59.4l106.9-13.3c17.9-2.2,31.3-17.6,31.2-35.5v-49.7L245.8,426.5L245.8,426.5z"/>
		</g>
	</g>
	<g>
		<g>
			<path class="st0" d="M505.5,502l-106.9-13.3c-6-0.8-10.4-5.9-10.4-12v-50.3h-23.8v50.2c-0.1,18.1,13.3,33.4,31.2,35.6l106.9,13.3
				c29.9,3.7,52.3,29.3,52.1,59.5v150.3h23.8V585.2C578.7,543,547.4,507.2,505.5,502z"/>
		</g>
	</g>
	<g>
		<g>
			<path class="st0" d="M459.5,212.7h-11.9v23.8h11.9c13.1,0,23.8,10.7,23.8,23.8c0,13.1-10.7,23.8-23.8,23.8h-11.9v23.8h11.9
				c26.2,0,47.5-21.3,47.5-47.5S485.7,212.7,459.5,212.7z"/>
		</g>
	</g>
	<g>
		<g>
			<path class="st0" d="M413,493.1l-7.6,17.7C390.2,546.2,355.5,569,317,569h-0.1c-38.5,0-73.2-22.9-88.3-58.3L221,493l-21.8,9.4
				l7.6,17.7c18.9,44.1,62.2,72.7,110.2,72.7h0.1c48,0,91.3-28.5,110.2-72.6l7.6-17.7L413,493.1z"/>
		</g>
	</g>
	<g>
		<g>
			<path class="st0" d="M435.8,211.9L429.3,319c-2.7,60.2-52,107.4-112.3,107.4c-37.7,0-73.2-18.4-95-49.1L202.6,391
				c26.2,37,69,59.2,114.4,59.2c73.1,0,132.8-57.2,136-130l6.5-106.9L435.8,211.9z"/>
		</g>
	</g>
	<g>
		<g>
			<path class="st0" d="M347.3,332.7c-13.9,7-29.5,10.6-45,10.6l0,0h-9v23.8h9l0,0c19.2,0,38.5-4.5,55.7-13.1L347.3,332.7z"/>
		</g>
	</g>
	<g>
		<g>
			<circle class="st0" cx="245.7" cy="248.3" r="23.8"/>
		</g>
	</g>
	<g>
		<g>
			<path class="st0" d="M316.9,22.6c-98.3,0-178.2,79.9-178.2,178.2v35.6h23.8v-35.6c0-85.2,69.3-154.4,154.4-154.4
				s154.4,69.3,154.4,154.4v35.6h23.8v-35.6C495.1,102.5,415.2,22.6,316.9,22.6z"/>
		</g>
	</g>
	<g>
		<g>
			<path class="st0" d="M428.9,140.8c-5.2-13.9-18.7-23.3-33.5-23.2h-77.7c-33.1-4.4-97,7.1-107.6,81.5
				c-8.9,62.6-11.2,157.5-6.8,218c-18.8-34.1-40.9-95-40.9-192.5h-23.8c0,181.7,72.5,244.2,75.6,246.7c2.2,1.8,4.9,2.7,7.6,2.7
				c2.3,0,4.7-0.7,6.7-2c4.4-3,6.2-8.5,4.6-13.6c-10.4-31.3-11.9-168.9,0.5-255.9c9.9-69,74.4-62.2,81.6-61.2
				c0.6,0.1,1.1,0.1,1.7,0.1h78.6l0,0c4.9,0,9.4,3.1,11.1,7.7l29.8,79.6l22.3-8.3L428.9,140.8z"/>
		</g>
	</g>
	<g>
		<g>
			<path class="st0" d="M471.4,284c0,1.6-0.4,163.7-33.9,219.6l20.4,12.2c36.9-61.5,37.3-224.9,37.3-231.8H471.4L471.4,284z"/>
		</g>
	</g>
	<g>
		<g>
			<path class="st0" d="M162.5,236.4h-23.8c0,8.3,0.3,204.7,24.4,277l22.5-7.5C162.8,437.3,162.5,238.4,162.5,236.4z"/>
		</g>
	</g>
</g>
</svg>
