<?xml version="1.0" encoding="utf-8"?>
<!-- Generator: Adobe Illustrator 21.1.0, SVG Export Plug-In . SVG Version: 6.00 Build 0)  -->
<svg version="1.1" id="Layer_1" xmlns="http://www.w3.org/2000/svg" xmlns:xlink="http://www.w3.org/1999/xlink" x="0px" y="0px"
	 viewBox="0 0 634 758" style="enable-background:new 0 0 634 758;" xml:space="preserve">
<g>
	<g>
		<g>
			<circle cx="245.7" cy="212.7" r="23.8"/>
		</g>
	</g>
	<g>
		<g>
			<circle cx="388.3" cy="212.7" r="23.8"/>
		</g>
	</g>
	<g>
		<g>
			<path d="M305.2,199.3l-11.9,95c-0.4,3.4,0.6,6.8,2.9,9.3c2.3,2.6,5.5,4,8.9,4H317v-11.1l11.8-94.3L305.2,199.3z"/>
		</g>
	</g>
	<g>
		<g>
			<path d="M459.6,165.2h-11.9v23.8h11.9c13.1,0,23.8,10.7,23.8,23.8c0,13.1-10.7,23.8-23.8,23.8h-11.9v23.8h11.9
				c26.2,0,47.5-21.3,47.5-47.5C507.1,186.5,485.8,165.2,459.6,165.2z"/>
		</g>
	</g>
	<g>
		<g>
			<path d="M174.4,188.9h11.9v-23.8h-11.9c-26.2,0-47.5,21.3-47.5,47.5s21.3,47.5,47.5,47.5h11.9v-23.8h-11.9
				c-13.1,0-23.8-10.7-23.8-23.8C150.7,199.6,161.3,188.9,174.4,188.9z"/>
		</g>
	</g>
	<g>
		<g>
			<path d="M447.7,165.2v195.8c0.1,17.8-4.5,35.4-13.4,50.9c-17.9,31.5-51.6,51-87.9,51c0,0-0.1,0-0.1,0h-54.3
				c-32.6,0-63.5-16-82.4-42.5l-4.4-6.2c-12.4-17.3-18.9-37.6-18.9-58.9v-202h-23.8v202c0,26.2,8.1,51.4,23.3,72.7l4.4,6.2
				c23.4,32.8,61.4,52.4,101.7,52.5h54.3c0,0,0.1,0,0.1,0c44.8,0,86.3-24.2,108.5-63c11-19.1,16.7-40.9,16.5-62.8V165.2H447.7z"/>
		</g>
	</g>
	<g>
		<g>
			<path d="M405.1,58.4c-24.8-23.1-56.9-35.8-91-35.8h-32.8c-75.5,0-140.4,63.5-165.5,126.3c-1.3,3.3-1.1,7.1,0.7,10.2
				c1.7,3.1,4.8,5.3,8.3,5.9c8.1,1.4,189.2,32.4,271.7-38.9c10.4,20,31.1,52.9,59.2,62.2c1.2,0.4,2.5,0.6,3.8,0.6
				c2.5,0,4.9-0.8,7-2.2c3.1-2.2,4.9-5.8,4.9-9.6v-47.5C471.4,91.9,442.1,61,405.1,58.4z M447.7,156.3
				c-17.7-15.5-31.7-43.1-36.5-54.9c-1.5-3.8-5-6.6-9.1-7.3c-0.7-0.1-1.3-0.2-1.9-0.2c-3.4,0-6.7,1.5-9,4.1
				c-55.1,64.3-199.6,51.8-246.9,45.8c25.4-50.4,77.7-97.4,137.1-97.4h32.8c29.3,0,56.9,11.4,77.6,32.2c2.2,2.2,5.3,3.5,8.4,3.5
				c26.2,0,47.5,21.3,47.5,47.5L447.7,156.3L447.7,156.3z"/>
		</g>
	</g>
	<g>
		<g>
			<path d="M449.2,242.5l-40.8,72.4c-1.7,2.9-4.8,4.8-8.5,4.8c-3.7-0.1-6.2-1.5-8-4.3c-13.2-19.5-35.2-31.3-58.8-31.4h-32
				c-0.1,0-0.2,0-0.2,0c-23.7,0-45.8,11.7-59.1,31.5c-1.7,2.6-4.6,4.2-7.5,4.2h0c-3.3-0.1-6.4-1.9-8-4.7l-41.3-72.5l-20.6,11.8
				l41.4,72.5c5.8,10,16.5,16.4,28.3,16.6c0,0,0.1,0,0.1,0c11.1,0,21.4-5.5,27.5-14.7c8.9-13.1,23.6-20.9,39.4-20.9
				c0.1,0,0.1,0,0.2,0h32c15.7,0.1,30.4,7.9,39.1,20.8c6.2,9.3,16.4,14.9,27.3,14.9c0.3,0,0.8,0,0.8,0c11.9,0,22.9-6.4,28.9-16.7
				l40.9-72.5L449.2,242.5z"/>
		</g>
	</g>
	<g>
		<g>
			<path d="M348.9,332.1c-20.6,6.9-43.2,6.9-63.8,0l-7.5,22.5c12.7,4.2,26.1,6.4,39.4,6.4c13.4,0,26.7-2.1,39.4-6.4L348.9,332.1z"/>
		</g>
	</g>
	<g>
		<g>
			<path d="M233.8,470.9c0,9.4-7.1,17.4-16.3,18.7l-69.2,9.2c-52.9,7.1-92.8,52.6-92.8,106v83.2h23.8v-83.2
				c0-41.5,31-76.9,72.1-82.4l69.2-9.2c21-2.9,36.8-21,36.9-42.2L233.8,470.9z"/>
		</g>
	</g>
	<g>
		<g>
			<path d="M485.6,498.7l-69.1-9.2c-9.3-1.3-16.3-9.3-16.3-18.7l-23.8,0c0,21.2,15.9,39.3,36.9,42.2l69.1,9.2
				c41.1,5.5,72.1,40.9,72.1,82.4v83.2h23.8v-83.2C578.4,551.4,538.5,505.8,485.6,498.7z"/>
		</g>
	</g>
	<g>
		<g>
			<rect x="150.7" y="640.4" width="23.8" height="95"/>
		</g>
	</g>
	<g>
		<g>
			<rect x="459.6" y="640.4" width="23.8" height="95"/>
		</g>
	</g>
	<g>
		<g>
			<path d="M390.4,491L317,595.9L243.6,491l-19.5,13.6l83.2,118.8c2.2,3.2,5.9,5.1,9.7,5.1c3.9,0,7.5-1.9,9.7-5.1l83.2-118.8
				L390.4,491z"/>
		</g>
	</g>
	<g>
		<g>
			<path d="M286.7,571.1l-56.2,37.5l-20.5-112.9l-23.4,4.2l23.8,130.7c0.7,3.9,3.4,7.2,7,8.8c1.5,0.6,3.1,0.9,4.6,0.9
				c2.3,0,4.6-0.7,6.6-2l71.3-47.5L286.7,571.1z"/>
		</g>
	</g>
	<g>
		<g>
			<path d="M424.1,495.7l-20.5,112.9l-56.2-37.5l-13.2,19.8l71.3,47.5c2,1.3,4.3,2,6.6,2c1.6,0,3.2-0.3,4.6-1c3.7-1.6,6.3-4.9,7-8.8
				l23.8-130.7L424.1,495.7z"/>
		</g>
	</g>
	<g>
		<g>
			<rect x="305.1" y="616.6" width="23.8" height="118.8"/>
		</g>
	</g>
	<g>
		<g>
			<rect x="269.5" y="545.3" width="95" height="23.8"/>
		</g>
	</g>
	<g>
		<g>
			<path d="M162.6,676H43.8c-6.6,0-11.9,5.3-11.9,11.9v47.5h23.8v-35.6h95v35.6h23.8v-47.5C174.4,681.3,169.1,676,162.6,676z"/>
		</g>
	</g>
	<g>
		<g>
			<path d="M590.2,676H471.4c-6.6,0-11.9,5.3-11.9,11.9v47.5h23.8v-35.6h95v35.6h23.8v-47.5C602.1,681.3,596.8,676,590.2,676z"/>
		</g>
	</g>
	<g>
		<g>
			<path d="M275.4,640.4c-9.8,0-17.8,8-17.8,17.8s8,17.8,17.8,17.8c9.8,0,17.8-8,17.8-17.8C293.2,648.4,285.2,640.4,275.4,640.4z
				 M275.4,664.1c-3.3,0-5.9-2.7-5.9-5.9c0-3.3,2.7-5.9,5.9-5.9c3.3,0,5.9,2.7,5.9,5.9C281.4,661.5,278.7,664.1,275.4,664.1z"/>
		</g>
	</g>
</g>
</svg>
